<?xml version="1.0" encoding="UTF-8" standalone="no"?><!DOCTYPE svg PUBLIC "-//W3C//DTD SVG 1.1//EN" "http://www.w3.org/Graphics/SVG/1.1/DTD/svg11.dtd"><svg width="100%" height="100%" viewBox="0 0 520 312" version="1.1" xmlns="http://www.w3.org/2000/svg" xmlns:xlink="http://www.w3.org/1999/xlink" xml:space="preserve" xmlns:serif="http://www.serif.com/" style="fill-rule:evenodd;clip-rule:evenodd;stroke-linejoin:round;stroke-miterlimit:2;"><g id="Illustraton-11"><g id="Browser"><path id="Shape-496" d="M277.904,257.743l-84.139,0l24.713,-82.602l33.355,0l26.071,82.602Z" style="fill:#bfbfbf;fill-rule:nonzero;"/><path id="Shape-497" d="M83.362,0.035l299.976,0c4.092,0 7.459,3.367 7.459,7.458l0,187.29c0,4.091 -3.367,7.458 -7.459,7.458l-299.976,0c-4.091,0 -7.458,-3.367 -7.458,-7.458l0,-187.29c0,-4.091 3.367,-7.458 7.458,-7.458Z" style="fill:#e5e8f5;fill-rule:nonzero;"/><path id="Shape-498" d="M85.846,0.035l299.976,0c4.092,0 7.459,3.367 7.459,7.458l0,184.804c0,4.092 -3.367,7.458 -7.459,7.458l-299.976,0c-4.091,0 -7.458,-3.366 -7.458,-7.458l0,-184.804c0,-4.091 3.367,-7.458 7.458,-7.458Z" style="fill:#fff;fill-rule:nonzero;"/><path id="Shape-499" d="M78.49,164.173l0,-156.124c0.013,-4.411 3.639,-8.036 8.049,-8.049l298.795,0c4.411,0.013 8.037,3.638 8.05,8.049l0,156.124l-314.894,0Z" style="fill:#37474f;fill-rule:nonzero;"/><path id="Shape-500" d="M93.293,7.591l285.083,0c3.588,0 6.54,2.953 6.54,6.541l0,139.005c0,3.588 -2.952,6.541 -6.54,6.541l-285.083,0c-3.588,0 -6.54,-2.953 -6.54,-6.541l0,-139.005c0,-3.588 2.952,-6.541 6.54,-6.541Z" style="fill:#eae9ed;fill-rule:nonzero;"/><path id="Shape-501" d="M379.347,159.663l-287.025,0c-3.052,-0.009 -5.561,-2.518 -5.569,-5.57l0,-129.657l298.163,0l0,129.657c-0.009,3.052 -2.517,5.561 -5.569,5.57Z" style="fill:#fff;fill-rule:nonzero;"/><path id="Shape-502" d="M144.167,248.474l183.334,0c3.889,0 7.088,3.2 7.088,7.088c0,3.888 -3.199,7.088 -7.088,7.088l-183.334,0c-3.888,0 -7.088,-3.2 -7.088,-7.088c0,-3.888 3.2,-7.088 7.088,-7.088Z" style="fill:#d8d6dd;fill-rule:nonzero;"/><circle id="Shape-503" cx="236.023" cy="183.316" r="7.949" style="fill:#d8d6dd;"/><circle id="Shape-504" cx="96.962" cy="15.509" r="3.547" style="fill:#fa538d;"/><circle id="Shape-505" cx="110.915" cy="15.509" r="3.547" style="fill:#fab353;"/><circle id="Shape-506" cx="124.869" cy="15.509" r="3.547" style="fill:#9dc925;"/><g id="Content-5"><path id="Shape-507" d="M138.503,36.166l43.007,0c1.208,0 2.202,0.994 2.202,2.202l0,0.14c0,1.208 -0.994,2.202 -2.202,2.202l-43.007,0l0,0c-1.208,0 -2.202,-0.994 -2.202,-2.202c0,-0.001 0,-0.001 0,-0.002l0,-0.14c0.001,-1.207 0.995,-2.2 2.202,-2.2Z" style="fill:#f9b25f;fill-rule:nonzero;"/><path id="Shape-508" d="M110.231,38.437c0,-1.253 -1.018,-2.271 -2.271,-2.271l-6.629,0c-1.253,0 -2.271,1.018 -2.271,2.271c0,1.253 1.018,2.271 2.271,2.271l6.629,0c1.253,0 2.271,-1.018 2.271,-2.271Z" style="fill:#fff;"/><path id="Shape-509" d="M191.11,36.166l84.044,0c1.233,0.018 2.238,1.037 2.238,2.271c0,1.234 -1.005,2.253 -2.238,2.271l-84.044,0c-1.233,-0.018 -2.238,-1.037 -2.238,-2.271c0,-1.234 1.005,-2.253 2.238,-2.271Z" style="fill:#bbc0d6;fill-rule:nonzero;"/><path id="Shape-510" d="M138.503,104.222l43.007,0c1.208,0 2.202,0.994 2.202,2.202l0,0.14c0,1.208 -0.994,2.202 -2.202,2.202l-43.007,0l0,0c-1.208,0 -2.202,-0.994 -2.202,-2.202c0,-0.001 0,-0.001 0,-0.002l0,-0.14c0.001,-1.207 0.995,-2.2 2.202,-2.2Z" style="fill:#f9b25f;fill-rule:nonzero;"/><path id="Shape-511" d="M110.231,106.493c0,-1.253 -1.018,-2.271 -2.271,-2.271l-6.629,0c-1.253,0 -2.271,1.018 -2.271,2.271c0,1.253 1.018,2.271 2.271,2.271l6.629,0c1.253,0 2.271,-1.018 2.271,-2.271Z" style="fill:#fff;"/><path id="Shape-512" d="M191.11,104.222l84.044,0c1.233,0.018 2.238,1.037 2.238,2.271c0,1.233 -1.005,2.253 -2.238,2.271l-84.044,0c-1.233,-0.018 -2.238,-1.038 -2.238,-2.271c0,-1.234 1.005,-2.253 2.238,-2.271Z" style="fill:#bbc0d6;fill-rule:nonzero;"/><path id="Shape-513" d="M146.173,47.945l43.006,0c1.208,0 2.202,0.994 2.202,2.202l0,0.14c0,1.208 -0.994,2.202 -2.202,2.202l-43.006,0l0,0c-1.208,0 -2.202,-0.994 -2.202,-2.202c0,-0.001 0,-0.001 0,-0.002l0,-0.14c0.001,-1.207 0.995,-2.2 2.202,-2.2Z" style="fill:#f9b25f;fill-rule:nonzero;"/><path id="Shape-514" d="M110.231,50.216c0,-1.254 -1.018,-2.271 -2.271,-2.271l-6.629,0c-1.253,0 -2.271,1.017 -2.271,2.271c0,1.253 1.018,2.27 2.271,2.27l6.629,0c1.253,0 2.271,-1.017 2.271,-2.27Z" style="fill:#fff;"/><path id="Shape-515" d="M205.441,47.945l84.044,0c1.233,0.018 2.239,1.037 2.239,2.271c0,1.233 -1.006,2.253 -2.239,2.27l-84.044,0c-1.233,-0.017 -2.238,-1.037 -2.238,-2.27c0,-1.234 1.005,-2.253 2.238,-2.271Z" style="fill:#bbc0d6;fill-rule:nonzero;"/><path id="Shape-516" d="M146.173,92.443l43.006,0c1.208,0 2.202,0.994 2.202,2.202l0,0.14c0,1.208 -0.994,2.202 -2.202,2.202l-43.006,0l0,0c-1.208,0 -2.202,-0.994 -2.202,-2.202c0,-0.001 0,-0.002 0,-0.002l0,-0.14c0.001,-1.207 0.995,-2.2 2.202,-2.2Z" style="fill:#f9b25f;fill-rule:nonzero;"/><path id="Shape-517" d="M110.231,94.714c0,-1.254 -1.018,-2.271 -2.271,-2.271l-6.629,0c-1.253,0 -2.271,1.017 -2.271,2.271c0,1.253 1.018,2.27 2.271,2.27l6.629,0c1.253,0 2.271,-1.017 2.271,-2.27Z" style="fill:#fff;"/><path id="Shape-518" d="M205.441,92.443l84.044,0c1.246,0 2.271,1.025 2.271,2.271c0,1.246 -1.025,2.271 -2.271,2.271l-84.044,0c-1.245,0 -2.271,-1.025 -2.271,-2.271c0,-1.246 1.026,-2.271 2.271,-2.271Z" style="fill:#bbc0d6;fill-rule:nonzero;"/><path id="Shape-519" d="M157.678,58.088l43.007,0c1.208,0 2.202,0.994 2.202,2.202l0,0.14c0,1.208 -0.994,2.202 -2.202,2.202l-43.007,0l0,0c-1.208,0 -2.202,-0.994 -2.202,-2.202c0,-0.001 0,-0.001 0,-0.002l0,-0.14c0.001,-1.207 0.995,-2.2 2.202,-2.2Z" style="fill:#f9b25f;fill-rule:nonzero;"/><path id="Shape-520" d="M110.231,60.359c0,-1.254 -1.018,-2.271 -2.271,-2.271l-6.629,0c-1.253,0 -2.271,1.017 -2.271,2.271c0,1.253 1.018,2.271 2.271,2.271l6.629,0c1.253,0 2.271,-1.018 2.271,-2.271Z" style="fill:#fff;"/><path id="Shape-521" d="M216.801,58.088l89.137,0c1.234,0.018 2.239,1.037 2.239,2.271c0,1.233 -1.005,2.253 -2.239,2.271l-89.137,0c-1.234,-0.018 -2.239,-1.038 -2.239,-2.271c0,-1.234 1.005,-2.253 2.239,-2.271Z" style="fill:#bbc0d6;fill-rule:nonzero;"/><path id="Shape-522" d="M157.678,80.991l43.007,0c1.208,0 2.202,0.994 2.202,2.202l0,0.14c0,1.208 -0.994,2.202 -2.202,2.202l-43.007,0l0,0c-1.208,0 -2.202,-0.994 -2.202,-2.202c0,0 0,-0.001 0,-0.002l0,-0.139c0.001,-1.208 0.995,-2.201 2.202,-2.201Z" style="fill:#f9b25f;fill-rule:nonzero;"/><path id="Shape-523" d="M110.231,83.262c0,-1.253 -1.018,-2.271 -2.271,-2.271l-6.629,0c-1.253,0 -2.271,1.018 -2.271,2.271c0,1.253 1.018,2.271 2.271,2.271l6.629,0c1.253,0 2.271,-1.018 2.271,-2.271Z" style="fill:#fff;"/><path id="Shape-524" d="M216.801,80.991l89.137,0c1.234,0.018 2.239,1.038 2.239,2.271c0,1.234 -1.005,2.253 -2.239,2.271l-89.137,0c-1.234,-0.018 -2.239,-1.037 -2.239,-2.271c0,-1.233 1.005,-2.253 2.239,-2.271Z" style="fill:#bbc0d6;fill-rule:nonzero;"/><path id="Shape-525" d="M165.348,69.54l43.007,0c1.208,0 2.202,0.994 2.202,2.202l0,0.14c0,1.208 -0.994,2.202 -2.202,2.202l-43.007,0l0,0c-1.208,0 -2.202,-0.994 -2.202,-2.202c0,-0.001 0,-0.001 0,-0.002l0,-0.14c0.001,-1.207 0.995,-2.2 2.202,-2.2Z" style="fill:#f9b25f;fill-rule:nonzero;"/><path id="Shape-526" d="M110.231,71.811c0,-1.254 -1.018,-2.271 -2.271,-2.271l-6.629,0c-1.253,0 -2.271,1.017 -2.271,2.271c0,1.253 1.018,2.27 2.271,2.27l6.629,0c1.253,0 2.271,-1.017 2.271,-2.27Z" style="fill:#fff;"/><path id="Shape-527" d="M221.091,69.54l96.168,0c1.246,0 2.271,1.025 2.271,2.271c0,1.246 -1.025,2.271 -2.271,2.271l-96.168,0c-1.246,0 -2.271,-1.025 -2.271,-2.271c0,-1.246 1.025,-2.271 2.271,-2.271Z" style="fill:#bbc0d6;fill-rule:nonzero;"/><path id="Shape-528" d="M146.173,116.992l43.006,0c1.208,0 2.202,0.994 2.202,2.202l0,0.14c0,1.208 -0.994,2.202 -2.202,2.202l-43.006,0l0,0c-1.208,0 -2.202,-0.994 -2.202,-2.202c0,-0.001 0,-0.001 0,-0.002l0,-0.14c0.001,-1.207 0.995,-2.2 2.202,-2.2Z" style="fill:#f9b25f;fill-rule:nonzero;"/><path id="Shape-529" d="M110.231,119.263c0,-1.253 -1.018,-2.271 -2.271,-2.271l-6.629,0c-1.253,0 -2.271,1.018 -2.271,2.271c0,1.253 1.018,2.271 2.271,2.271l6.629,0c1.253,0 2.271,-1.018 2.271,-2.271Z" style="fill:#fff;"/><path id="Shape-530" d="M205.441,116.992l84.044,0c1.233,0.018 2.239,1.037 2.239,2.271c0,1.234 -1.006,2.253 -2.239,2.271l-84.044,0c-1.233,-0.018 -2.238,-1.037 -2.238,-2.271c0,-1.234 1.005,-2.253 2.238,-2.271Z" style="fill:#bbc0d6;fill-rule:nonzero;"/><path id="Shape-531" d="M157.678,127.135l43.007,0c1.208,0 2.202,0.994 2.202,2.202l0,0.14c0,1.208 -0.994,2.202 -2.202,2.202l-43.007,0l0,0c-1.208,0 -2.202,-0.994 -2.202,-2.202c0,-0.001 0,-0.001 0,-0.002l0,-0.14c0.001,-1.207 0.995,-2.2 2.202,-2.2Z" style="fill:#f9b25f;fill-rule:nonzero;"/><path id="Shape-532" d="M110.231,129.406c0,-1.253 -1.018,-2.271 -2.271,-2.271l-6.629,0c-1.253,0 -2.271,1.018 -2.271,2.271c0,1.253 1.018,2.271 2.271,2.271l6.629,0c1.253,0 2.271,-1.018 2.271,-2.271Z" style="fill:#fff;"/><path id="Shape-533" d="M216.801,127.135l89.137,0c1.234,0.018 2.239,1.037 2.239,2.271c0,1.234 -1.005,2.253 -2.239,2.271l-89.137,0c-1.234,-0.018 -2.239,-1.037 -2.239,-2.271c0,-1.234 1.005,-2.253 2.239,-2.271Z" style="fill:#bbc0d6;fill-rule:nonzero;"/><path id="Shape-534" d="M157.678,150.039l43.007,0c1.208,0 2.202,0.994 2.202,2.202l0,0.139c0,1.208 -0.994,2.202 -2.202,2.202l-43.007,0l0,0c-1.208,0 -2.202,-0.994 -2.202,-2.202c0,0 0,-0.001 0,-0.001l0,-0.14c0.001,-1.207 0.995,-2.2 2.202,-2.2Z" style="fill:#f9b25f;fill-rule:nonzero;"/><path id="Shape-535" d="M110.231,152.309c0,-1.253 -1.018,-2.27 -2.271,-2.27l-6.629,0c-1.253,0 -2.271,1.017 -2.271,2.27c0,1.254 1.018,2.271 2.271,2.271l6.629,0c1.253,0 2.271,-1.017 2.271,-2.271Z" style="fill:#fff;"/><path id="Shape-536" d="M216.801,150.039l89.137,0c1.234,0.017 2.239,1.037 2.239,2.27c0,1.234 -1.005,2.253 -2.239,2.271l-89.137,0c-1.234,-0.018 -2.239,-1.037 -2.239,-2.271c0,-1.233 1.005,-2.253 2.239,-2.27Z" style="fill:#bbc0d6;fill-rule:nonzero;"/><path id="Shape-537" d="M165.348,138.587l43.007,0c1.208,0 2.202,0.994 2.202,2.202l0,0.14c0,1.208 -0.994,2.202 -2.202,2.202l-43.007,0l0,0c-1.208,0 -2.202,-0.994 -2.202,-2.202c0,-0.001 0,-0.001 0,-0.002l0,-0.14c0.001,-1.207 0.995,-2.2 2.202,-2.2Z" style="fill:#f9b25f;fill-rule:nonzero;"/><path id="Shape-538" d="M110.231,140.858c0,-1.253 -1.018,-2.271 -2.271,-2.271l-6.629,0c-1.253,0 -2.271,1.018 -2.271,2.271c0,1.253 1.018,2.271 2.271,2.271l6.629,0c1.253,0 2.271,-1.018 2.271,-2.271Z" style="fill:#fff;"/><path id="Shape-539" d="M221.091,138.587l96.168,0c1.234,0.018 2.239,1.037 2.239,2.271c0,1.233 -1.005,2.253 -2.239,2.271l-96.168,0c-1.234,-0.018 -2.239,-1.038 -2.239,-2.271c0,-1.234 1.005,-2.253 2.239,-2.271Z" style="fill:#bbc0d6;fill-rule:nonzero;"/></g><g id="Bug"><path id="Path_3461" d="M326.322,107.119c-0.063,-0.047 -6.301,-4.708 -9.522,-3.842c-0.688,0.179 -1.247,0.685 -1.492,1.352l-0.707,-0.297c0.337,-0.887 1.084,-1.557 2.002,-1.795c3.585,-0.967 9.915,3.768 10.183,3.97l-0.464,0.612Z" style="fill:#37474f;fill-rule:nonzero;"/><path id="Path_3462" d="M335.176,136.714l-0.953,-1.202l1.207,-0.956c-0.919,-1.199 -2.719,-3.907 -2.475,-6.445c0.113,-1.257 0.766,-2.404 1.789,-3.143l0.932,1.219c-0.681,0.481 -1.117,1.237 -1.193,2.067c-0.256,2.649 2.578,5.879 2.606,5.911l0.538,0.606l-2.451,1.943Z" style="fill:#37474f;fill-rule:nonzero;"/><path id="Path_3463" d="M354.14,121.687l-0.466,-0.663c-0.025,-0.035 -2.522,-3.533 -5.159,-3.888c-0.825,-0.116 -1.66,0.136 -2.284,0.689l-0.974,-1.186c0.953,-0.827 2.219,-1.201 3.468,-1.025c2.527,0.343 4.752,2.715 5.709,3.883l1.206,-0.956l0.953,1.202l-2.453,1.944Z" style="fill:#37474f;fill-rule:nonzero;"/><path id="Path_3464" d="M326.666,134.126l-0.249,-1.514l1.87,-0.306c-0.261,-1.219 -0.38,-2.464 -0.356,-3.709c0.079,-3.395 1.338,-6.16 3.643,-7.999l0.957,1.2c-4.708,3.755 -2.586,10.83 -2.564,10.901l0.26,0.839l-3.561,0.588Z" style="fill:#37474f;fill-rule:nonzero;"/><path id="Path_3465" d="M354.417,114.377l-0.76,-0.449c-0.064,-0.037 -6.467,-3.72 -11.198,0.005l-0.949,-1.205c2.316,-1.823 5.297,-2.418 8.619,-1.719c1.218,0.261 2.403,0.662 3.529,1.195l0.727,-1.751l1.417,0.588l-1.385,3.336Z" style="fill:#37474f;fill-rule:nonzero;"/><path id="Path_3466" d="M325.124,117.485c-0.156,0 -0.311,-0.008 -0.466,-0.023c-2.517,-0.257 -4.731,-2.518 -5.866,-3.903l-1.208,0.957l-0.949,-1.203l1.289,-1.02c0.61,-0.482 1.506,-0.383 1.997,0.219c0.776,0.959 2.806,3.211 4.895,3.423c0.792,0.082 1.583,-0.172 2.18,-0.699l0.973,1.186c-0.791,0.681 -1.8,1.058 -2.845,1.063Z" style="fill:#37474f;fill-rule:nonzero;"/><path id="Path_3467" d="M338.481,108.09l-0.932,-1.218c0.682,-0.481 1.118,-1.239 1.193,-2.07c0.211,-2.205 -1.81,-5.012 -2.606,-5.908l-0.54,-0.606l2.452,-1.943l0.953,1.202l-1.206,0.957c0.918,1.198 2.718,3.906 2.475,6.444c-0.114,1.256 -0.767,2.404 -1.789,3.142Z" style="fill:#37474f;fill-rule:nonzero;"/><path id="Path_3468" d="M328.562,105.098c-0.135,-0.307 -3.297,-7.551 -1.538,-10.821c0.441,-0.839 1.265,-1.414 2.205,-1.538l0.127,0.756c-0.706,0.086 -1.327,0.515 -1.657,1.145c-1.585,2.94 1.532,10.076 1.563,10.148l-0.7,0.31Z" style="fill:#37474f;fill-rule:nonzero;"/><path id="Path_3469" d="M346.276,110.983c5.402,6.817 4.047,12.454 -0.364,15.949c-4.411,3.496 -10.208,3.525 -15.61,-3.291c-5.402,-6.817 -4.154,-16.803 -1.794,-18.673c3.449,-2.732 12.366,-0.802 17.768,6.015Z" style="fill:#ff6369;fill-rule:nonzero;"/><path id="Path_3470" d="M345.912,126.932c-4.411,3.496 -10.208,3.526 -15.61,-3.291c-5.402,-6.818 -4.154,-16.803 -1.794,-18.673c0.544,-0.431 17.949,21.533 17.404,21.964Z" style="fill:#fa535a;fill-rule:nonzero;"/><path id="Path_3471" d="M334.927,102.838c1.986,2.506 -7.816,10.273 -9.802,7.767c-1.987,-2.506 -1.402,-6.277 1.305,-8.421c2.707,-2.145 6.511,-1.853 8.497,0.654Z" style="fill:#37474f;fill-rule:nonzero;"/></g><g id="Bug-2"><path id="Path_3472" d="M260.253,46.975c-0.18,-0.536 -0.092,-1.128 0.236,-1.589c1.182,-1.678 5.267,-1.918 5.73,-1.94l0.036,0.767c-1.151,0.055 -4.32,0.452 -5.14,1.616c-0.193,0.266 -0.242,0.613 -0.128,0.922l-0.734,0.224Z" style="fill:#37474f;fill-rule:nonzero;"/><path id="Path_3473" d="M280.1,53.253l-0.751,-0.157l0.177,-0.842c-0.778,-0.174 -2.482,-0.672 -3.263,-1.814c-0.381,-0.554 -0.504,-1.246 -0.337,-1.897l0.746,0.171c-0.119,0.443 -0.037,0.917 0.224,1.294c0.818,1.201 3.116,1.561 3.14,1.565l0.401,0.06l-0.337,1.62Z" style="fill:#37474f;fill-rule:nonzero;"/><path id="Path_3474" d="M278.169,41.604l-0.753,-0.144c0.108,-0.664 0.5,-1.248 1.072,-1.601c1.172,-0.733 2.933,-0.503 3.715,-0.349l0.177,-0.842l0.751,0.158l-0.341,1.619l-0.391,-0.105c-0.023,-0.006 -2.277,-0.599 -3.506,0.17c-0.39,0.241 -0.655,0.641 -0.724,1.094Z" style="fill:#37474f;fill-rule:nonzero;"/><path id="Path_3475" d="M275.684,55.103l-0.58,-0.503l0.69,-0.795c-0.935,-0.722 -3.324,-2.907 -2.688,-5.982l0.752,0.155c-0.662,3.203 2.676,5.417 2.71,5.439l0.368,0.24l-1.252,1.446Z" style="fill:#37474f;fill-rule:nonzero;"/><path id="Path_3476" d="M275.262,41.29l-0.75,-0.16c0.656,-3.071 3.721,-4.11 4.868,-4.395l-0.311,-1.006l0.732,-0.227l0.566,1.827l-0.435,0.072c-0.039,0.006 -3.987,0.69 -4.67,3.889Z" style="fill:#37474f;fill-rule:nonzero;"/><path id="Path_3477" d="M265.144,50.112l-0.75,-0.158l0.182,-0.867c0.084,-0.394 0.474,-0.652 0.869,-0.575c0.655,0.131 2.284,0.366 3.235,-0.273c0.364,-0.244 0.609,-0.63 0.676,-1.063l0.753,0.144c-0.105,0.634 -0.467,1.197 -1,1.555c-1.147,0.771 -2.881,0.575 -3.813,0.389l-0.152,0.848Z" style="fill:#37474f;fill-rule:nonzero;"/><path id="Path_3478" d="M271.597,40.237l-0.746,-0.171c0.118,-0.442 0.037,-0.915 -0.223,-1.293c-0.815,-1.198 -3.118,-1.562 -3.141,-1.565l-0.401,-0.061l0.341,-1.62l0.75,0.157l-0.176,0.843c0.778,0.173 2.482,0.671 3.262,1.813c0.38,0.554 0.502,1.247 0.334,1.897Z" style="fill:#37474f;fill-rule:nonzero;"/><path id="Path_3479" d="M266.4,42.583c-0.414,-0.206 -4.057,-2.07 -4.465,-4.082c-0.115,-0.554 0.043,-1.131 0.423,-1.549l0.582,0.5c-0.229,0.238 -0.324,0.574 -0.254,0.897c0.283,1.398 3.024,3.034 4.056,3.547l-0.342,0.687Z" style="fill:#37474f;fill-rule:nonzero;"/><path id="Path_3480" d="M275.858,38.755c4.593,0.965 5.976,3.771 5.352,6.743c-0.624,2.971 -3.019,4.984 -7.612,4.019c-4.593,-0.965 -7.52,-5.538 -7.186,-7.128c0.488,-2.324 4.853,-4.599 9.446,-3.634Z" style="fill:#ff6369;fill-rule:nonzero;"/><path id="Path_3481" d="M281.21,45.499c-0.624,2.972 -3.019,4.985 -7.612,4.02c-4.593,-0.965 -7.52,-5.538 -7.186,-7.128c0.076,-0.368 14.874,2.74 14.798,3.108Z" style="fill:#fa535a;fill-rule:nonzero;"/><path id="Path_3482" d="M268.341,39.291c1.688,0.354 0.301,6.958 -1.387,6.603c-1.439,-0.421 -2.434,-1.749 -2.434,-3.247c0,-1.857 1.528,-3.385 3.384,-3.385c0.146,0 0.292,0.01 0.437,0.029Z" style="fill:#37474f;fill-rule:nonzero;"/></g><g id="Bug-3"><path id="Path_3483" d="M129.414,121.117c-0.004,-0.073 -0.406,-7.226 -2.919,-8.976c-0.526,-0.376 -1.205,-0.47 -1.813,-0.25l-0.227,-0.734c0.834,-0.291 1.76,-0.159 2.48,0.353c2.817,1.966 3.228,9.256 3.245,9.565l-0.766,0.042Z" style="fill:#37474f;fill-rule:nonzero;"/><path id="Path_3484" d="M116.352,145.1l-2.488,-0.511l0.154,-0.751l1.705,0.349c0.221,-1.125 1.005,-4.298 3.016,-5.682c0.881,-0.612 1.985,-0.813 3.025,-0.55l-0.168,0.748c-0.832,-0.218 -1.719,-0.059 -2.424,0.434c-2.142,1.475 -2.757,5.521 -2.762,5.561l-0.058,0.402Z" style="fill:#37474f;fill-rule:nonzero;"/><path id="Path_3485" d="M138.536,149.649l-2.489,-0.513l0.103,-0.392c0.011,-0.04 1.037,-4.009 -0.351,-6.199c-0.453,-0.73 -1.205,-1.225 -2.055,-1.352l0.14,-0.754c1.059,0.168 1.995,0.787 2.564,1.696c1.305,2.064 0.775,5.289 0.535,6.411l1.705,0.35l-0.152,0.753Z" style="fill:#37474f;fill-rule:nonzero;"/><path id="Path_3486" d="M113.035,139.046l-2.243,-1.926l0.5,-0.582l1.585,1.362c0.736,-0.994 1.596,-1.89 2.559,-2.666c2.366,-1.895 4.973,-2.621 7.539,-2.104l-0.152,0.752c-5.674,-1.146 -9.513,4.733 -9.551,4.792l-0.237,0.372Z" style="fill:#37474f;fill-rule:nonzero;"/><path id="Path_3487" d="M141.23,144.829l-0.073,-0.435c-0.012,-0.07 -1.238,-6.987 -6.893,-8.166l0.156,-0.751c2.564,0.534 4.674,2.23 6.102,4.902c0.58,1.092 1.018,2.255 1.303,3.458l1.995,-0.628l0.23,0.733l-2.82,0.887Z" style="fill:#37474f;fill-rule:nonzero;"/><path id="Path_3488" d="M123.914,127.472c-1.013,-0.161 -1.914,-0.736 -2.489,-1.585c-1.319,-1.94 -0.897,-5.056 -0.653,-6.306c0.023,-0.121 -0.057,-0.239 -0.177,-0.263l-1.485,-0.305l0.154,-0.751l1.485,0.304c0.529,0.11 0.877,0.631 0.777,1.161c-0.225,1.156 -0.623,4.027 0.535,5.729c0.459,0.68 1.183,1.137 1.995,1.259l-0.142,0.757Z" style="fill:#37474f;fill-rule:nonzero;"/><path id="Path_3489" d="M136.971,130.065c-0.315,-0.001 -0.629,-0.037 -0.936,-0.107l0.167,-0.748c0.831,0.217 1.717,0.058 2.421,-0.433c2.139,-1.471 2.758,-5.521 2.764,-5.562l0.059,-0.401l2.489,0.512l-0.154,0.752l-1.705,-0.35c-0.221,1.126 -1.005,4.298 -3.016,5.682c-0.612,0.429 -1.342,0.658 -2.089,0.655Z" style="fill:#37474f;fill-rule:nonzero;"/><path id="Path_3490" d="M132.86,121.823l-0.688,-0.336c0.136,-0.28 3.384,-6.817 6.748,-7.515c0.864,-0.187 1.766,0.056 2.418,0.653l-0.496,0.584c-0.473,-0.442 -1.134,-0.623 -1.766,-0.485c-2.999,0.619 -6.185,7.034 -6.216,7.099Z" style="fill:#37474f;fill-rule:nonzero;"/><path id="Path_3491" d="M138.543,137.491c-1.611,7.854 -6.393,10.239 -11.477,9.197c-5.084,-1.042 -8.539,-5.117 -6.928,-12.971c1.611,-7.853 9.399,-12.89 12.119,-12.333c3.974,0.814 7.896,8.253 6.286,16.107Z" style="fill:#ff6369;fill-rule:nonzero;"/><path id="Path_3492" d="M127.066,146.688c-5.081,-1.042 -8.539,-5.117 -6.928,-12.971c1.611,-7.853 9.399,-12.89 12.119,-12.333c0.628,0.128 -4.562,25.432 -5.191,25.304Z" style="fill:#fa535a;fill-rule:nonzero;"/><path id="Path_3493" d="M137.567,124.651c-0.592,2.89 -11.887,0.572 -11.293,-2.316c0.594,-2.887 3.6,-4.707 6.718,-4.07c3.118,0.638 5.167,3.499 4.575,6.386Z" style="fill:#37474f;fill-rule:nonzero;"/></g></g><g id="Tools"><g id="Tool"><path id="Shape-540" d="M87.131,264.237c29.949,-0.167 47.603,-23.726 43.557,-23.171c-6.28,0.861 -15.802,5.444 -27.282,3.94c-8.053,-1.055 -12.613,-7.662 -15.774,-11.05c-0.435,-0.468 -0.678,-1.084 -0.68,-1.722l-0.626,-112.255c-0.008,-1.4 -1.161,-2.547 -2.561,-2.547c-0.005,0 -0.01,0 -0.015,0l-13.127,0.073c-1.399,0.008 -2.547,1.161 -2.547,2.561c0,0.005 0,0.009 0,0.014l0.658,117.798c0,0.005 0,0.01 0,0.015c0,1.399 -1.147,2.553 -2.546,2.56l-4.263,0.024c-0.005,0 -0.01,0 -0.015,0c-1.399,0 -2.553,-1.147 -2.56,-2.546l-0.007,-1.172c-0.009,-1.404 -1.171,-2.553 -2.575,-2.547l-25.083,0.14c-1.4,0.008 -2.547,1.161 -2.547,2.561c0,0.005 0,0.01 0,0.015l0.139,25.083c0.008,1.399 1.162,2.547 2.561,2.547c0.005,0 0.01,0 0.015,0l25.083,-0.14c1.4,-0.008 2.547,-1.162 2.547,-2.561c0,-0.005 0,-0.01 0,-0.015c-0.007,-1.405 1.143,-2.567 2.548,-2.576l4.262,-0.023c1.405,-0.007 2.567,1.142 2.576,2.547c0.007,1.399 1.161,2.546 2.56,2.546c0.005,0 0.01,0 0.015,0l15.688,-0.088l-0.001,-0.011Z" style="fill:#d8d6dd;fill-rule:nonzero;"/><path id="Shape-541" d="M90.154,63.981l0.363,60.551c0.012,1.981 -1.608,3.621 -3.59,3.633l-19.204,0.115c-1.981,0.012 -3.622,-1.608 -3.633,-3.59l-0.364,-60.55c-0.012,-1.981 1.607,-3.62 3.588,-3.633l19.207,-0.116c1.981,-0.012 3.621,1.609 3.633,3.59Z" style="fill:#f9b25f;fill-rule:nonzero;"/></g><path id="Shape-542" d="M148.038,279.255l-16.77,0.058l0,-4.267l20.069,-10.722l17.148,12.672l155.017,-0.358l0.043,-0.38l25,-22.929l30.515,14.217l0.347,6.305l-24.783,1.27c-3.505,0.169 -6.297,3.099 -6.297,6.609c0,3.629 2.987,6.616 6.616,6.616c0.119,0 0.237,-0.003 0.355,-0.009l24.985,-1.276l0.577,6.859l-30.851,17.217l-27.222,-19.822l-153.365,0.353l-16.942,11.723l-21.454,-10.483l0.137,-4.65l16.907,-0.06c2.447,-0.008 4.456,-2.024 4.456,-4.471c0,-2.454 -2.019,-4.472 -4.472,-4.472c-0.005,0 -0.011,0 -0.016,0l0,0Z" style="fill:#d8d6dd;fill-rule:nonzero;"/><g id="Tool-3"><path id="Shape-543" d="M490.88,249.491l-20.61,0c-3.413,-0.004 -6.22,-2.811 -6.224,-6.224l0,-7.299c0.004,-3.412 2.811,-6.219 6.224,-6.224l20.61,0c3.413,0.004 6.22,2.811 6.224,6.224l0,7.299c-0.004,3.413 -2.811,6.22 -6.224,6.224Zm-20.61,-15.912c-1.31,0.002 -2.387,1.079 -2.389,2.389l0,7.299c0.002,1.31 1.079,2.387 2.389,2.389l20.61,0c1.31,-0.002 2.387,-1.079 2.389,-2.389l0,-7.299c-0.002,-1.31 -1.079,-2.387 -2.389,-2.389l-20.61,0Z" style="fill:#37474f;fill-rule:nonzero;"/><path id="Shape-544" d="M444.729,241.723l70.712,0c2.13,0 3.883,1.753 3.883,3.883l0,33.041c0,2.13 -1.753,3.883 -3.883,3.883l-70.712,0c-2.131,0 -3.884,-1.753 -3.884,-3.883l0,-33.041c0,-2.13 1.753,-3.883 3.884,-3.883Z" style="fill:#f9b25f;fill-rule:nonzero;"/><rect id="Shape-545" x="440.845" y="253.232" width="78.455" height="2.684" style="fill:#fff;fill-rule:nonzero;"/><g id="Shape-546"><path id="Rectangle_8124" d="M464.556,251.84c0,-2.051 -1.665,-3.716 -3.716,-3.716l-0.414,0c-2.05,0 -3.716,1.665 -3.716,3.716l0,5.818c0,2.051 1.666,3.716 3.716,3.716l0.414,0c2.051,0 3.716,-1.665 3.716,-3.716l0,-5.818Z" style="fill:#37474f;"/><path id="Path_3497" d="M463.131,261.949l-4.996,0c-1.096,-0.003 -1.997,-0.904 -2,-2.001l0,-10.399c0.003,-1.096 0.904,-1.997 2,-2l4.996,0c1.096,0.003 1.998,0.904 2,2l0,10.4c-0.002,1.096 -0.904,1.997 -2,2Zm-4.996,-13.251c-0.466,0.001 -0.849,0.384 -0.849,0.85l0,10.401c0,0.466 0.383,0.849 0.849,0.85l4.996,0c0.466,-0.001 0.849,-0.384 0.85,-0.85l0,-10.4c-0.001,-0.465 -0.384,-0.849 -0.85,-0.849l-4.996,-0.002Z" style="fill:#fff;fill-rule:nonzero;"/></g><g id="Shape-547"><path id="Rectangle_8125" d="M502.389,251.84c0,-2.051 -1.665,-3.716 -3.716,-3.716l-0.414,0c-2.051,0 -3.716,1.665 -3.716,3.716l0,5.818c0,2.051 1.665,3.716 3.716,3.716l0.414,0c2.051,0 3.716,-1.665 3.716,-3.716l0,-5.818Z" style="fill:#37474f;"/><path id="Path_3498" d="M500.964,261.949l-4.994,0c-1.097,-0.003 -1.998,-0.904 -2.001,-2.001l0,-10.399c0.003,-1.096 0.904,-1.997 2.001,-2l4.995,0c1.096,0.003 1.998,0.904 2,2l0,10.4c-0.002,1.097 -0.905,1.998 -2.001,2Zm-4.994,-13.25c-0.466,0 -0.85,0.384 -0.85,0.85l0,10.4c0,0.466 0.384,0.849 0.85,0.85l4.995,0c0.466,-0.001 0.849,-0.384 0.85,-0.85l0,-10.4c-0.001,-0.465 -0.384,-0.849 -0.85,-0.849l-4.995,-0.001Z" style="fill:#fff;fill-rule:nonzero;"/></g></g></g><g id="Person-3"><path id="Shape-548" d="M18.187,268.267l8.422,0c2.073,1.836 4.353,3.424 6.794,4.732c2.78,1.438 6.021,0.43 7.229,3.319c0.07,0.468 0.07,0.945 0,1.413l-22.922,0l0,-1.415l0.477,-8.049Z" style="fill:#37474f;fill-rule:nonzero;"/><path id="Shape-549" d="M18.187,268.267l8.422,0c2.073,1.836 4.353,3.424 6.794,4.732c2.78,1.438 7.29,0.373 7.229,3.319c-0.007,0.353 -22.923,0 -22.923,0l0.478,-8.051Z" style="fill:#814c74;fill-rule:nonzero;"/><path id="Shape-550" d="M46.011,268.267l8.421,0c2.073,1.836 4.353,3.424 6.794,4.732c2.78,1.438 6.021,0.43 7.229,3.319c0.07,0.468 0.07,0.945 0,1.413l-22.922,0l0,-1.415l0.478,-8.049Z" style="fill:#37474f;fill-rule:nonzero;"/><path id="Shape-551" d="M46.011,268.267l8.421,0c2.073,1.836 4.353,3.424 6.794,4.732c2.78,1.438 7.29,0.373 7.229,3.319c-0.008,0.353 -22.922,0 -22.922,0l0.478,-8.051Z" style="fill:#814c74;fill-rule:nonzero;"/><path id="Shape-552" d="M50.931,104.768c-0.163,7.411 -14.898,2.401 -14.898,2.401c0,0 2.461,16.436 -6.822,7.094c-3.714,-3.739 -5.73,-12.394 -1.795,-15.65c1.161,-0.961 3.944,-0.213 3.944,-0.213c0,0 1.597,-5.87 5.604,-3.071c7.819,5.464 14.089,3.808 13.967,9.439Z" style="fill:#37474f;fill-rule:nonzero;"/><path id="Shape-553" d="M84.855,152.628l1.194,-3.694l-21.879,-9.917c-2.012,-2.506 -6.487,-6.095 -6.487,-6.095l-6.04,6.631c0,0 5.103,3.865 7.437,5.658c2.724,2.091 25.775,7.417 25.775,7.417Z" style="fill:#ffdfae;fill-rule:nonzero;"/><path id="Shape-554" d="M41.179,135.023l-10.45,0l0.428,-13.692l10.493,0l-0.471,13.692Z" style="fill:#ffdfae;fill-rule:nonzero;"/><path id="Shape-555" d="M39.956,124.453c-0.269,-0.655 -8.083,-4.342 -9.019,-3.193c0,0 0.968,6.856 4.192,8.296c2.662,1.187 6.07,-2.646 6.575,-3.426c-0.165,-1.061 -1.479,-1.022 -1.748,-1.677Z" style="fill:#f4ca92;fill-rule:nonzero;"/><path id="Shape-556" d="M41.466,127.799c0,0 -1.01,5.756 -4.188,5.726c-4.245,-0.041 -6.335,-4.462 -6.335,-4.462l-8.838,1.119l-9.815,4.636c1.277,3.606 3.368,10.206 3.368,10.206l4.628,-2.319l-0.863,36.808l33.748,-0.767l-3.25,-39.823l2.636,2.123l8.484,-5.999l-11.821,-7.634c0,0 -7.44,0.386 -7.754,0.386Z" style="fill:#814c74;fill-rule:nonzero;"/><path id="Shape-557" d="M55.012,268.431l-9.31,0c0,0 -3.493,-48.187 -3.551,-48.328c-3.551,-8.688 -5.256,-24.513 -5.256,-24.513l-9.506,72.841c0,0 -9.305,0.222 -9.329,0c-1.605,-14.461 3.825,-46.388 3.825,-46.388l-3.158,-44.559l3.483,-47.921l4.388,-0.732l4.714,10.031l9.587,-0.384l3.006,-10.921l3.612,-0.179l7.278,50.106l1.639,41.215l-1.422,49.732Z" style="fill:#adadea;fill-rule:nonzero;"/><path id="Shape-558" d="M25.602,111.261c0.176,2.314 2.442,3.068 2.857,5.128c1.113,5.516 5.926,11.07 10.428,11.07c3.815,0 9.379,-7.236 9.379,-15.4c0.054,-1.188 -0.004,-2.378 -0.172,-3.555c-0.093,-0.771 -8.818,0.949 -15.519,-2.776c-2.141,-1.191 -1.509,6.5 -2.438,6.386c-0.093,-0.015 -4.869,-5.241 -4.535,-0.853Z" style="fill:#ffdfae;fill-rule:nonzero;"/><path id="Shape-559" d="M36.338,162.455c-2.719,0.027 -5.368,-0.874 -7.508,-2.553c-2.162,-1.657 -3.495,-4.179 -3.647,-6.898c-0.027,-0.582 0.821,-1.009 2.667,-1.345c1.988,-0.318 3.994,-0.512 6.007,-0.581c4.078,-0.186 13.879,-0.206 13.929,0.876c0.255,5.491 -4.607,10.195 -10.839,10.484c-0.204,0.011 -0.407,0.017 -0.609,0.017Zm2.171,-11.108c-4.843,0 -10.248,0.315 -12.294,1.134c-0.42,0.168 -0.656,0.353 -0.648,0.507c0.148,2.609 1.428,5.027 3.503,6.615c2.234,1.745 5.029,2.618 7.859,2.455c6.008,-0.28 10.699,-4.785 10.475,-10.052c-0.425,-0.39 -4.42,-0.659 -8.895,-0.659Z" style="fill:#56557e;fill-rule:nonzero;"/><g id="Glass"><path id="Path_4984" d="M111.806,134.61l1.543,5.223l-30.689,9.067l-1.543,-5.224l30.689,-9.066Z" style="fill:#ff6369;fill-rule:nonzero;"/><circle id="Ellipse_459" cx="139.665" cy="128.885" r="28.937" style="fill:#fff;fill-opacity:0.8;"/><path id="Path_3510" d="M139.679,159.742c-0.009,0 -0.019,0 -0.028,0c-16.937,0 -30.874,-13.937 -30.874,-30.874c0,-16.937 13.937,-30.874 30.874,-30.874c16.937,0 30.874,13.937 30.874,30.874c0,13.64 -9.039,25.739 -22.119,29.607c-2.833,0.837 -5.772,1.264 -8.727,1.267Zm0.022,-57.889c-2.604,0.002 -5.194,0.379 -7.691,1.119c-11.35,3.383 -19.184,13.893 -19.184,25.736c0,14.732 12.122,26.855 26.855,26.855c14.732,0 26.854,-12.123 26.854,-26.855c0,-14.724 -12.109,-26.843 -26.834,-26.855Z" style="fill:#ff6369;fill-rule:nonzero;"/><path id="Path_4983" d="M94.55,142.831c0.705,2.388 -0.681,4.933 -3.069,5.637l-85.661,25.279c-2.388,0.704 -4.932,-0.681 -5.636,-3.069c-0.705,-2.387 0.68,-4.932 3.067,-5.637l85.661,-25.279c2.388,-0.704 4.933,0.681 5.638,3.069Z" style="fill:#ff6369;fill-rule:nonzero;"/><path id="Path_3511" d="M132.926,109.87c5.476,-3.523 13.401,-2.365 18.404,1.392c3.859,3.03 6.586,7.275 7.738,12.044c0.68,2.881 5.118,1.662 4.437,-1.224c-1.504,-6.082 -5.137,-11.429 -10.238,-15.068c-6.304,-4.365 -15.992,-5.407 -22.662,-1.119c-2.483,1.597 -0.178,5.582 2.322,3.974l-0.001,0.001Z" style="fill:#ff6369;fill-opacity:0.3;fill-rule:nonzero;"/><circle id="Ellipse_460" cx="125.661" cy="112.096" r="2.324" style="fill:#ff6369;fill-opacity:0.3;"/></g><path id="Shape-560" d="M90.238,147.494c-1.061,-1.509 -2.047,-2.324 -5.016,-0.011c-1.852,1.442 -2.999,3.391 -1.938,4.9c1.06,1.509 3.356,1.249 5.276,-0.102c1.92,-1.35 2.738,-3.28 1.678,-4.787Z" style="fill:#ffdfae;fill-rule:nonzero;"/><path id="Shape-561" d="M14.724,166.543c-2.342,0.637 -3.367,2.133 -2.953,3.654c0.415,1.521 0.944,2.482 4.4,1.518c3.472,-0.968 3.444,-2.001 3.03,-3.521c-0.414,-1.521 -2.134,-2.29 -4.477,-1.651Z" style="fill:#ffdfae;fill-rule:nonzero;"/><path id="Shape-562" d="M15.524,144.763l-4.108,2.331l5.24,19.353l-3.931,1.212c0,0 -12.986,-20.717 -8.965,-24.701c2.145,-2.125 8.707,-7.711 8.707,-7.711c0,0 2.007,6.111 3.057,9.516Z" style="fill:#ffdfae;fill-rule:nonzero;"/></g><g id="Person-4"><path id="Shape-563" d="M431.147,82.181c-1.793,6.479 -14.774,-8.657 -25.045,1.73c-8.871,8.971 -18.76,0.596 -24.12,7.721c-1.122,1.492 -21.033,-40.969 -18.232,-43.77c4.521,-4.521 12.972,4.522 20.966,3.666c7.148,-0.764 25.368,-2.507 29.564,7.436c5.699,13.509 19.633,13.224 16.867,23.217Z" style="fill:#f5f5f5;fill-opacity:0.7;fill-rule:nonzero;"/><path id="Shape-564" d="M389.29,120.67c-3.246,-4.677 1.025,-4.996 2.399,-4.642c1.614,0.416 3.697,2.457 3.85,4.386c0,0 15.243,9.149 16.33,9.571c4.848,1.881 5.97,2.829 5.97,2.829l-1.366,8.048c-0.478,0.262 -4.152,-1.576 -9.688,-5.884c-5.344,-4.158 -15.724,-11.756 -17.495,-14.308Z" style="fill:#ffdfae;fill-rule:nonzero;"/><path id="Shape-565" d="M414.58,140.403c0.265,0.688 4.185,1.409 6.924,1.958c4.145,0.835 8.101,-1.818 7.77,-4.608c-0.244,-2.051 -11.59,-6.16 -12.745,-6.013c-0.317,0.042 -2.17,8.091 -1.949,8.663Z" style="fill:#6e8dbc;fill-rule:nonzero;"/><path id="Shape-566" d="M422.46,273.976l-6.104,-0.576l0.89,-9.431l6.104,0.576l-0.89,9.431Z" style="fill:#ffdfae;fill-rule:nonzero;"/><path id="Shape-567" d="M435.025,175.932c-3.074,-2.418 -15.591,1.281 -15.591,1.281l-4.504,42.904l1.541,46.647l6.857,0.672l4.509,-50.029c0,0 17.603,-33.284 7.188,-41.475Z" style="fill:#6e8dbc;fill-rule:nonzero;"/><path id="Shape-568" d="M424.874,278.213l-21.678,-0.021c-0.097,-0.822 0.064,-1.654 0.461,-2.381l20.691,-0.297l0.526,2.699Z" style="fill:#37474f;fill-rule:nonzero;"/><path id="Shape-569" d="M477.295,196.286l2.413,5.658l-8.71,3.716l-2.413,-5.658l8.71,-3.716Z" style="fill:#ffdfae;fill-rule:nonzero;"/><path id="Shape-570" d="M439.933,132.37l-16.076,-1.185l-5.78,9.661c-0.978,1.636 -2.817,5.281 -2.657,7.181l4.074,30.271l18.408,37.41l3.098,5.057c1.017,1.657 3.204,2.203 4.88,1.217l29.619,-17.44l-2.034,-7.027l-25.684,9.462c0,0 -4.36,-21.628 -7.355,-26.621c-3.591,-5.989 -0.493,-47.986 -0.493,-47.986Z" style="fill:#92aed9;fill-rule:nonzero;"/><path id="Shape-571" d="M481.08,192.744l8.352,20.005c-0.722,0.408 -1.553,0.581 -2.378,0.495l-8.263,-18.972l2.289,-1.528Z" style="fill:#37474f;fill-rule:nonzero;"/><path id="Shape-572" d="M487.057,213.244c-2.52,-0.405 -3.759,-4.543 -7.381,-6.11c-2.858,-1.237 -3.254,-3.575 -3.254,-3.575c0,0 2.359,-2.152 0.96,-4.62c-0.674,-1.19 -1.538,-0.527 -2.242,-1.072c-0.285,-0.232 -0.399,-0.617 -0.286,-0.966l5.252,-3.508l8.555,19.699c-0.51,0.202 -1.066,0.255 -1.604,0.152Z" style="fill:#8f97b9;fill-rule:nonzero;"/><path id="Shape-573" d="M403.657,275.811c1.346,-2.168 5.64,-1.714 8.484,-4.449c2.245,-2.159 4.554,-1.622 4.554,-1.622c0,0 1.072,3.008 3.891,2.671c1.358,-0.163 1.08,-1.212 1.853,-1.655c0.323,-0.174 0.723,-0.13 1.001,0.109l1.208,6.199l-21.474,0.286c0.011,-0.548 0.179,-1.083 0.483,-1.539Z" style="fill:#8f97b9;fill-rule:nonzero;"/><path id="Shape-574" d="M427.298,135.723l7.596,-2.635l-3.804,-10.966l-3.798,1.318l0.006,12.283Z" style="fill:#f4ca92;fill-rule:nonzero;"/><path id="Shape-575" d="M433.718,129.699l-2.628,-7.577l-3.798,1.317l0.003,5.005l6.423,1.255Z" style="fill:#f4ca92;fill-rule:nonzero;"/><path id="Shape-576" d="M425.16,117.771c-1.58,7.284 2.427,10.164 9.556,7.788c4.215,-1.404 5.726,-5.36 3.694,-11.457c-2.032,-6.096 -6.444,-7.271 -10.658,-5.868c-4.215,1.404 -1.466,4.348 -2.592,9.537Z" style="fill:#ffdfae;fill-rule:nonzero;"/><g id="Tool-4"><g id="Group_5596"><clipPath id="_clip1"><path d="M428.335,82.181c-1.794,6.479 -14.777,-8.657 -25.047,1.73c-8.871,8.971 -18.759,0.596 -24.12,7.721c-1.121,1.492 -21.033,-40.969 -18.232,-43.77c4.522,-4.521 12.972,4.522 20.966,3.666c7.148,-0.764 25.369,-2.507 29.564,7.436c5.7,13.509 19.634,13.224 16.869,23.217Z"/></clipPath><g clip-path="url(#_clip1)"><path id="Rectangle_8130" d="M416.131,51.593l-39.053,39.053l0.813,0.813l39.054,-39.053l-0.814,-0.813Z" style="fill:#b0c9f1;"/><path id="Rectangle_8131" d="M420.93,56.391l-39.053,39.054l0.813,0.813l39.053,-39.053l-0.813,-0.814Z" style="fill:#b0c9f1;"/><path id="Rectangle_8132" d="M426.225,61.687l-39.053,39.053l0.813,0.813l39.054,-39.053l-0.814,-0.813Z" style="fill:#b0c9f1;"/><path id="Rectangle_8133" d="M431.438,66.9l-39.053,39.053l0.813,0.813l39.053,-39.053l-0.813,-0.813Z" style="fill:#b0c9f1;"/><path id="Rectangle_8134" d="M436.568,72.029l-39.054,39.054l0.814,0.813l39.053,-39.053l-0.813,-0.814Z" style="fill:#b0c9f1;"/><path id="Rectangle_8135" d="M410.836,46.297l-39.053,39.054l0.813,0.813l39.053,-39.053l-0.813,-0.814Z" style="fill:#b0c9f1;"/><path id="Rectangle_8136" d="M405.871,41.333l-39.053,39.053l0.813,0.814l39.054,-39.053l-0.814,-0.814Z" style="fill:#b0c9f1;"/><path id="Rectangle_8137" d="M400.99,36.451l-39.054,39.054l0.814,0.813l39.053,-39.053l-0.813,-0.814Z" style="fill:#b0c9f1;"/><path id="Rectangle_8138" d="M396.025,31.487l-39.053,39.053l0.814,0.814l39.053,-39.054l-0.814,-0.813Z" style="fill:#b0c9f1;"/><path id="Rectangle_8139" d="M390.978,26.44l-39.053,39.053l0.813,0.813l39.054,-39.053l-0.814,-0.813Z" style="fill:#b0c9f1;"/><path id="Rectangle_8140" d="M366.025,47.046l-0.813,0.814l52.969,52.968l0.813,-0.813l-52.969,-52.969Z" style="fill:#b0c9f1;"/><path id="Rectangle_8141" d="M361.227,51.845l-0.814,0.813l52.969,52.969l0.813,-0.813l-52.968,-52.969Z" style="fill:#b0c9f1;"/><path id="Rectangle_8142" d="M355.931,57.14l-0.813,0.814l52.968,52.968l0.814,-0.813l-52.969,-52.969Z" style="fill:#b0c9f1;"/><path id="Rectangle_8143" d="M371.321,41.75l-0.813,0.814l52.968,52.968l0.814,-0.813l-52.969,-52.969Z" style="fill:#b0c9f1;"/><path id="Rectangle_8144" d="M376.285,36.786l-0.813,0.814l52.968,52.968l0.814,-0.813l-52.969,-52.969Z" style="fill:#b0c9f1;"/><path id="Rectangle_8145" d="M381.167,31.905l-0.814,0.813l52.969,52.969l0.813,-0.814l-52.968,-52.968Z" style="fill:#b0c9f1;"/><path id="Rectangle_8146" d="M386.132,26.94l-0.814,0.814l52.969,52.968l0.813,-0.813l-52.968,-52.969Z" style="fill:#b0c9f1;"/><path id="Rectangle_8147" d="M391.178,21.893l-0.813,0.814l52.968,52.968l0.814,-0.813l-52.969,-52.969Z" style="fill:#b0c9f1;"/></g></g><path id="Shape-578" d="M360.667,48.082l3.127,-1.3l49.525,119.042l-3.127,1.301l-49.525,-119.043Z" style="fill:#ff6369;fill-rule:nonzero;"/></g><path id="Shape-579" d="M388.708,116.071c-0.85,0.685 -0.844,2.158 0.057,3.345c0.901,1.186 2.336,1.612 3.206,0.952c0.87,-0.661 0.845,-2.158 -0.056,-3.345c-0.901,-1.186 -1.929,-1.981 -3.207,-0.952Z" style="fill:#ffdfae;fill-rule:nonzero;"/><path id="Shape-580" d="M400.581,146.758c-1.202,-2.004 -0.53,-3.414 0.601,-4.272c1.254,-0.951 4.574,2.65 5.144,3.157l15.322,1.351l7.781,-1.985l1.566,6.754c-0.526,0.933 -7.627,2.474 -8.908,2.252l-15.698,-4.517c-1.323,0.406 -4.209,-0.077 -5.808,-2.74Z" style="fill:#ffdfae;fill-rule:nonzero;"/><path id="Shape-581" d="M428.02,153.687c2.154,0.142 4.095,-1.066 6.456,-1.94c3.574,-1.323 5.248,-5.43 3.59,-7.571c-1.22,-1.576 -4.919,-1.728 -7.548,-0.755c-2.116,0.784 -4.738,0.683 -5.755,2.429c-0.149,0.254 2.026,7.756 3.257,7.837Z" style="fill:#6e8dbc;fill-rule:nonzero;"/><path id="Shape-582" d="M450.936,119.995c0.756,-0.449 -10.883,-12.096 -21.154,-15.851c-4.235,-1.548 -9.269,3.8 -0.47,10.022c8.756,6.188 17.279,8.413 21.624,5.829Z" style="fill:#d8984d;fill-rule:nonzero;"/><path id="Shape-583" d="M428.549,119.942c0.873,0.718 -0.25,-2.83 1.212,-2.514c1.769,0.383 -2.391,6.329 -0.233,9.766c2.294,3.654 -2.338,20.276 10.466,16.602c2.881,-0.827 2.543,2.27 6.266,2.141c6.07,-0.21 3.934,2.994 6.078,6.259c7.44,11.331 22.119,-6.693 16.601,-8.344c-5.813,-1.74 -4.488,-16.221 -13.425,-14.786c-2.158,0.347 -5.987,-2.086 -6.168,-5.623c-0.099,-1.912 -3.844,-0.029 -6.985,-2.54c-1.926,-1.539 -2.191,-2.017 -2.722,-4.173c-1.347,-5.49 -5.029,-7.337 -7.993,-6.892c-1.519,0.228 -3.416,-1.072 -4.722,-0.999c-3.17,0.173 -4.011,7.501 1.438,7.752c0.354,0.015 -0.102,3.114 0.187,3.351Z" style="fill:#694a52;fill-rule:nonzero;"/><path id="Shape-584" d="M450.988,120.021c-0.569,0.662 -9.161,-3.255 -22.002,-4.975c-13.353,-1.789 -15.061,-8.026 -12.716,-12.056c0.427,-0.735 14.642,-2.336 25.699,3.276c11.057,5.612 12.096,10.167 9.019,13.755Z" style="fill:#f9b25f;fill-rule:nonzero;"/><path id="Shape-585" d="M443.152,112.583c-0.33,0.776 -2.027,0.741 -9.421,-1.889c-7.434,-2.643 -7.818,-3.835 -7.533,-4.505c2.145,-5.046 7.704,-7.781 12.413,-6.106c4.71,1.674 6.687,7.453 4.541,12.5Z" style="fill:#37474f;fill-rule:nonzero;"/><path id="Shape-586" d="M443.556,111.889c-0.33,0.776 -2.027,0.741 -9.422,-1.889c-7.433,-2.643 -7.817,-3.835 -7.532,-4.504c2.144,-5.047 7.703,-7.781 12.413,-6.107c4.71,1.675 6.687,7.453 4.541,12.5Z" style="fill:#f9b25f;fill-rule:nonzero;"/></g></g></svg>