<?xml version="1.0" encoding="UTF-8" standalone="no"?><!DOCTYPE svg PUBLIC "-//W3C//DTD SVG 1.1//EN" "http://www.w3.org/Graphics/SVG/1.1/DTD/svg11.dtd"><svg width="100%" height="100%" viewBox="0 0 51 51" version="1.1" xmlns="http://www.w3.org/2000/svg" xmlns:xlink="http://www.w3.org/1999/xlink" xml:space="preserve" xmlns:serif="http://www.serif.com/" style="fill-rule:evenodd;clip-rule:evenodd;stroke-linejoin:round;stroke-miterlimit:2;"><g><path d="M41.125,12.756c-1.488,-7.379 -7.946,-12.756 -15.625,-12.756c-6.378,0 -12.103,3.796 -14.611,9.566c-6.028,0.143 -10.889,5.087 -10.889,11.153c0,6.148 5.004,11.156 11.156,11.156l30.282,0c5.272,0 9.562,-4.29 9.562,-9.563c0,-5.374 -4.294,-9.731 -9.875,-9.556Z" style="fill:#edf0f2;fill-rule:nonzero;"/><path d="M17.531,41.438l-3.187,0c-0.883,0 -1.594,-0.715 -1.594,-1.594c0,-0.884 0.711,-1.594 1.594,-1.594l3.187,0c0.877,0 1.594,-0.717 1.594,-1.594l0,-13.996c0,-0.877 0.711,-1.594 1.594,-1.594c0.88,0 1.594,0.717 1.594,1.594l0,13.996c0,2.636 -2.146,4.782 -4.782,4.782Z" style="fill:#3898ec;fill-rule:nonzero;"/><path d="M33.469,47.813l-3.188,0c-2.639,0 -4.781,-2.146 -4.781,-4.782l0,-20.371c0,-0.877 0.711,-1.594 1.594,-1.594c0.88,0 1.594,0.717 1.594,1.594l0,20.371c0,0.877 0.713,1.594 1.593,1.594l3.188,0c0.88,0 1.594,0.71 1.594,1.594c0,0.879 -0.714,1.594 -1.594,1.594Z" style="fill:#3898ec;fill-rule:nonzero;"/><path d="M30.281,19.125c0,3.519 -2.856,6.375 -6.375,6.375c-3.522,0 -6.375,-2.856 -6.375,-6.375c0,-3.522 2.853,-6.375 6.375,-6.375c3.519,0 6.375,2.853 6.375,6.375Z" style="fill:#607d8c;fill-rule:nonzero;"/><path d="M11.156,35.063c-2.639,0 -4.781,2.142 -4.781,4.781c0,2.636 2.142,4.781 4.781,4.781c2.636,0 4.782,-2.145 4.782,-4.781c0,-2.639 -2.146,-4.781 -4.782,-4.781Z" style="fill:#607d8c;fill-rule:nonzero;"/><path d="M36.656,41.438c-2.639,0 -4.781,2.142 -4.781,4.781c0,2.636 2.142,4.781 4.781,4.781c2.636,0 4.782,-2.145 4.782,-4.781c0,-2.639 -2.146,-4.781 -4.782,-4.781Z" style="fill:#607d8c;fill-rule:nonzero;"/></g></svg>