<?xml version="1.0" encoding="UTF-8" standalone="no"?><!DOCTYPE svg PUBLIC "-//W3C//DTD SVG 1.1//EN" "http://www.w3.org/Graphics/SVG/1.1/DTD/svg11.dtd"><svg width="100%" height="100%" viewBox="0 0 296 46" version="1.1" xmlns="http://www.w3.org/2000/svg" xmlns:xlink="http://www.w3.org/1999/xlink" xml:space="preserve" xmlns:serif="http://www.serif.com/" style="fill-rule:evenodd;clip-rule:evenodd;stroke-linejoin:round;stroke-miterlimit:2;"><g><g><path d="M37.639,27.773l-3.889,-7.78l0,-2.368c0,-8.893 -7.235,-16.125 -16.125,-16.125c-8.893,0 -16.125,7.232 -16.125,16.125c0,3.744 1.306,7.391 3.684,10.258c0.772,0.936 1.691,2.438 1.691,4.305l0,8.281c0,0.655 0.473,1.217 1.123,1.324l16.125,2.688l0.221,0.019c0.314,0 0.623,-0.11 0.868,-0.32c0.301,-0.255 0.476,-0.629 0.476,-1.024l0,-5.135l4.939,0.817c0.788,0.123 1.575,-0.092 2.174,-0.603c0.605,-0.51 0.949,-1.255 0.949,-2.045l0,-6.471l2.688,0c0.462,0 0.897,-0.242 1.142,-0.64c0.244,-0.395 0.266,-0.89 0.059,-1.306Z" style="fill:#96a5b5;fill-rule:nonzero;stroke:#546578;stroke-width:3px;"/><g><path d="M13.594,12.25c-0.745,0 -1.344,-0.599 -1.344,-1.344l0,-2.687c0,-0.742 0.599,-1.344 1.344,-1.344c0.742,0 1.344,0.602 1.344,1.344l0,2.687c0,0.745 -0.602,1.344 -1.344,1.344Z" style="fill:#546578;fill-rule:nonzero;"/><path d="M18.969,12.25c-0.745,0 -1.344,-0.599 -1.344,-1.344l0,-2.687c0,-0.742 0.599,-1.344 1.344,-1.344c0.742,0 1.344,0.602 1.344,1.344l0,2.687c0,0.745 -0.602,1.344 -1.344,1.344Z" style="fill:#546578;fill-rule:nonzero;"/><path d="M13.594,25.688c-0.745,0 -1.344,-0.6 -1.344,-1.344l0,-2.688c0,-0.741 0.599,-1.343 1.344,-1.343c0.742,0 1.344,0.602 1.344,1.343l0,2.688c0,0.744 -0.602,1.344 -1.344,1.344Z" style="fill:#546578;fill-rule:nonzero;"/><path d="M18.969,25.688c-0.745,0 -1.344,-0.6 -1.344,-1.344l0,-2.688c0,-0.741 0.599,-1.343 1.344,-1.343c0.742,0 1.344,0.602 1.344,1.343l0,2.688c0,0.744 -0.602,1.344 -1.344,1.344Z" style="fill:#546578;fill-rule:nonzero;"/><path d="M10.906,20.313l-2.687,0c-0.745,0 -1.344,-0.6 -1.344,-1.344c0,-0.742 0.599,-1.344 1.344,-1.344l2.687,0c0.742,0 1.344,0.602 1.344,1.344c0,0.744 -0.602,1.344 -1.344,1.344Z" style="fill:#546578;fill-rule:nonzero;"/><path d="M10.906,14.938l-2.687,-0.001c-0.745,0 -1.344,-0.599 -1.344,-1.343c0,-0.742 0.599,-1.344 1.344,-1.344l2.687,0c0.742,0 1.344,0.602 1.344,1.344c0,0.744 -0.602,1.343 -1.344,1.343Z" style="fill:#546578;fill-rule:nonzero;"/><path d="M24.344,20.313l-2.688,0c-0.744,0 -1.343,-0.6 -1.343,-1.344c0,-0.742 0.599,-1.344 1.343,-1.344l2.688,0c0.742,0 1.344,0.602 1.344,1.344c0,0.744 -0.602,1.344 -1.344,1.344Z" style="fill:#546578;fill-rule:nonzero;"/><path d="M24.344,14.938l-2.688,-0.001c-0.744,0 -1.343,-0.599 -1.343,-1.343c0,-0.742 0.599,-1.344 1.343,-1.344l2.688,0c0.742,0 1.344,0.602 1.344,1.344c0,0.744 -0.602,1.343 -1.344,1.343Z" style="fill:#546578;fill-rule:nonzero;"/><path d="M21.656,9.563l-10.75,-0.001c-0.744,0 -1.343,0.6 -1.343,1.344l0,10.75c0,0.742 0.599,1.344 1.343,1.344l10.75,0c0.742,0 1.344,-0.602 1.344,-1.344l0,-10.75c0,-0.744 -0.602,-1.343 -1.344,-1.343Z" style="fill:#3898ec;fill-rule:nonzero;"/><path d="M21.691,9.563l0.034,0.001l0.035,0.002l0.034,0.003l0.033,0.004l0.034,0.005l0.033,0.005l0.033,0.007l0.033,0.007l0.032,0.008l0.032,0.008l0.032,0.01l0.031,0.01l0.031,0.011l0.031,0.011l0.03,0.013l0.03,0.013l0.03,0.014l0.029,0.014l0.029,0.015l0.028,0.016l0.028,0.016l0.027,0.018l0.027,0.017l0.027,0.019l0.026,0.019l0.026,0.019l0.025,0.021l0.024,0.02l0.025,0.022l0.023,0.022l0.023,0.022l0.023,0.023l0.022,0.024l0.021,0.024l0.021,0.024l0.02,0.026l0.02,0.025l0.019,0.026l0.018,0.027l0.018,0.027l0.017,0.027l0.017,0.028l0.016,0.029l0.015,0.028l0.014,0.03l0.014,0.029l0.013,0.03l0.013,0.03l0.011,0.031l0.011,0.031l0.011,0.032l0.009,0.031l0.009,0.033l0.008,0.032l0.007,0.033l0.006,0.033l0.006,0.033l0.004,0.034l0.004,0.033l0.003,0.035l0.002,0.034l0.002,0.034l0,0.035l0,10.75l0,0.035l-0.002,0.034l-0.002,0.035l-0.003,0.034l-0.004,0.033l-0.004,0.034l-0.006,0.033l-0.006,0.033l-0.007,0.032l-0.008,0.033l-0.009,0.032l-0.009,0.032l-0.011,0.031l-0.011,0.031l-0.011,0.031l-0.013,0.03l-0.013,0.03l-0.014,0.03l-0.014,0.029l-0.015,0.028l-0.016,0.029l-0.017,0.028l-0.017,0.027l-0.018,0.027l-0.018,0.027l-0.019,0.026l-0.02,0.026l-0.02,0.025l-0.021,0.024l-0.021,0.024l-0.022,0.024l-0.023,0.023l-0.023,0.023l-0.023,0.022l-0.025,0.021l-0.024,0.021l-0.025,0.02l-0.026,0.02l-0.026,0.019l-0.027,0.018l-0.027,0.018l-0.027,0.017l-0.028,0.017l-0.028,0.016l-0.029,0.015l-0.029,0.014l-0.03,0.014l-0.03,0.013l-0.03,0.013l-0.031,0.011l-0.031,0.011l-0.031,0.011l-0.032,0.009l-0.032,0.009l-0.032,0.008l-0.033,0.007l-0.033,0.006l-0.033,0.006l-0.034,0.004l-0.033,0.004l-0.034,0.003l-0.035,0.002l-0.034,0.002l-0.035,0l-10.75,0l-0.035,0l-0.034,-0.002l-0.034,-0.002l-0.035,-0.003l-0.033,-0.004l-0.034,-0.004l-0.033,-0.006l-0.033,-0.006l-0.033,-0.007l-0.032,-0.008l-0.032,-0.009l-0.032,-0.009l-0.032,-0.011l-0.031,-0.011l-0.03,-0.011l-0.031,-0.013l-0.03,-0.013l-0.029,-0.014l-0.029,-0.014l-0.029,-0.015l-0.029,-0.016l-0.028,-0.017l-0.027,-0.017l-0.027,-0.018l-0.027,-0.018l-0.026,-0.019l-0.025,-0.02l-0.025,-0.02l-0.025,-0.021l-0.024,-0.021l-0.024,-0.022l-0.023,-0.023l-0.022,-0.023l-0.022,-0.024l-0.022,-0.024l-0.02,-0.024l-0.021,-0.025l-0.019,-0.026l-0.019,-0.026l-0.019,-0.027l-0.017,-0.027l-0.017,-0.027l-0.017,-0.028l-0.016,-0.029l-0.015,-0.028l-0.014,-0.029l-0.014,-0.03l-0.013,-0.03l-0.013,-0.03l-0.011,-0.031l-0.011,-0.031l-0.01,-0.031l-0.01,-0.032l-0.008,-0.032l-0.008,-0.033l-0.007,-0.032l-0.007,-0.033l-0.005,-0.033l-0.005,-0.034l-0.004,-0.033l-0.003,-0.034l-0.002,-0.035l-0.001,-0.034l0,-0.035l0,-10.75l0,-0.035l0.001,-0.034l0.002,-0.034l0.003,-0.035l0.004,-0.033l0.005,-0.034l0.005,-0.033l0.007,-0.033l0.007,-0.033l0.008,-0.032l0.008,-0.033l0.01,-0.031l0.01,-0.032l0.011,-0.031l0.011,-0.031l0.013,-0.03l0.013,-0.03l0.014,-0.029l0.014,-0.03l0.015,-0.028l0.016,-0.029l0.017,-0.028l0.017,-0.027l0.017,-0.027l0.019,-0.027l0.019,-0.026l0.019,-0.025l0.021,-0.026l0.02,-0.024l0.022,-0.024l0.022,-0.024l0.022,-0.023l0.023,-0.022l0.024,-0.022l0.024,-0.022l0.025,-0.02l0.025,-0.021l0.025,-0.019l0.026,-0.019l0.027,-0.019l0.027,-0.017l0.027,-0.018l0.028,-0.016l0.029,-0.016l0.029,-0.015l0.029,-0.014l0.029,-0.014l0.03,-0.013l0.031,-0.013l0.03,-0.011l0.031,-0.011l0.032,-0.01l0.032,-0.01l0.032,-0.008l0.032,-0.008l0.033,-0.007l0.033,-0.007l0.033,-0.005l0.034,-0.005l0.033,-0.004l0.035,-0.003l0.034,-0.002l0.034,-0.001l0.035,0l10.75,0l0.035,0Zm-9.128,3l0,7.437l7.437,0l0,-7.437l-7.437,0Z" style="fill:#546578;"/></g></g><path d="M61.21,36.454c2.286,0 4.245,-0.501 5.877,-1.504c1.632,-1.003 2.868,-2.408 3.708,-4.215c0.839,-1.807 1.259,-3.912 1.259,-6.314c0,-3.545 -0.909,-6.39 -2.728,-8.535c-1.819,-2.146 -4.501,-3.218 -8.046,-3.218l-8.78,0l0,23.786l8.71,0Zm0.21,-20.428c2.216,0 3.871,0.74 4.967,2.221c1.096,1.481 1.644,3.551 1.644,6.209c0,2.892 -0.612,5.066 -1.836,6.524c-1.224,1.457 -2.898,2.186 -5.02,2.186l-4.757,0l0,-17.14l5.002,0Z" style="fill:#546578;fill-rule:nonzero;"/><path d="M77.301,16.76c0.653,0 1.207,-0.227 1.662,-0.682c0.455,-0.455 0.682,-1.008 0.682,-1.661c0,-0.63 -0.227,-1.172 -0.682,-1.627c-0.455,-0.455 -1.009,-0.682 -1.662,-0.682c-0.629,0 -1.166,0.227 -1.609,0.682c-0.443,0.455 -0.664,0.997 -0.664,1.627c0,0.653 0.215,1.206 0.647,1.661c0.431,0.455 0.973,0.682 1.626,0.682Zm2.029,19.694l0,-16.965l-3.953,0l0,16.965l3.953,0Z" style="fill:#546578;fill-rule:nonzero;"/><path d="M98.465,19.489l0,18.12c0,2.122 -0.764,3.801 -2.292,5.037c-1.527,1.236 -3.62,1.854 -6.279,1.854c-0.839,0 -1.929,-0.163 -3.27,-0.49c-1.341,-0.326 -2.397,-0.758 -3.166,-1.294l1.189,-2.833c1.05,0.489 1.953,0.851 2.711,1.084c0.758,0.233 1.569,0.35 2.431,0.35c1.4,0 2.537,-0.333 3.411,-0.997c0.875,-0.665 1.312,-1.58 1.312,-2.746l0,-1.819c-0.607,0.373 -1.236,0.659 -1.889,0.857c-0.653,0.198 -1.271,0.297 -1.854,0.297c-1.726,0 -3.224,-0.373 -4.495,-1.119c-1.271,-0.746 -2.251,-1.796 -2.939,-3.148c-0.687,-1.353 -1.031,-2.927 -1.031,-4.723c0,-1.772 0.344,-3.329 1.031,-4.67c0.688,-1.341 1.68,-2.378 2.974,-3.113c1.294,-0.735 2.804,-1.102 4.53,-1.102c0.699,0 1.481,0.163 2.344,0.49c0.862,0.326 1.632,0.769 2.308,1.329l0.84,-1.364l2.134,0Zm-7.626,14.027c0.699,0 1.341,-0.111 1.924,-0.332c0.583,-0.222 1.166,-0.577 1.749,-1.067l0,-8.326c-0.56,-0.489 -1.131,-0.845 -1.714,-1.066c-0.583,-0.222 -1.236,-0.333 -1.959,-0.333c-1.399,0 -2.501,0.513 -3.306,1.539c-0.804,1.026 -1.207,2.344 -1.207,3.953c0,1.703 0.403,3.067 1.207,4.093c0.805,1.026 1.907,1.539 3.306,1.539Z" style="fill:#546578;fill-rule:nonzero;"/><path d="M104.656,16.76c0.653,0 1.207,-0.227 1.662,-0.682c0.455,-0.455 0.682,-1.008 0.682,-1.661c0,-0.63 -0.227,-1.172 -0.682,-1.627c-0.455,-0.455 -1.009,-0.682 -1.662,-0.682c-0.629,0 -1.166,0.227 -1.609,0.682c-0.443,0.455 -0.665,0.997 -0.665,1.627c0,0.653 0.216,1.206 0.648,1.661c0.431,0.455 0.973,0.682 1.626,0.682Zm2.029,19.694l0,-16.965l-3.953,0l0,16.965l3.953,0Z" style="fill:#546578;fill-rule:nonzero;"/><path d="M115.395,19.629l0,-4.933l-3.918,0.77l0,4.163l-2.343,0l0,3.008l2.343,0l0,8.745c0,1.843 0.537,3.253 1.61,4.233c1.072,0.979 2.553,1.469 4.442,1.469c0.513,0 1.079,-0.087 1.697,-0.262c0.618,-0.175 1.102,-0.379 1.451,-0.612l-1.084,-2.904c-0.63,0.28 -1.213,0.42 -1.749,0.42c-0.816,0 -1.428,-0.274 -1.837,-0.822c-0.408,-0.548 -0.612,-1.277 -0.612,-2.186l0,-8.081l4.268,0l-1.189,-3.008l-3.079,0Z" style="fill:#546578;fill-rule:nonzero;"/><path d="M124.875,23.756c1.726,-0.769 3.358,-1.154 4.897,-1.154c2.006,0 3.032,1.178 3.079,3.533l-3.708,0c-1.889,0 -3.411,0.467 -4.565,1.399c-1.155,0.933 -1.732,2.251 -1.732,3.953c0,1.633 0.507,2.939 1.522,3.918c1.014,0.979 2.501,1.469 4.46,1.469c0.839,0 1.679,-0.198 2.518,-0.594c0.84,-0.397 1.586,-0.91 2.239,-1.54l0.595,1.714l2.623,0l0,-11.333c0,-1.143 -0.314,-2.175 -0.944,-3.096c-0.63,-0.921 -1.487,-1.65 -2.571,-2.186c-1.085,-0.537 -2.28,-0.805 -3.586,-0.805c-0.793,0 -1.824,0.152 -3.095,0.455c-1.271,0.303 -2.21,0.653 -2.816,1.049l1.084,3.218Zm1.399,7.731c0,-0.769 0.251,-1.417 0.752,-1.941c0.502,-0.525 1.184,-0.787 2.047,-0.787l3.813,0l0,3.043c-0.583,0.606 -1.236,1.084 -1.959,1.434c-0.723,0.35 -1.446,0.525 -2.169,0.525c-0.77,0 -1.376,-0.227 -1.819,-0.682c-0.443,-0.455 -0.665,-0.985 -0.665,-1.592Z" style="fill:#546578;fill-rule:nonzero;"/><path d="M144.989,36.454l0,-24.696l-3.918,0.385l0,24.311l3.918,0Z" style="fill:#546578;fill-rule:nonzero;"/><path d="M164.753,12.668l-9.095,23.786l3.883,0l2.274,-5.981l9.339,0l2.344,6.296l3.883,-0.559l-9.165,-23.542l-3.463,0Zm5.212,14.622l-7.031,0l3.463,-9.27l3.568,9.27Z" style="fill:#546578;fill-rule:nonzero;"/><path d="M192.073,32.362c-0.84,0.396 -1.609,0.688 -2.309,0.874c-0.699,0.187 -1.481,0.28 -2.343,0.28c-1.423,0 -2.56,-0.513 -3.411,-1.539c-0.851,-1.026 -1.277,-2.367 -1.277,-4.023c0.023,-1.609 0.472,-2.938 1.347,-3.988c0.874,-1.049 2.011,-1.574 3.41,-1.574c0.817,0 1.569,0.093 2.257,0.28c0.688,0.187 1.486,0.478 2.396,0.875l1.119,-2.799c-0.723,-0.513 -1.667,-0.927 -2.833,-1.242c-1.166,-0.315 -2.146,-0.472 -2.939,-0.472c-1.772,0 -3.323,0.373 -4.652,1.119c-1.329,0.747 -2.349,1.79 -3.061,3.131c-0.711,1.341 -1.067,2.898 -1.067,4.67c0,1.796 0.356,3.364 1.067,4.705c0.712,1.341 1.72,2.385 3.026,3.131c1.306,0.746 2.845,1.119 4.618,1.119c0.816,0 1.807,-0.151 2.973,-0.455c1.166,-0.303 2.11,-0.711 2.833,-1.224l-1.154,-2.868Z" style="fill:#546578;fill-rule:nonzero;"/><path d="M197.705,23.756c1.726,-0.769 3.358,-1.154 4.897,-1.154c2.006,0 3.032,1.178 3.078,3.533l-3.708,0c-1.888,0 -3.41,0.467 -4.564,1.399c-1.155,0.933 -1.732,2.251 -1.732,3.953c0,1.633 0.507,2.939 1.522,3.918c1.014,0.979 2.501,1.469 4.46,1.469c0.839,0 1.679,-0.198 2.518,-0.594c0.84,-0.397 1.586,-0.91 2.239,-1.54l0.595,1.714l2.623,0l0,-11.333c0,-1.143 -0.315,-2.175 -0.944,-3.096c-0.63,-0.921 -1.487,-1.65 -2.571,-2.186c-1.085,-0.537 -2.28,-0.805 -3.586,-0.805c-0.793,0 -1.825,0.152 -3.096,0.455c-1.271,0.303 -2.209,0.653 -2.816,1.049l1.085,3.218Zm1.399,7.731c0,-0.769 0.251,-1.417 0.752,-1.941c0.502,-0.525 1.184,-0.787 2.047,-0.787l3.812,0l0,3.043c-0.583,0.606 -1.236,1.084 -1.959,1.434c-0.722,0.35 -1.445,0.525 -2.168,0.525c-0.77,0 -1.376,-0.227 -1.819,-0.682c-0.443,-0.455 -0.665,-0.985 -0.665,-1.592Z" style="fill:#546578;fill-rule:nonzero;"/><path d="M228.663,11.793l0,24.661l-2.134,0l-0.84,-1.399c-0.723,0.583 -1.498,1.038 -2.326,1.364c-0.828,0.327 -1.626,0.49 -2.396,0.49c-1.726,0 -3.224,-0.373 -4.495,-1.119c-1.271,-0.746 -2.25,-1.796 -2.938,-3.148c-0.688,-1.353 -1.032,-2.927 -1.032,-4.723c0,-1.772 0.344,-3.329 1.032,-4.67c0.688,-1.341 1.679,-2.378 2.973,-3.113c1.294,-0.735 2.804,-1.102 4.53,-1.102c0.536,0 1.131,0.099 1.784,0.297c0.653,0.199 1.283,0.484 1.889,0.857l0,-8.045l3.953,-0.35Zm-12.139,16.091c0,1.703 0.403,3.067 1.207,4.093c0.805,1.026 1.907,1.539 3.306,1.539c0.7,0 1.341,-0.111 1.924,-0.332c0.583,-0.222 1.166,-0.577 1.749,-1.067l0,-8.326c-0.56,-0.489 -1.131,-0.845 -1.714,-1.066c-0.583,-0.222 -1.236,-0.333 -1.959,-0.333c-1.399,0 -2.501,0.513 -3.306,1.539c-0.804,1.026 -1.207,2.344 -1.207,3.953Z" style="fill:#546578;fill-rule:nonzero;"/><path d="M247.902,27.849c0,-2.565 -0.641,-4.676 -1.924,-6.331c-1.282,-1.656 -3.171,-2.484 -5.667,-2.484c-1.702,0 -3.177,0.373 -4.425,1.119c-1.247,0.747 -2.204,1.79 -2.868,3.131c-0.665,1.341 -0.997,2.898 -0.997,4.67c0,2.752 0.81,4.927 2.431,6.524c1.621,1.597 3.97,2.396 7.049,2.396c2.285,0 4.372,-0.653 6.261,-1.959l-1.189,-2.868c-1.003,0.513 -1.86,0.892 -2.571,1.137c-0.711,0.245 -1.522,0.367 -2.431,0.367c-3.265,0 -5.073,-1.516 -5.422,-4.547l11.753,0l0,-1.155Zm-11.683,-1.469c0.163,-1.259 0.588,-2.239 1.276,-2.938c0.688,-0.7 1.592,-1.05 2.711,-1.05c1.096,0 1.971,0.338 2.624,1.015c0.653,0.676 1.084,1.667 1.294,2.973l-7.905,0Z" style="fill:#546578;fill-rule:nonzero;"/><path d="M271.269,18.929c1.843,0 3.201,0.548 4.075,1.644c0.875,1.096 1.312,2.635 1.312,4.618l0,11.263l-3.953,0l0,-10.669c0,-1.166 -0.18,-2.046 -0.542,-2.641c-0.361,-0.594 -0.973,-0.892 -1.836,-0.892c-0.677,0 -1.388,0.199 -2.134,0.595c-0.746,0.396 -1.551,0.933 -2.414,1.609c0.024,0.163 0.035,0.408 0.035,0.735l0,11.263l-3.953,0l0,-10.669c0,-1.166 -0.18,-2.046 -0.542,-2.641c-0.361,-0.594 -0.973,-0.892 -1.836,-0.892c-1.236,0 -2.799,0.782 -4.688,2.344l0,11.858l-3.918,0l0,-16.965l2.624,0l0.7,2.029c0.979,-0.793 2.029,-1.423 3.148,-1.889c1.119,-0.467 2.145,-0.7 3.078,-0.7c2.286,0 3.836,0.851 4.653,2.554c0.979,-0.77 2.023,-1.388 3.13,-1.854c1.108,-0.467 2.128,-0.7 3.061,-0.7Z" style="fill:#546578;fill-rule:nonzero;"/><path d="M284.002,37.959c-0.256,0.699 -0.729,1.265 -1.417,1.696c-0.687,0.432 -1.603,0.892 -2.746,1.382l1.365,3.148c1.446,-0.326 2.769,-0.944 3.97,-1.854c1.201,-0.909 2.035,-1.982 2.501,-3.218l7.556,-19.624l-4.128,0l-4.092,11.264l-4.338,-11.894l-3.813,1.259l6.017,15.532l-0.875,2.309Z" style="fill:#546578;fill-rule:nonzero;"/></g></svg>