<?xml version="1.0" encoding="UTF-8" standalone="no"?><!DOCTYPE svg PUBLIC "-//W3C//DTD SVG 1.1//EN" "http://www.w3.org/Graphics/SVG/1.1/DTD/svg11.dtd"><svg width="100%" height="100%" viewBox="0 0 19 30" version="1.1" xmlns="http://www.w3.org/2000/svg" xmlns:xlink="http://www.w3.org/1999/xlink" xml:space="preserve" xmlns:serif="http://www.serif.com/" style="fill-rule:evenodd;clip-rule:evenodd;stroke-linejoin:round;stroke-miterlimit:2;"><g><path d="M16.875,0l-15,0c-1.035,0 -1.875,0.84 -1.875,1.875l0,26.25c0,1.033 0.84,1.875 1.875,1.875l15,0c1.033,0 1.875,-0.842 1.875,-1.875l0,-26.25c0,-1.035 -0.842,-1.875 -1.875,-1.875Z" style="fill:#455b65;fill-rule:nonzero;"/><rect x="1.875" y="3.75" width="15" height="18.75" style="fill:#edf0f2;fill-rule:nonzero;"/><path d="M11.776,12.525l-1.201,0l0,-1.801c0,-0.663 -0.539,-1.2 -1.2,-1.2c-0.663,0 -1.2,0.537 -1.2,1.2l0,1.801l-1.201,0l0,-1.801c0,-1.324 1.077,-2.401 2.401,-2.401c1.324,0 2.401,1.077 2.401,2.401l0,1.801Z" style="fill:#455b65;fill-rule:nonzero;"/><path d="M12.376,11.925l-6.002,0c-0.333,0 -0.6,0.267 -0.6,0.6l0,4.802c0,0.331 0.267,0.6 0.6,0.6l6.002,0c0.332,0 0.6,-0.269 0.6,-0.6l0,-4.802c0,-0.333 -0.268,-0.6 -0.6,-0.6Z" style="fill:#fec110;fill-rule:nonzero;"/><path d="M11.25,26.25c0,1.035 -0.84,1.875 -1.875,1.875c-1.037,0 -1.875,-0.84 -1.875,-1.875c0,-1.037 0.838,-1.875 1.875,-1.875c1.035,0 1.875,0.838 1.875,1.875Z" style="fill:#fbfdfd;fill-rule:nonzero;"/></g></svg>