<?xml version="1.0" encoding="UTF-8" standalone="no"?><!DOCTYPE svg PUBLIC "-//W3C//DTD SVG 1.1//EN" "http://www.w3.org/Graphics/SVG/1.1/DTD/svg11.dtd"><svg width="100%" height="100%" viewBox="0 0 23 30" version="1.1" xmlns="http://www.w3.org/2000/svg" xmlns:xlink="http://www.w3.org/1999/xlink" xml:space="preserve" xmlns:serif="http://www.serif.com/" style="fill-rule:evenodd;clip-rule:evenodd;stroke-linejoin:round;stroke-miterlimit:2;"><g id="icon"><g><path d="M15,0l-13.125,0c-1.035,0 -1.875,0.84 -1.875,1.875l0,26.25c0,1.033 0.84,1.875 1.875,1.875l18.75,0c1.033,0 1.875,-0.842 1.875,-1.875l0,-20.625l-7.5,-7.5Z" style="fill:#edf0f2;fill-rule:nonzero;"/><path d="M15,0l0,5.623c0,1.037 0.84,1.875 1.875,1.875l5.623,0l-7.498,-7.498Z" style="fill:#cfd9dd;fill-rule:nonzero;"/><path d="M17.813,22.5l-13.125,0c-0.52,0 -0.938,-0.42 -0.938,-0.937c0,-0.52 0.418,-0.938 0.938,-0.938l13.125,0c0.517,0 0.937,0.418 0.937,0.938c0,0.517 -0.42,0.937 -0.937,0.937Z" style="fill:#90a4ae;fill-rule:nonzero;"/><path d="M17.811,18.75l-13.125,0c-0.52,0 -0.938,-0.42 -0.938,-0.938c0,-0.519 0.418,-0.937 0.938,-0.937l13.125,0c0.517,0 0.937,0.418 0.937,0.937c0,0.518 -0.42,0.938 -0.937,0.938Z" style="fill:#90a4ae;fill-rule:nonzero;"/><path d="M17.813,15l-13.125,0c-0.52,0 -0.938,-0.42 -0.938,-0.938c0,-0.519 0.418,-0.937 0.938,-0.937l13.125,0c0.517,0 0.937,0.418 0.937,0.937c0,0.518 -0.42,0.938 -0.937,0.938Z" style="fill:#90a4ae;fill-rule:nonzero;"/><path d="M17.811,11.248l-13.125,0c-0.52,0 -0.938,-0.42 -0.938,-0.937c0,-0.52 0.418,-0.938 0.938,-0.938l13.125,0c0.517,0 0.937,0.418 0.937,0.938c0,0.517 -0.42,0.937 -0.937,0.937Z" style="fill:#90a4ae;fill-rule:nonzero;"/><path d="M17.813,26.25l-13.125,0c-0.52,0 -0.938,-0.42 -0.938,-0.937c0,-0.52 0.418,-0.938 0.938,-0.938l13.125,0c0.517,0 0.937,0.418 0.937,0.938c0,0.517 -0.42,0.937 -0.937,0.937Z" style="fill:#90a4ae;fill-rule:nonzero;"/></g></g></svg>