<?xml version="1.0" encoding="UTF-8" standalone="no"?><!DOCTYPE svg PUBLIC "-//W3C//DTD SVG 1.1//EN" "http://www.w3.org/Graphics/SVG/1.1/DTD/svg11.dtd"><svg width="100%" height="100%" viewBox="0 0 556 459" version="1.1" xmlns="http://www.w3.org/2000/svg" xmlns:xlink="http://www.w3.org/1999/xlink" xml:space="preserve" xmlns:serif="http://www.serif.com/" style="fill-rule:evenodd;clip-rule:evenodd;stroke-linejoin:round;stroke-miterlimit:2;"><g id="Illustraton-15"><g id="Gear-2"><path id="Shape-858" d="M219.67,249.536l-13.915,0.946c-2.343,-13.679 -7.72,-26.662 -15.736,-37.991l10.499,-9.184c2.05,-2.05 1.831,-5.628 -0.49,-7.948l-15.359,-15.36c-2.321,-2.321 -5.897,-2.541 -7.948,-0.49l-9.173,10.513c-11.328,-8.019 -24.31,-13.398 -37.989,-15.743l0.931,-13.918c0,-2.901 -2.684,-5.274 -5.966,-5.274l-21.719,0c-3.282,0 -5.966,2.373 -5.966,5.274l0.946,13.915c-13.685,2.344 -26.672,7.724 -38.004,15.746l-9.173,-10.513c-2.049,-2.049 -5.628,-1.83 -7.948,0.49l-15.36,15.36c-2.32,2.32 -2.541,5.897 -0.49,7.948l10.504,9.186c-8.014,11.323 -13.391,24.298 -15.736,37.971l-13.92,-0.928c-2.901,0 -5.274,2.685 -5.274,5.966l0,21.722c0,3.281 2.373,5.966 5.274,5.966l13.917,-0.939c2.343,13.675 7.721,26.653 15.735,37.979l-10.5,9.19c-2.05,2.05 -1.831,5.628 0.49,7.949l15.359,15.359c2.321,2.321 5.898,2.541 7.949,0.49l9.178,-10.508c11.326,8.014 24.303,13.391 37.977,15.736l-0.925,13.918c0,2.901 2.684,5.275 5.966,5.275l21.722,0c3.282,0 5.966,-2.374 5.966,-5.275l-0.939,-13.916c13.68,-2.344 26.662,-7.723 37.991,-15.741l9.179,10.508c2.049,2.05 5.627,1.831 7.948,-0.49l15.359,-15.359c2.321,-2.321 2.541,-5.897 0.49,-7.949l-10.5,-9.19c8.011,-11.321 13.387,-24.294 15.732,-37.964l13.918,0.932c2.9,0 5.274,-2.685 5.274,-5.966l0,-21.725c0,-3.282 -2.373,-5.968 -5.274,-5.968Zm-106.005,73.29c-30.975,0 -56.463,-25.488 -56.463,-56.463c0,-30.975 25.488,-56.463 56.463,-56.463c30.975,0 56.463,25.488 56.463,56.463c0,30.975 -25.488,56.463 -56.463,56.463Z" style="fill:#7c85ad;fill-rule:nonzero;"/><path id="Shape-859" d="M217.286,246.585l-13.915,0.946c-2.343,-13.679 -7.72,-26.662 -15.736,-37.991l10.504,-9.186c2.049,-2.049 1.83,-5.627 -0.49,-7.948l-15.36,-15.36c-2.32,-2.32 -5.897,-2.54 -7.948,-0.489l-9.173,10.512c-11.328,-8.018 -24.31,-13.398 -37.989,-15.744l0.931,-13.917c0,-2.901 -2.685,-5.274 -5.967,-5.274l-21.723,0c-3.281,0 -5.966,2.373 -5.966,5.274l0.946,13.915c-13.685,2.344 -26.672,7.725 -38.004,15.747l-9.173,-10.513c-2.05,-2.049 -5.628,-1.83 -7.948,0.49l-15.36,15.36c-2.321,2.32 -2.541,5.897 -0.49,7.948l10.503,9.185c-8.013,11.324 -13.39,24.299 -15.735,37.972l-13.919,-0.926c-2.9,0 -5.274,2.685 -5.274,5.966l0,21.722c0,3.281 2.374,5.966 5.274,5.966l13.917,-0.939c2.344,13.675 7.721,26.653 15.735,37.979l-10.5,9.19c-2.05,2.05 -1.831,5.628 0.49,7.948l15.359,15.36c2.321,2.321 5.898,2.541 7.949,0.49l9.179,-10.508c11.325,8.014 24.303,13.391 37.977,15.736l-0.925,13.918c0,2.901 2.685,5.274 5.966,5.274l21.722,0c3.282,0 5.967,-2.373 5.967,-5.274l-0.94,-13.916c13.68,-2.344 26.662,-7.723 37.991,-15.741l9.178,10.508c2.05,2.05 5.628,1.831 7.949,-0.49l15.359,-15.359c2.321,-2.321 2.541,-5.897 0.49,-7.949l-10.5,-9.19c8.012,-11.324 13.387,-24.299 15.731,-37.972l13.918,0.932c2.9,0 5.274,-2.685 5.274,-5.966l0,-21.719c0,-3.28 -2.374,-5.967 -5.274,-5.967Zm-106.005,73.289c-30.975,0 -56.463,-25.488 -56.463,-56.463c0,-30.975 25.488,-56.463 56.463,-56.463c30.975,0 56.463,25.488 56.463,56.463c0,30.975 -25.488,56.463 -56.463,56.463Z" style="fill:#8f97b9;fill-rule:nonzero;"/><path id="Shape-860" d="M126.449,98.442l-6.554,0.446c-1.104,-6.444 -3.637,-12.559 -7.413,-17.896l4.947,-4.326c0.953,-1.093 0.85,-2.774 -0.23,-3.743l-7.235,-7.235c-0.968,-1.08 -2.649,-1.184 -3.743,-0.23l-4.318,4.951c-5.335,-3.777 -11.449,-6.311 -17.892,-7.415l0.439,-6.555c-0.099,-1.448 -1.361,-2.564 -2.811,-2.484l-10.232,0c-1.449,-0.079 -2.711,1.036 -2.81,2.484l0.446,6.554c-6.445,1.104 -12.562,3.638 -17.9,7.416l-4.32,-4.951c-1.094,-0.954 -2.775,-0.85 -3.743,0.23l-7.235,7.233c-1.08,0.968 -1.184,2.65 -0.23,3.743l4.947,4.326c-3.774,5.334 -6.306,11.445 -7.411,17.884l-6.555,-0.436c-1.448,0.099 -2.563,1.361 -2.484,2.81l0,10.23c-0.08,1.45 1.036,2.712 2.484,2.811l6.554,-0.443c1.104,6.441 3.636,12.553 7.41,17.888l-4.945,4.328c-0.954,1.094 -0.85,2.775 0.23,3.743l7.235,7.235c0.968,1.08 2.649,1.184 3.743,0.23l4.323,-4.949c5.334,3.775 11.446,6.308 17.886,7.413l-0.436,6.555c0.099,1.448 1.361,2.563 2.81,2.484l10.231,0c1.449,0.08 2.711,-1.036 2.81,-2.484l-0.443,-6.554c6.443,-1.104 12.558,-3.638 17.893,-7.414l4.323,4.949c1.094,0.954 2.775,0.85 3.744,-0.23l7.234,-7.235c1.08,-0.968 1.184,-2.65 0.23,-3.743l-4.945,-4.328c3.773,-5.333 6.305,-11.445 7.409,-17.884l6.555,0.439c1.448,-0.099 2.563,-1.361 2.484,-2.811l0,-10.228c0.078,-1.448 -1.036,-2.708 -2.482,-2.808Zm-49.927,34.518c-14.588,0 -26.592,-12.005 -26.592,-26.593c0,-14.588 12.004,-26.592 26.592,-26.592c14.588,0 26.593,12.004 26.593,26.592c-0.001,14.587 -12.005,26.591 -26.592,26.591l-0.001,0.002Z" style="fill:#7c85ad;fill-rule:nonzero;"/><path id="Shape-8601" serif:id="Shape-860" d="M124.449,96.442l-6.554,0.446c-1.104,-6.444 -3.637,-12.559 -7.413,-17.896l4.947,-4.326c0.953,-1.093 0.85,-2.774 -0.23,-3.743l-7.235,-7.235c-0.968,-1.08 -2.649,-1.184 -3.743,-0.23l-4.318,4.951c-5.335,-3.777 -11.449,-6.311 -17.892,-7.415l0.439,-6.555c-0.099,-1.448 -1.361,-2.564 -2.811,-2.484l-10.232,0c-1.449,-0.079 -2.711,1.036 -2.81,2.484l0.446,6.554c-6.445,1.104 -12.562,3.638 -17.9,7.416l-4.32,-4.951c-1.094,-0.954 -2.775,-0.85 -3.743,0.23l-7.235,7.233c-1.08,0.968 -1.184,2.65 -0.23,3.743l4.947,4.326c-3.774,5.334 -6.306,11.445 -7.411,17.884l-6.555,-0.436c-1.448,0.099 -2.563,1.361 -2.484,2.81l0,10.23c-0.08,1.45 1.036,2.712 2.484,2.811l6.554,-0.443c1.104,6.441 3.636,12.553 7.41,17.888l-4.945,4.328c-0.954,1.094 -0.85,2.775 0.23,3.743l7.235,7.235c0.968,1.08 2.649,1.184 3.743,0.23l4.323,-4.949c5.334,3.775 11.446,6.308 17.886,7.413l-0.436,6.555c0.099,1.448 1.361,2.563 2.81,2.484l10.231,0c1.449,0.08 2.711,-1.036 2.81,-2.484l-0.443,-6.554c6.443,-1.104 12.558,-3.638 17.893,-7.414l4.323,4.949c1.094,0.954 2.775,0.85 3.744,-0.23l7.234,-7.235c1.08,-0.968 1.184,-2.65 0.23,-3.743l-4.945,-4.328c3.773,-5.333 6.305,-11.445 7.409,-17.884l6.555,0.439c1.448,-0.099 2.563,-1.361 2.484,-2.811l0,-10.228c0.078,-1.448 -1.036,-2.708 -2.482,-2.808Zm-49.927,34.518c-14.588,0 -26.592,-12.005 -26.592,-26.593c0,-14.588 12.004,-26.592 26.592,-26.592c14.588,0 26.593,12.004 26.593,26.592c-0.001,14.587 -12.005,26.591 -26.592,26.591l-0.001,0.002Z" style="fill:#8f97b9;fill-rule:nonzero;"/><path id="Shape-861" d="M178.835,50.326l-4.9,-1.549c1.039,-5.008 0.942,-10.185 -0.282,-15.151l4.84,-1.736c1.007,-0.524 1.412,-1.778 0.902,-2.792l-3.199,-7.339c-0.396,-1.064 -1.591,-1.62 -2.661,-1.239l-4.562,2.371c-2.805,-4.276 -6.533,-7.87 -10.909,-10.517l2.195,-4.648c0.341,-1.083 -0.259,-2.256 -1.337,-2.613l-7.451,-2.926c-1.032,-0.472 -2.271,-0.02 -2.757,1.006l-1.549,4.9c-5.01,-1.039 -10.189,-0.942 -15.156,0.283l-1.729,-4.841c-0.524,-1.008 -1.778,-1.413 -2.792,-0.903l-7.339,3.2c-1.066,0.395 -1.623,1.591 -1.241,2.661l2.365,4.562c-4.274,2.805 -7.866,6.532 -10.512,10.906l-4.649,-2.193c-1.083,-0.342 -2.257,0.258 -2.613,1.336l-2.926,7.451c-0.472,1.033 -0.02,2.271 1.006,2.757l4.9,1.552c-1.039,5.006 -0.942,10.182 0.281,15.146l-4.839,1.738c-1.008,0.524 -1.413,1.778 -0.903,2.792l3.2,7.339c0.396,1.064 1.591,1.621 2.661,1.239l4.562,-2.368c2.805,4.274 6.533,7.866 10.909,10.512l-2.193,4.65c-0.342,1.083 0.258,2.256 1.337,2.613l7.45,2.926c1.033,0.472 2.271,0.02 2.757,-1.006l1.552,-4.9c5.008,1.038 10.185,0.942 15.151,-0.282l1.734,4.84c0.523,1.008 1.777,1.413 2.792,0.903l7.339,-3.2c1.064,-0.396 1.62,-1.591 1.238,-2.66l-2.364,-4.566c4.274,-2.805 7.867,-6.532 10.513,-10.906l4.648,2.194c1.083,0.341 2.256,-0.259 2.613,-1.337l2.925,-7.45c0.471,-1.033 0.019,-2.27 -1.007,-2.755Zm-46.231,10.862c-7.947,-3.12 -13.202,-10.829 -13.202,-19.367c0,-11.414 9.392,-20.806 20.806,-20.806c11.414,0 20.806,9.392 20.806,20.806c0,2.603 -0.488,5.182 -1.44,7.605c-4.171,10.624 -16.346,15.933 -26.97,11.762Z" style="fill:#7c85ad;fill-rule:nonzero;"/><path id="Shape-8611" serif:id="Shape-861" d="M176.835,48.326l-4.9,-1.549c1.039,-5.008 0.942,-10.185 -0.282,-15.151l4.84,-1.736c1.007,-0.524 1.412,-1.778 0.902,-2.792l-3.199,-7.339c-0.396,-1.064 -1.591,-1.62 -2.661,-1.239l-4.562,2.371c-2.805,-4.276 -6.533,-7.87 -10.909,-10.517l2.195,-4.648c0.341,-1.083 -0.259,-2.256 -1.337,-2.613l-7.451,-2.926c-1.032,-0.472 -2.271,-0.02 -2.757,1.006l-1.549,4.9c-5.01,-1.039 -10.189,-0.942 -15.156,0.283l-1.729,-4.841c-0.524,-1.008 -1.778,-1.413 -2.792,-0.903l-7.339,3.2c-1.066,0.395 -1.623,1.591 -1.241,2.661l2.365,4.562c-4.274,2.805 -7.866,6.532 -10.512,10.906l-4.649,-2.193c-1.083,-0.342 -2.257,0.258 -2.613,1.336l-2.926,7.451c-0.472,1.033 -0.02,2.271 1.006,2.757l4.9,1.552c-1.039,5.006 -0.942,10.182 0.281,15.146l-4.839,1.738c-1.008,0.524 -1.413,1.778 -0.903,2.792l3.2,7.339c0.396,1.064 1.591,1.621 2.661,1.239l4.562,-2.368c2.805,4.274 6.533,7.866 10.909,10.512l-2.193,4.65c-0.342,1.083 0.258,2.256 1.337,2.613l7.45,2.926c1.033,0.472 2.271,0.02 2.757,-1.006l1.552,-4.9c5.008,1.038 10.185,0.942 15.151,-0.282l1.734,4.84c0.523,1.008 1.777,1.413 2.792,0.903l7.339,-3.2c1.064,-0.396 1.62,-1.591 1.238,-2.66l-2.364,-4.566c4.274,-2.805 7.867,-6.532 10.513,-10.906l4.648,2.194c1.083,0.341 2.256,-0.259 2.613,-1.337l2.925,-7.45c0.471,-1.033 0.019,-2.27 -1.007,-2.755Zm-46.231,10.862c-7.947,-3.12 -13.202,-10.829 -13.202,-19.367c0,-11.414 9.392,-20.806 20.806,-20.806c11.414,0 20.806,9.392 20.806,20.806c0,2.603 -0.488,5.182 -1.44,7.605c-4.171,10.624 -16.346,15.933 -26.97,11.762Z" style="fill:#8f97b9;fill-rule:nonzero;"/><path id="Shape-862" d="M214.609,90.748l-2.888,-1.348c1.042,-2.996 1.4,-6.187 1.048,-9.34l3.117,-0.677c0.662,-0.241 1.012,-0.981 0.778,-1.646l-1.376,-4.77c-0.158,-0.686 -0.848,-1.124 -1.536,-0.976l-2.997,1.09c-1.38,-2.855 -3.383,-5.366 -5.859,-7.346l1.724,-2.682c0.297,-0.638 0.023,-1.408 -0.611,-1.714l-4.346,-2.4c-0.597,-0.374 -1.395,-0.196 -1.777,0.396l-1.348,2.889c-2.997,-1.043 -6.19,-1.402 -9.344,-1.049l-0.673,-3.116c-0.242,-0.662 -0.98,-1.012 -1.645,-0.78l-4.77,1.376c-0.686,0.158 -1.125,0.848 -0.976,1.537l1.086,2.998c-2.854,1.38 -5.364,3.382 -7.344,5.859l-2.682,-1.723c-0.638,-0.298 -1.408,-0.024 -1.714,0.61l-2.4,4.346c-0.374,0.598 -0.196,1.396 0.396,1.777l2.889,1.35c-1.042,2.995 -1.4,6.186 -1.049,9.337l-3.116,0.679c-0.662,0.241 -1.013,0.98 -0.781,1.645l1.377,4.769c0.16,0.684 0.847,1.119 1.533,0.973l2.997,-1.088c1.381,2.854 3.383,5.364 5.86,7.344l-1.723,2.683c-0.298,0.638 -0.023,1.408 0.611,1.714l4.346,2.4c0.597,0.374 1.395,0.196 1.776,-0.396l1.35,-2.889c2.996,1.042 6.188,1.401 9.341,1.049l0.675,3.116c0.241,0.662 0.98,1.012 1.645,0.78l4.77,-1.376c0.686,-0.158 1.125,-0.848 0.976,-1.537l-1.085,-2.999c2.854,-1.38 5.363,-3.382 7.343,-5.859l2.681,1.724c0.639,0.298 1.409,0.024 1.715,-0.611l2.4,-4.345c0.372,-0.596 0.196,-1.391 -0.394,-1.774Zm-29.306,2.951c-4.107,-2.268 -6.666,-6.604 -6.666,-11.296c0,-7.079 5.825,-12.905 12.904,-12.905c7.08,0 12.905,5.826 12.905,12.905c0,2.181 -0.553,4.328 -1.608,6.238c-2.268,4.108 -6.605,6.667 -11.297,6.667c-2.182,0 -4.328,-0.553 -6.238,-1.608l0,-0.001Z" style="fill:#7c85ad;fill-rule:nonzero;"/><path id="Shape-8621" serif:id="Shape-862" d="M212.609,88.748l-2.888,-1.348c1.042,-2.996 1.4,-6.187 1.048,-9.34l3.117,-0.677c0.662,-0.241 1.012,-0.981 0.778,-1.646l-1.376,-4.77c-0.158,-0.686 -0.848,-1.124 -1.536,-0.976l-2.997,1.09c-1.38,-2.855 -3.383,-5.366 -5.859,-7.346l1.724,-2.682c0.297,-0.638 0.023,-1.408 -0.611,-1.714l-4.346,-2.4c-0.597,-0.374 -1.395,-0.196 -1.777,0.396l-1.348,2.889c-2.997,-1.043 -6.19,-1.402 -9.344,-1.049l-0.673,-3.116c-0.242,-0.662 -0.98,-1.012 -1.645,-0.78l-4.77,1.376c-0.686,0.158 -1.125,0.848 -0.976,1.537l1.086,2.998c-2.854,1.38 -5.364,3.382 -7.344,5.859l-2.682,-1.723c-0.638,-0.298 -1.408,-0.024 -1.714,0.61l-2.4,4.346c-0.374,0.598 -0.196,1.396 0.396,1.777l2.889,1.35c-1.042,2.995 -1.4,6.186 -1.049,9.337l-3.116,0.679c-0.662,0.241 -1.013,0.98 -0.781,1.645l1.377,4.769c0.16,0.684 0.847,1.119 1.533,0.973l2.997,-1.088c1.381,2.854 3.383,5.364 5.86,7.344l-1.723,2.683c-0.298,0.638 -0.023,1.408 0.611,1.714l4.346,2.4c0.597,0.374 1.395,0.196 1.776,-0.396l1.35,-2.889c2.996,1.042 6.188,1.401 9.341,1.049l0.675,3.116c0.241,0.662 0.98,1.012 1.645,0.78l4.77,-1.376c0.686,-0.158 1.125,-0.848 0.976,-1.537l-1.085,-2.999c2.854,-1.38 5.363,-3.382 7.343,-5.859l2.681,1.724c0.639,0.298 1.409,0.024 1.715,-0.611l2.4,-4.345c0.372,-0.596 0.196,-1.391 -0.394,-1.774Zm-29.306,2.951c-4.107,-2.268 -6.666,-6.604 -6.666,-11.296c0,-7.079 5.825,-12.905 12.904,-12.905c7.08,0 12.905,5.826 12.905,12.905c0,2.181 -0.553,4.328 -1.608,6.238c-2.268,4.108 -6.605,6.667 -11.297,6.667c-2.182,0 -4.328,-0.553 -6.238,-1.608l0,-0.001Z" style="fill:#8f97b9;fill-rule:nonzero;"/></g><g id="Computer-2"><path id="Shape-863" d="M134.326,307.774l0,-194.416c0,-15.339 -1.738,-27.894 21.625,-27.894l332.814,0c22.194,0 21.625,12.553 21.625,27.894l0,194.416l-376.064,0Z" style="fill:#37474f;fill-rule:nonzero;"/><path id="Shape-864" d="M88.911,457.06l-0.025,-7.83l466.928,0l-0.011,7.83c0,0.98 -0.806,1.786 -1.785,1.786l-463.322,0c-0.979,0 -1.785,-0.806 -1.785,-1.786Z" style="fill:#8f97b9;fill-rule:nonzero;"/><rect id="Shape-865" x="149.233" y="110.819" width="346.25" height="182.118" style="fill:#e5e8f5;"/><g id="Group_5020"><path id="Path_3399" d="M422.196,266.531c0,0 -33.334,-13.333 -33.334,-29.626l0,-39.643c19.26,5.195 33.314,-4.355 33.314,-4.355c0,0 12.17,9.705 33.313,4.355l0,39.643c0.005,16.293 -33.293,29.626 -33.293,29.626Z" style="fill:#f9b25f;fill-rule:nonzero;"/><path id="Path_3400" d="M422.195,269.483l-1.018,-0.404c-1.433,-0.572 -35.053,-14.226 -35.053,-32.169l0,-43.224l3.452,0.932c10.467,2.884 21.667,1.449 31.069,-3.98l1.666,-1.121l1.576,1.248c0.451,0.352 11.495,8.76 30.934,3.842l3.413,-0.864l0,43.163c0,17.942 -33.592,31.598 -35.022,32.171l-1.017,0.406Zm-30.589,-68.776l0,36.199c0,11.394 21.179,22.702 30.59,26.662c9.404,-3.961 30.56,-15.268 30.56,-26.662l0,-36.225c-16.104,3.066 -26.785,-2.12 -30.668,-4.518c-9.331,4.984 -20.104,6.59 -30.482,4.544Z" style="fill:#f9b25f;fill-rule:nonzero;"/></g><path id="Shape-866" d="M360.329,454.282l-75.149,0.173c-8.175,0.018 -7.975,-5.456 -7.975,-5.456l90.285,0c0,0 0.634,5.265 -7.161,5.283Z" style="fill:#fff;fill-rule:nonzero;"/><path id="Shape-868" d="M555.783,449.222l-466.881,0.008l45.421,-141.453l376.017,0l45.443,141.445Z" style="fill:#e5e8f5;fill-rule:nonzero;"/><path id="Shape-869" d="M161.916,328.775l-27.004,0l3.533,-11.001l26.391,0l-2.92,11.001Z" style="fill:#bbc0d6;fill-rule:nonzero;"/><path id="Shape-870" d="M192.613,328.775l-27.004,0l3.532,-11.001l26.391,0l-2.919,11.001Z" style="fill:#bbc0d6;fill-rule:nonzero;"/><path id="Shape-871" d="M157.155,345.848l-27.004,0l3.533,-11.002l26.391,0l-2.92,11.002Z" style="fill:#bbc0d6;fill-rule:nonzero;"/><path id="Shape-872" d="M187.852,345.848l-27.003,0l3.533,-11.002l26.391,0l-2.921,11.002Z" style="fill:#bbc0d6;fill-rule:nonzero;"/><path id="Shape-873" d="M152.51,363.655l-27.004,0l3.533,-11.002l26.391,0l-2.92,11.002Z" style="fill:#bbc0d6;fill-rule:nonzero;"/><path id="Shape-874" d="M183.208,363.655l-27.004,0l3.532,-11.002l26.392,0l-2.92,11.002Z" style="fill:#bbc0d6;fill-rule:nonzero;"/><path id="Shape-875" d="M147.75,380.727l-27.004,0l3.533,-11.002l26.39,0l-2.919,11.002Z" style="fill:#bbc0d6;fill-rule:nonzero;"/><path id="Shape-876" d="M178.447,380.727l-27.004,0l3.533,-11.002l26.391,0l-2.92,11.002Z" style="fill:#bbc0d6;fill-rule:nonzero;"/><path id="Shape-877" d="M225.487,328.775l-27.003,0l3.532,-11.001l26.391,0l-2.92,11.001Z" style="fill:#bbc0d6;fill-rule:nonzero;"/><path id="Shape-878" d="M256.184,328.775l-27.003,0l3.532,-11.001l26.392,0l-2.921,11.001Z" style="fill:#bbc0d6;fill-rule:nonzero;"/><path id="Shape-879" d="M220.726,345.848l-27.003,0l3.532,-11.002l26.391,0l-2.92,11.002Z" style="fill:#bbc0d6;fill-rule:nonzero;"/><path id="Shape-880" d="M251.423,345.848l-27.003,0l3.532,-11.002l26.391,0l-2.92,11.002Z" style="fill:#bbc0d6;fill-rule:nonzero;"/><path id="Shape-881" d="M216.081,363.655l-27.004,0l3.533,-11.002l26.391,0l-2.92,11.002Z" style="fill:#bbc0d6;fill-rule:nonzero;"/><path id="Shape-882" d="M246.778,363.655l-27.004,0l3.533,-11.002l26.391,0l-2.92,11.002Z" style="fill:#bbc0d6;fill-rule:nonzero;"/><path id="Shape-883" d="M211.32,380.727l-27.003,0l3.533,-11.002l26.39,0l-2.92,11.002Z" style="fill:#bbc0d6;fill-rule:nonzero;"/><path id="Shape-884" d="M242.018,380.727l-27.003,0l3.532,-11.002l26.391,0l-2.92,11.002Z" style="fill:#bbc0d6;fill-rule:nonzero;"/><path id="Shape-885" d="M479.266,328.775l27.001,0l-3.533,-11.001l-26.39,0l2.922,11.001Z" style="fill:#bbc0d6;fill-rule:nonzero;"/><path id="Shape-886" d="M448.569,328.775l27.003,0l-3.533,-11.001l-26.391,0l2.921,11.001Z" style="fill:#bbc0d6;fill-rule:nonzero;"/><path id="Shape-887" d="M484.027,345.848l27.003,0l-3.533,-11.002l-26.391,0l2.921,11.002Z" style="fill:#bbc0d6;fill-rule:nonzero;"/><path id="Shape-888" d="M453.33,345.848l27.003,0l-3.533,-11.002l-26.39,0l2.92,11.002Z" style="fill:#bbc0d6;fill-rule:nonzero;"/><path id="Shape-889" d="M488.67,363.655l27.003,0l-3.532,-11.002l-26.391,0l2.92,11.002Z" style="fill:#bbc0d6;fill-rule:nonzero;"/><path id="Shape-890" d="M457.975,363.655l27.003,0l-3.532,-11.002l-26.391,0l2.92,11.002Z" style="fill:#bbc0d6;fill-rule:nonzero;"/><path id="Shape-891" d="M493.433,380.727l27.003,0l-3.533,-11.002l-26.391,0l2.921,11.002Z" style="fill:#bbc0d6;fill-rule:nonzero;"/><path id="Shape-892" d="M462.735,380.727l27.003,0l-3.533,-11.002l-26.39,0l2.92,11.002Z" style="fill:#bbc0d6;fill-rule:nonzero;"/><path id="Shape-893" d="M415.695,328.775l27.003,0l-3.532,-11.001l-26.391,0l2.92,11.001Z" style="fill:#bbc0d6;fill-rule:nonzero;"/><path id="Shape-894" d="M382.392,328.775l27.003,0l-3.532,-11.001l-26.392,0l2.921,11.001Z" style="fill:#bbc0d6;fill-rule:nonzero;"/><path id="Shape-895" d="M420.456,345.848l27.003,0l-3.532,-11.002l-26.391,0l2.92,11.002Z" style="fill:#bbc0d6;fill-rule:nonzero;"/><path id="Shape-896" d="M387.152,345.848l27.003,0l-3.533,-11.002l-26.391,0l2.921,11.002Z" style="fill:#bbc0d6;fill-rule:nonzero;"/><path id="Shape-897" d="M425.101,363.655l27.003,0l-3.532,-11.002l-26.393,0l2.922,11.002Z" style="fill:#bbc0d6;fill-rule:nonzero;"/><path id="Shape-898" d="M391.797,363.655l27.003,0l-3.532,-11.002l-26.391,0l2.92,11.002Z" style="fill:#bbc0d6;fill-rule:nonzero;"/><path id="Shape-899" d="M429.861,380.727l27.003,0l-3.532,-11.002l-26.391,0l2.92,11.002Z" style="fill:#bbc0d6;fill-rule:nonzero;"/><path id="Shape-900" d="M396.558,380.727l27.003,0l-3.532,-11.002l-26.392,0l2.921,11.002Z" style="fill:#bbc0d6;fill-rule:nonzero;"/><path id="Shape-901" d="M290.597,328.775l-27.003,0l3.533,-11.001l26.391,0l-2.921,11.001Z" style="fill:#bbc0d6;fill-rule:nonzero;"/><path id="Shape-902" d="M321.298,328.775l-27.007,0l3.535,-11.001l26.391,0l-2.919,11.001Z" style="fill:#bbc0d6;fill-rule:nonzero;"/><path id="Shape-903" d="M285.837,345.848l-27.005,0l3.532,-11.002l26.391,0l-2.918,11.002Z" style="fill:#bbc0d6;fill-rule:nonzero;"/><path id="Shape-904" d="M316.534,345.848l-27.004,0l3.533,-11.002l26.391,0l-2.92,11.002Z" style="fill:#bbc0d6;fill-rule:nonzero;"/><path id="Shape-905" d="M281.192,363.655l-27.004,0l3.533,-11.002l26.392,0l-2.921,11.002Z" style="fill:#bbc0d6;fill-rule:nonzero;"/><path id="Shape-906" d="M311.889,363.655l-27.004,0l3.533,-11.002l26.391,0l-2.92,11.002Z" style="fill:#bbc0d6;fill-rule:nonzero;"/><path id="Shape-907" d="M349.886,328.775l-22.721,0l2.975,-11.001l22.206,0l-2.46,11.001Z" style="fill:#bbc0d6;fill-rule:nonzero;"/><path id="Shape-908" d="M378.03,328.775l-22.776,0l2.569,-11.001l17.729,0l2.478,11.001Z" style="fill:#bbc0d6;fill-rule:nonzero;"/><path id="Shape-909" d="M349.408,345.848l-27.004,0l3.533,-11.002l26.391,0l-2.92,11.002Z" style="fill:#bbc0d6;fill-rule:nonzero;"/><path id="Shape-910" d="M381.737,345.848l-28.636,0l3.533,-11.002l21.846,0l3.257,11.002Z" style="fill:#bbc0d6;fill-rule:nonzero;"/><path id="Shape-911" d="M344.763,363.655l-27.003,0l3.532,-11.002l26.391,0l-2.92,11.002Z" style="fill:#bbc0d6;fill-rule:nonzero;"/><path id="Shape-912" d="M385.445,363.655l-36.988,0l4.492,-11.002l29.748,0l2.748,11.002Z" style="fill:#bbc0d6;fill-rule:nonzero;"/><path id="Shape-913" d="M366.566,369.726l-106.638,0l-4.795,11.001l133.832,0l-2.486,-11.001l-19.913,0Z" style="fill:#bbc0d6;fill-rule:nonzero;"/><path id="Shape-914" d="M396.138,439.868l-148.36,0l10.131,-48.64l127.161,0l11.068,48.64Z" style="fill:#bbc0d6;fill-rule:nonzero;"/><g id="Code-2"><path id="Shape-918" d="M159.123,130.344c1.115,0 2.032,0.917 2.032,2.032c0,1.114 -0.917,2.032 -2.032,2.032c-1.115,0 -2.032,-0.918 -2.032,-2.032c0,-1.115 0.917,-2.032 2.032,-2.032Z" style="fill:#e5e8f5;fill-rule:nonzero;"/><path id="Shape-919" d="M159.123,138.681c1.115,0 2.032,0.918 2.032,2.033c0,1.114 -0.917,2.032 -2.032,2.032c-1.115,0 -2.032,-0.918 -2.032,-2.032c0,-1.115 0.917,-2.033 2.032,-2.033Z" style="fill:#e5e8f5;fill-rule:nonzero;"/><path id="Shape-920" d="M159.123,146.949c1.115,0 2.032,0.917 2.032,2.032c0,1.114 -0.917,2.032 -2.032,2.032c-1.115,0 -2.032,-0.918 -2.032,-2.032c0,-1.115 0.917,-2.032 2.032,-2.032Z" style="fill:#e5e8f5;fill-rule:nonzero;"/><path id="Shape-921" d="M159.123,153.308c1.115,0 2.032,0.918 2.032,2.032c0,1.115 -0.917,2.032 -2.032,2.032c-1.115,0 -2.032,-0.917 -2.032,-2.032c0,-1.114 0.917,-2.032 2.032,-2.032Z" style="fill:#e5e8f5;fill-rule:nonzero;"/><path id="Shape-922" d="M159.123,166.875c1.115,0 2.032,0.918 2.032,2.032c0,1.115 -0.917,2.032 -2.032,2.032c-1.115,0 -2.032,-0.917 -2.032,-2.032c0,-1.114 0.917,-2.032 2.032,-2.032Z" style="fill:#e5e8f5;fill-rule:nonzero;"/><path id="Shape-923" d="M159.123,175.072c1.115,0 2.032,0.917 2.032,2.032c0,1.115 -0.917,2.032 -2.032,2.032c-1.115,0 -2.032,-0.917 -2.032,-2.032c0,-1.115 0.917,-2.032 2.032,-2.032Z" style="fill:#e5e8f5;fill-rule:nonzero;"/><path id="Shape-924" d="M159.123,183.201c1.115,0 2.032,0.917 2.032,2.032c0,1.115 -0.917,2.032 -2.032,2.032c-1.115,0 -2.032,-0.917 -2.032,-2.032c0,-1.115 0.917,-2.032 2.032,-2.032Z" style="fill:#e5e8f5;fill-rule:nonzero;"/><path id="Shape-925" d="M159.123,189.502c1.115,0 2.032,0.917 2.032,2.032c0,1.114 -0.917,2.032 -2.032,2.032c-1.115,0 -2.032,-0.918 -2.032,-2.032c0,-1.115 0.917,-2.032 2.032,-2.032Z" style="fill:#e5e8f5;fill-rule:nonzero;"/><path id="Shape-926" d="M159.123,203.836c1.115,0 2.032,0.917 2.032,2.032c0,1.114 -0.917,2.032 -2.032,2.032c-1.115,0 -2.032,-0.918 -2.032,-2.032c0,-1.115 0.917,-2.032 2.032,-2.032Z" style="fill:#e5e8f5;fill-rule:nonzero;"/><path id="Shape-927" d="M159.123,210.329c1.115,0 2.032,0.918 2.032,2.033c0,1.114 -0.917,2.032 -2.032,2.032c-1.115,0 -2.032,-0.918 -2.032,-2.032c0,-1.115 0.917,-2.033 2.032,-2.033Z" style="fill:#e5e8f5;fill-rule:nonzero;"/><path id="Shape-928" d="M159.123,225.22c1.115,0 2.032,0.917 2.032,2.032c0,1.115 -0.917,2.032 -2.032,2.032c-1.115,0 -2.032,-0.917 -2.032,-2.032c0,-1.115 0.917,-2.032 2.032,-2.032Z" style="fill:#e5e8f5;fill-rule:nonzero;"/><path id="Shape-929" d="M159.123,233.313c1.115,0 2.032,0.917 2.032,2.032c0,1.115 -0.917,2.032 -2.032,2.032c-1.115,0 -2.032,-0.917 -2.032,-2.032c0,-1.115 0.917,-2.032 2.032,-2.032Z" style="fill:#e5e8f5;fill-rule:nonzero;"/><path id="Shape-930" d="M159.123,241.47c1.115,0 2.032,0.917 2.032,2.032c0,1.115 -0.917,2.032 -2.032,2.032c-1.115,0 -2.032,-0.917 -2.032,-2.032c0,-1.115 0.917,-2.032 2.032,-2.032Z" style="fill:#e5e8f5;fill-rule:nonzero;"/><path id="Shape-931" d="M159.123,248.203c1.115,0 2.032,0.918 2.032,2.032c0,1.115 -0.917,2.032 -2.032,2.032c-1.115,0 -2.032,-0.917 -2.032,-2.032c0,-1.114 0.917,-2.032 2.032,-2.032Z" style="fill:#e5e8f5;fill-rule:nonzero;"/><path id="Shape-932" d="M159.123,261.459c1.115,0 2.032,0.917 2.032,2.032c0,1.115 -0.917,2.032 -2.032,2.032c-1.115,0 -2.032,-0.917 -2.032,-2.032c0,-1.115 0.917,-2.032 2.032,-2.032Z" style="fill:#e5e8f5;fill-rule:nonzero;"/><path id="Shape-933" d="M159.123,269.703c1.115,0 2.032,0.917 2.032,2.032c0,1.115 -0.917,2.032 -2.032,2.032c-1.115,0 -2.032,-0.917 -2.032,-2.032c0,-1.115 0.917,-2.032 2.032,-2.032Z" style="fill:#e5e8f5;fill-rule:nonzero;"/><path id="Shape-936" d="M168.645,130.482l33.349,0c1.115,0 2.032,0.917 2.032,2.032c0,1.115 -0.917,2.032 -2.032,2.032l-33.35,0c-1.115,0 -2.033,-0.917 -2.033,-2.032c0,-1.115 0.918,-2.032 2.033,-2.032Z" style="fill:#e5e8f5;fill-rule:nonzero;"/><path id="Shape-937" d="M175.723,138.892l57.226,0c1.115,0 2.032,0.918 2.032,2.032c0,1.115 -0.917,2.033 -2.032,2.033l-57.227,0c-1.115,0 -2.032,-0.918 -2.032,-2.033c0,-1.114 0.917,-2.032 2.032,-2.032Z" style="fill:#f9b25f;fill-rule:nonzero;"/><path id="Shape-938" d="M187.732,146.975l95.364,0c1.114,0 2.032,0.917 2.032,2.032c0,1.115 -0.918,2.032 -2.031,2.032l-95.364,0c-1.115,0 -2.032,-0.917 -2.032,-2.032c0,-1.115 0.917,-2.032 2.032,-2.032Z" style="fill:#bbc0d6;fill-rule:nonzero;"/><path id="Shape-939" d="M298.551,146.975l56.361,0c1.114,0 2.032,0.917 2.032,2.032c0,1.115 -0.918,2.032 -2.031,2.032l-56.361,0c-1.115,0 -2.032,-0.917 -2.032,-2.032c0,-1.115 0.916,-2.032 2.031,-2.032Z" style="fill:#bbc0d6;fill-rule:nonzero;"/><path id="Shape-940" d="M179.437,153.919l117.12,0c1.115,0 2.032,0.917 2.032,2.032c0,1.114 -0.916,2.032 -2.031,2.032l-117.121,0c-1.114,0 -2.032,-0.918 -2.032,-2.032c0,-1.115 0.918,-2.032 2.032,-2.032Z" style="fill:#bbc0d6;fill-rule:nonzero;"/><path id="Shape-941" d="M308.21,153.919l18.684,0c1.115,0 2.031,0.917 2.031,2.032c0,1.114 -0.916,2.032 -2.031,2.032l-18.685,0c-1.115,0 -2.031,-0.918 -2.031,-2.032c0,-1.115 0.916,-2.032 2.031,-2.032Z" style="fill:#bbc0d6;fill-rule:nonzero;"/><path id="Shape-944" d="M392.131,129.452l70.049,0c0.839,0 1.529,0.918 1.529,2.032c0,1.115 -0.69,2.032 -1.529,2.032l-70.049,0c-0.839,0 -1.53,-0.917 -1.53,-2.032c0,-1.114 0.691,-2.032 1.53,-2.032Z" style="fill:#bbc0d6;fill-rule:nonzero;"/><path id="Shape-945" d="M347.226,130.482l33.35,0c1.115,0 2.031,0.917 2.031,2.032c0,1.115 -0.916,2.032 -2.031,2.032l-33.351,0c-1.115,0 -2.031,-0.917 -2.031,-2.032c0,-1.115 0.916,-2.032 2.031,-2.032Z" style="fill:#bbc0d6;fill-rule:nonzero;"/><path id="Shape-946" d="M339.313,155.776l84.836,0c1.113,0 2.031,0.918 2.031,2.032c0,1.115 -0.918,2.033 -2.031,2.033l-84.837,0c-1.115,0 -2.031,-0.918 -2.031,-2.033c0,-1.114 0.916,-2.032 2.031,-2.032Z" style="fill:#bbc0d6;fill-rule:nonzero;"/><path id="Shape-947" d="M366.313,146.975l95.363,0c1.115,0 2.034,0.917 2.034,2.032c0,1.115 -0.918,2.032 -2.034,2.032l-95.363,0c-1.115,0 -2.031,-0.917 -2.031,-2.032c0,-1.115 0.916,-2.032 2.031,-2.032Z" style="fill:#bbc0d6;fill-rule:nonzero;"/><path id="Shape-948" d="M213.205,129.891l117.12,0c1.115,0 2.032,0.918 2.032,2.032c0,1.115 -0.917,2.032 -2.032,2.032l-117.121,0c-1.114,0 -2.032,-0.917 -2.032,-2.032c0,-1.114 0.918,-2.032 2.032,-2.032Z" style="fill:#8f97b9;fill-rule:nonzero;"/><path id="Shape-949" d="M168.645,166.948l33.349,0c1.115,0 2.032,0.917 2.032,2.032c0,1.115 -0.917,2.032 -2.032,2.032l-33.35,0c-1.115,0 -2.033,-0.917 -2.033,-2.032c0,-1.115 0.918,-2.032 2.033,-2.032Z" style="fill:#e5e8f5;fill-rule:nonzero;"/><path id="Shape-950" d="M175.723,175.359l57.226,0c1.115,0 2.032,0.917 2.032,2.032c0,1.115 -0.917,2.032 -2.032,2.032l-57.227,0c-1.115,0 -2.032,-0.917 -2.032,-2.032l0,-0.001c0,-1.114 0.917,-2.031 2.032,-2.031Z" style="fill:#f9b25f;fill-rule:nonzero;"/><path id="Shape-951" d="M187.732,183.441l95.364,0c1.114,0 2.032,0.918 2.032,2.032c0,1.115 -0.918,2.033 -2.031,2.033l-95.364,0c-1.115,0 -2.032,-0.918 -2.032,-2.033c0,-1.114 0.917,-2.032 2.032,-2.032Z" style="fill:#bbc0d6;fill-rule:nonzero;"/><path id="Shape-952" d="M179.437,190.385l117.12,0c1.115,0 2.032,0.917 2.032,2.032c0,1.115 -0.916,2.032 -2.031,2.032l-117.121,0c-1.114,0 -2.032,-0.917 -2.032,-2.032c0,-1.115 0.918,-2.032 2.032,-2.032Z" style="fill:#bbc0d6;fill-rule:nonzero;"/><path id="Shape-953" d="M192.628,204.035l62.603,0c1.115,0 2.032,0.917 2.032,2.032c0,1.115 -0.917,2.032 -2.032,2.032l-62.604,0c-1.114,0 -2.032,-0.917 -2.032,-2.032c0,-1.115 0.918,-2.032 2.032,-2.032Z" style="fill:#bbc0d6;fill-rule:nonzero;"/><path id="Shape-954" d="M169.616,210.049l53.427,0c1.115,0 2.032,0.917 2.032,2.032c0,1.115 -0.917,2.032 -2.032,2.032l-53.428,0c-1.115,0 -2.032,-0.917 -2.032,-2.031l0,-0.001c0,-1.115 0.917,-2.032 2.032,-2.032Z" style="fill:#f9b25f;fill-rule:nonzero;"/><path id="Shape-955" d="M168.645,225.364l33.349,0c1.115,0 2.032,0.918 2.032,2.032c0,1.115 -0.917,2.032 -2.032,2.032l-33.35,0c-1.115,0 -2.033,-0.917 -2.033,-2.032c0,-1.114 0.918,-2.032 2.033,-2.032Z" style="fill:#e5e8f5;fill-rule:nonzero;"/><path id="Shape-956" d="M243.204,233.775l84.835,0c1.114,0 2.031,0.917 2.031,2.032c0,1.114 -0.916,2.031 -2.031,2.031l-84.836,0c-1.114,0 -2.032,-0.917 -2.032,-2.031c0,-1.115 0.918,-2.032 2.032,-2.032Z" style="fill:#bbc0d6;fill-rule:nonzero;"/><path id="Shape-957" d="M175.723,233.775l57.226,0c1.114,0.001 2.031,0.917 2.031,2.032c0,1.114 -0.917,2.031 -2.032,2.031l-57.226,0c-1.115,0 -2.032,-0.917 -2.032,-2.031c0,-1.115 0.917,-2.032 2.032,-2.032Z" style="fill:#f9b25f;fill-rule:nonzero;"/><path id="Shape-958" d="M187.732,241.858l95.364,0c1.114,0 2.032,0.917 2.032,2.032c0,1.115 -0.918,2.032 -2.031,2.032l-95.364,0c-1.115,0 -2.032,-0.917 -2.032,-2.032c0,-1.115 0.917,-2.032 2.032,-2.032Z" style="fill:#bbc0d6;fill-rule:nonzero;"/><path id="Shape-959" d="M298.551,241.858l56.361,0c1.114,0 2.032,0.917 2.032,2.032c0,1.115 -0.918,2.032 -2.031,2.032l-56.361,0c-1.115,0 -2.032,-0.917 -2.032,-2.032c0,-1.115 0.916,-2.032 2.031,-2.032Z" style="fill:#bbc0d6;fill-rule:nonzero;"/><path id="Shape-960" d="M179.437,248.802l117.12,0c1.115,0 2.032,0.917 2.032,2.032c0,1.115 -0.916,2.032 -2.031,2.032l-117.121,0c-1.114,0 -2.032,-0.917 -2.032,-2.032c0,-1.115 0.918,-2.032 2.032,-2.032Z" style="fill:#bbc0d6;fill-rule:nonzero;"/><path id="Shape-961" d="M308.21,248.802l18.684,0c1.115,0 2.031,0.917 2.031,2.032c0,1.115 -0.916,2.032 -2.031,2.032l-18.685,0c-1.115,0 -2.031,-0.917 -2.031,-2.032c0,-1.115 0.916,-2.032 2.031,-2.032Z" style="fill:#8f97b9;fill-rule:nonzero;"/><path id="Shape-962" d="M168.645,261.831l33.349,0c1.115,0 2.032,0.917 2.032,2.032c0,1.114 -0.917,2.032 -2.032,2.032l-33.35,0c-1.115,0 -2.033,-0.918 -2.033,-2.032c0,-1.115 0.918,-2.032 2.033,-2.032Z" style="fill:#e5e8f5;fill-rule:nonzero;"/><path id="Shape-963" d="M243.204,270.241l84.835,0c1.114,0 2.032,0.917 2.032,2.032c0,1.115 -0.918,2.032 -2.031,2.032l-84.837,0c-1.115,0 -2.032,-0.917 -2.032,-2.032c0,-1.115 0.917,-2.032 2.032,-2.032Z" style="fill:#bbc0d6;fill-rule:nonzero;"/><path id="Shape-964" d="M175.723,270.241l57.226,0c1.115,0 2.032,0.917 2.032,2.032c0,1.115 -0.917,2.032 -2.032,2.032l-57.227,0c-1.115,0 -2.032,-0.917 -2.032,-2.032c0,-1.115 0.917,-2.032 2.032,-2.032Z" style="fill:#f9b25f;fill-rule:nonzero;"/></g></g></g></svg>