<?xml version="1.0" encoding="UTF-8" standalone="no"?><!DOCTYPE svg PUBLIC "-//W3C//DTD SVG 1.1//EN" "http://www.w3.org/Graphics/SVG/1.1/DTD/svg11.dtd"><svg width="100%" height="100%" viewBox="0 0 29 30" version="1.1" xmlns="http://www.w3.org/2000/svg" xmlns:xlink="http://www.w3.org/1999/xlink" xml:space="preserve" xmlns:serif="http://www.serif.com/" style="fill-rule:evenodd;clip-rule:evenodd;stroke-linejoin:round;stroke-miterlimit:2;"><g id="Bug"><path id="Path_3461" d="M7.996,9.81c-0.043,-0.032 -4.298,-3.212 -6.496,-2.621c-0.47,0.122 -0.85,0.467 -1.018,0.923l-0.482,-0.203c0.23,-0.605 0.739,-1.062 1.365,-1.225c2.447,-0.659 6.765,2.571 6.947,2.709l-0.316,0.417Z" style="fill:#37474f;fill-rule:nonzero;"/><path id="Path_3462" d="M14.036,30l-0.65,-0.82l0.823,-0.652c-0.626,-0.818 -1.854,-2.665 -1.688,-4.397c0.077,-0.857 0.523,-1.64 1.22,-2.144l0.636,0.832c-0.464,0.328 -0.762,0.844 -0.813,1.41c-0.175,1.807 1.758,4.01 1.778,4.032l0.366,0.414l-1.672,1.325Z" style="fill:#37474f;fill-rule:nonzero;"/><path id="Path_3463" d="M26.974,19.749l-0.318,-0.453c-0.017,-0.024 -1.72,-2.41 -3.52,-2.652c-0.563,-0.079 -1.132,0.093 -1.558,0.47l-0.664,-0.809c0.65,-0.564 1.513,-0.82 2.366,-0.7c1.724,0.235 3.241,1.852 3.894,2.649l0.823,-0.652l0.65,0.82l-1.673,1.327Z" style="fill:#37474f;fill-rule:nonzero;"/><path id="Path_3464" d="M8.23,28.235l-0.169,-1.033l1.276,-0.209c-0.179,-0.832 -0.26,-1.681 -0.243,-2.531c0.054,-2.315 0.913,-4.202 2.485,-5.456l0.653,0.818c-3.212,2.562 -1.764,7.389 -1.749,7.437l0.177,0.573l-2.43,0.401Z" style="fill:#37474f;fill-rule:nonzero;"/><path id="Path_3465" d="M27.162,14.762l-0.518,-0.307c-0.043,-0.025 -4.412,-2.538 -7.639,0.004l-0.648,-0.823c1.58,-1.243 3.614,-1.649 5.88,-1.172c0.832,0.178 1.64,0.452 2.408,0.815l0.496,-1.194l0.966,0.401l-0.945,2.276Z" style="fill:#37474f;fill-rule:nonzero;"/><path id="Path_3466" d="M7.179,16.882c-0.106,0 -0.213,-0.005 -0.318,-0.016c-1.717,-0.175 -3.228,-1.717 -4.002,-2.662l-0.824,0.653l-0.647,-0.821l0.879,-0.696c0.416,-0.329 1.027,-0.261 1.362,0.15c0.529,0.653 1.915,2.19 3.339,2.335c0.541,0.056 1.08,-0.118 1.488,-0.477l0.664,0.809c-0.54,0.464 -1.229,0.722 -1.941,0.725Z" style="fill:#37474f;fill-rule:nonzero;"/><path id="Path_3467" d="M16.291,10.473l-0.636,-0.832c0.465,-0.328 0.763,-0.845 0.814,-1.412c0.144,-1.504 -1.235,-3.419 -1.778,-4.03l-0.368,-0.413l1.673,-1.326l0.65,0.82l-0.823,0.653c0.626,0.818 1.855,2.665 1.688,4.396c-0.077,0.857 -0.523,1.64 -1.22,2.144Z" style="fill:#37474f;fill-rule:nonzero;"/><path id="Path_3468" d="M9.524,8.431c-0.092,-0.209 -2.249,-5.151 -1.049,-7.382c0.301,-0.572 0.863,-0.964 1.504,-1.049l0.087,0.516c-0.482,0.059 -0.905,0.351 -1.131,0.781c-1.081,2.005 1.045,6.874 1.067,6.923l-0.478,0.211Z" style="fill:#37474f;fill-rule:nonzero;"/><path id="Path_3469" d="M21.609,12.446c3.685,4.651 2.761,8.497 -0.248,10.881c-3.01,2.384 -6.965,2.405 -10.65,-2.246c-3.685,-4.65 -2.834,-11.462 -1.224,-12.738c2.353,-1.864 8.436,-0.547 12.122,4.103Z" style="fill:#ff6369;fill-rule:nonzero;"/><path id="Path_3470" d="M21.361,23.327c-3.01,2.385 -6.965,2.405 -10.65,-2.246c-3.685,-4.65 -2.834,-11.462 -1.224,-12.738c0.372,-0.294 12.245,14.69 11.874,14.984Z" style="fill:#fa535a;fill-rule:nonzero;"/><path id="Path_3471" d="M13.866,6.89c1.355,1.71 -5.332,7.008 -6.687,5.299c-1.355,-1.71 -0.956,-4.283 0.891,-5.746c1.846,-1.463 4.441,-1.264 5.796,0.447Z" style="fill:#37474f;fill-rule:nonzero;"/></g></svg>