<?xml version="1.0" encoding="UTF-8" standalone="no"?><!DOCTYPE svg PUBLIC "-//W3C//DTD SVG 1.1//EN" "http://www.w3.org/Graphics/SVG/1.1/DTD/svg11.dtd"><svg width="100%" height="100%" viewBox="0 0 44 30" version="1.1" xmlns="http://www.w3.org/2000/svg" xmlns:xlink="http://www.w3.org/1999/xlink" xml:space="preserve" xmlns:serif="http://www.serif.com/" style="fill-rule:evenodd;clip-rule:evenodd;stroke-linejoin:round;stroke-miterlimit:2;"><g><path d="M36.825,10.365l-30.006,0c-0.755,0 -1.363,0.611 -1.363,1.364l0,14.188c0,0.567 0.349,1.077 0.883,1.274c4.992,1.874 10.238,2.809 15.483,2.809c5.243,0 10.489,-0.935 15.481,-2.809c0.534,-0.197 0.886,-0.707 0.886,-1.274l0,-14.188c0,-0.753 -0.611,-1.364 -1.364,-1.364Z" style="fill:#607d8c;fill-rule:nonzero;"/><path d="M42.785,8.282l-20.458,-8.184c-0.325,-0.131 -0.687,-0.131 -1.012,0l-20.458,8.184c-0.519,0.207 -0.857,0.709 -0.857,1.268c0,0.556 0.338,1.058 0.857,1.266l20.458,8.183l0.507,0.098l0.505,-0.098l20.458,-8.183c0.521,-0.208 0.86,-0.71 0.86,-1.266c0,-0.559 -0.339,-1.061 -0.86,-1.268Z" style="fill:#455b65;fill-rule:nonzero;"/><path d="M34.097,21.825c-0.755,0 -1.363,-0.611 -1.363,-1.364l0,-5.234l-11.405,-4.406c-0.704,-0.273 -1.053,-1.061 -0.78,-1.765c0.27,-0.701 1.061,-1.05 1.762,-0.78l12.277,4.744c0.527,0.201 0.873,0.709 0.873,1.271l0,6.17c0,0.753 -0.611,1.364 -1.364,1.364Z" style="fill:#fec110;fill-rule:nonzero;"/></g></svg>