<?xml version="1.0" encoding="UTF-8" standalone="no"?><!DOCTYPE svg PUBLIC "-//W3C//DTD SVG 1.1//EN" "http://www.w3.org/Graphics/SVG/1.1/DTD/svg11.dtd"><svg width="100%" height="100%" viewBox="0 0 33 30" version="1.1" xmlns="http://www.w3.org/2000/svg" xmlns:xlink="http://www.w3.org/1999/xlink" xml:space="preserve" xmlns:serif="http://www.serif.com/" style="fill-rule:evenodd;clip-rule:evenodd;stroke-linejoin:round;stroke-miterlimit:2;"><g><path d="M7.5,21.429l-4.286,0c-0.591,0 -1.071,0.477 -1.071,1.071l0,5.357c0,0.591 0.48,1.072 1.071,1.072l4.286,0c0.594,0 1.071,-0.481 1.071,-1.072l0,-5.357c0,-0.594 -0.477,-1.071 -1.071,-1.071Z" style="fill:#70b2e2;fill-rule:nonzero;"/><path d="M18.214,12.857l-4.285,0c-0.592,0 -1.072,0.478 -1.072,1.072l0,13.928c0,0.591 0.48,1.072 1.072,1.072l4.285,0c0.594,0 1.072,-0.481 1.072,-1.072l0,-13.928c0,-0.594 -0.478,-1.072 -1.072,-1.072Z" style="fill:#468fcc;fill-rule:nonzero;"/><path d="M28.929,4.286l-4.286,0c-0.592,0 -1.072,0.477 -1.072,1.071l0,22.5c0,0.591 0.48,1.072 1.072,1.072l4.286,0c0.593,0 1.071,-0.481 1.071,-1.072l0,-22.5c0,-0.594 -0.478,-1.071 -1.071,-1.071Z" style="fill:#3c83c4;fill-rule:nonzero;"/><path d="M20.357,0l-6.428,0c-0.592,0 -1.072,0.478 -1.072,1.071c0,0.592 0.48,1.072 1.072,1.072l3.842,0l-13.17,13.17c-0.418,0.418 -0.418,1.095 0,1.515c0.21,0.208 0.482,0.313 0.756,0.313c0.274,0 0.549,-0.105 0.759,-0.313l13.17,-13.17l0,3.842c0,0.591 0.48,1.071 1.071,1.071c0.594,0 1.072,-0.48 1.072,-1.071l0,-6.429c0,-0.593 -0.478,-1.071 -1.072,-1.071Z" style="fill:#fec110;fill-rule:nonzero;"/><path d="M31.071,30l-30,0c-0.591,0 -1.071,-0.48 -1.071,-1.071c0,-0.594 0.48,-1.072 1.071,-1.072l30,0c0.594,0 1.072,0.478 1.072,1.072c0,0.591 -0.478,1.071 -1.072,1.071Z" style="fill:#455b65;fill-rule:nonzero;"/></g></svg>