<?xml version="1.0" encoding="UTF-8" standalone="no"?><!DOCTYPE svg PUBLIC "-//W3C//DTD SVG 1.1//EN" "http://www.w3.org/Graphics/SVG/1.1/DTD/svg11.dtd"><svg width="100%" height="100%" viewBox="0 0 906 249" version="1.1" xmlns="http://www.w3.org/2000/svg" xmlns:xlink="http://www.w3.org/1999/xlink" xml:space="preserve" xmlns:serif="http://www.serif.com/" style="fill-rule:evenodd;clip-rule:evenodd;stroke-linejoin:round;stroke-miterlimit:2;"><g id="Illustraton-13"><path id="Shape-683" d="M18,0l672.6,0c9.874,0 18,8.126 18,18l0,231l-708.6,0l0,-231c0,-9.874 8.124,-17.999 18,-18Z" style="fill:#1b5179;fill-rule:nonzero;"/><g id="Code-4"><path id="Shape-1042" d="M99.328,86.761l123,0c2.19,0 3.992,1.803 3.992,3.993c0,2.19 -1.802,3.992 -3.992,3.992l-123,0c-2.191,0 -3.993,-1.802 -3.993,-3.992c0,-2.19 1.802,-3.993 3.993,-3.993Z" style="fill:#bbc0d6;fill-rule:nonzero;"/><path id="Shape-1043" d="M33.502,86.761l0.008,0c2.19,0 3.992,1.803 3.992,3.993c0,2.19 -1.802,3.992 -3.992,3.992c-0.002,0.001 -0.003,0.001 -0.004,0.001c-2.191,0 -3.993,-1.803 -3.993,-3.993c0,-2.189 1.8,-3.99 3.989,-3.993Z" style="fill:#e5e8f5;fill-rule:nonzero;"/><path id="Shape-1044" d="M33.502,97.69l0.008,0c2.19,0 3.992,1.803 3.992,3.993c0,2.19 -1.802,3.992 -3.992,3.992c-0.002,0.001 -0.003,0.001 -0.004,0.001c-2.191,0 -3.993,-1.803 -3.993,-3.993c0,-2.189 1.8,-3.99 3.989,-3.993Z" style="fill:#e5e8f5;fill-rule:nonzero;"/><path id="Shape-1045" d="M33.502,128.396l0.008,0c2.19,0 3.992,1.803 3.992,3.993c0,2.19 -1.802,3.992 -3.992,3.992c-0.002,0.001 -0.003,0.001 -0.004,0.001c-2.191,0 -3.993,-1.803 -3.993,-3.993c0,-2.189 1.8,-3.99 3.989,-3.993Z" style="fill:#e5e8f5;fill-rule:nonzero;"/><path id="Shape-1046" d="M33.502,144.778l0.008,0c2.19,0 3.992,1.803 3.992,3.993c0,2.19 -1.802,3.992 -3.992,3.993c-0.002,0 -0.003,0 -0.004,0c-2.191,0 -3.993,-1.803 -3.993,-3.993c0,-2.189 1.8,-3.99 3.989,-3.993Z" style="fill:#e5e8f5;fill-rule:nonzero;"/><path id="Shape-1047" d="M33.502,161.02l0.008,0c2.19,0 3.992,1.803 3.992,3.993c0,2.19 -1.802,3.992 -3.992,3.992c-0.002,0.001 -0.003,0.001 -0.004,0.001c-2.191,0 -3.993,-1.803 -3.993,-3.993c0,-2.189 1.8,-3.99 3.989,-3.993Z" style="fill:#e5e8f5;fill-rule:nonzero;"/><path id="Shape-1048" d="M33.502,173.515l0.008,0c2.19,0 3.992,1.803 3.992,3.993c0,2.19 -1.802,3.992 -3.992,3.992c-0.002,0.001 -0.003,0.001 -0.004,0.001c-2.191,0 -3.993,-1.803 -3.993,-3.993c0,-2.189 1.8,-3.99 3.989,-3.993Z" style="fill:#e5e8f5;fill-rule:nonzero;"/><path id="Shape-1049" d="M33.502,200.169l0.008,0c2.19,0 3.992,1.803 3.992,3.993c0,2.19 -1.802,3.992 -3.992,3.992c-0.002,0.001 -0.003,0.001 -0.004,0.001c-2.191,0 -3.993,-1.803 -3.993,-3.993c0,-2.189 1.8,-3.99 3.989,-3.993Z" style="fill:#e5e8f5;fill-rule:nonzero;"/><path id="Shape-1050" d="M33.502,216.273l0.008,0c2.19,0 3.992,1.803 3.992,3.993c0,2.19 -1.802,3.992 -3.992,3.993c-0.002,0 -0.003,0 -0.004,0c-2.191,0 -3.993,-1.803 -3.993,-3.993c0,-2.189 1.8,-3.99 3.989,-3.993Z" style="fill:#e5e8f5;fill-rule:nonzero;"/><path id="Shape-1051" d="M33.502,232.244l0.008,0c2.19,0 3.992,1.803 3.992,3.993c0,2.19 -1.802,3.992 -3.992,3.993c-0.002,0 -0.003,0 -0.004,0c-2.191,0 -3.993,-1.803 -3.993,-3.993c0,-2.189 1.8,-3.99 3.989,-3.993Z" style="fill:#e5e8f5;fill-rule:nonzero;"/><path id="Shape-1061" d="M54.115,98.577l104.97,0c2.19,0 3.992,1.803 3.992,3.993c0,2.19 -1.802,3.992 -3.992,3.992l-104.97,0c-2.19,0 -3.992,-1.802 -3.992,-3.992c0,0 0,0 0,-0.001c0,-2.189 1.802,-3.992 3.992,-3.992Z" style="fill:#f9b25f;fill-rule:nonzero;"/><path id="Shape-1062" d="M173.317,98.577l182.816,0c2.19,0 3.992,1.803 3.992,3.993c0,2.19 -1.802,3.992 -3.992,3.992l-182.816,0c-2.191,0 -3.993,-1.802 -3.993,-3.992c0,-2.19 1.802,-3.993 3.993,-3.993Z" style="fill:#bbc0d6;fill-rule:nonzero;"/><path id="Shape-1063" d="M52.208,128.667l65.522,0c2.19,0 3.992,1.803 3.992,3.993c0,2.19 -1.802,3.992 -3.992,3.993l-65.522,0c-2.191,0 -3.993,-1.803 -3.993,-3.993c0,-2.19 1.802,-3.993 3.993,-3.993Z" style="fill:#e5e8f5;fill-rule:nonzero;"/><path id="Shape-1064" d="M66.114,145.192l112.434,-0.001c2.19,0 3.992,1.803 3.992,3.993c0,2.19 -1.802,3.992 -3.992,3.993l-112.434,0c-2.191,0 -3.993,-1.803 -3.993,-3.993c0,-2.19 1.802,-3.993 3.993,-3.993Z" style="fill:#f9b25f;fill-rule:nonzero;"/><path id="Shape-1065" d="M89.711,161.073l187.36,-0.001c2.19,0 3.992,1.803 3.992,3.993c0,2.19 -1.802,3.993 -3.992,3.993l-187.36,0c-2.191,0 -3.993,-1.803 -3.993,-3.993c0,-2.19 1.802,-3.993 3.993,-3.993Z" style="fill:#bbc0d6;fill-rule:nonzero;"/><path id="Shape-1066" d="M307.436,161.073l110.731,-0.001c2.19,0 3.992,1.803 3.992,3.993c0,2.19 -1.802,3.993 -3.992,3.993l-110.731,0c-2.191,0 -3.993,-1.803 -3.993,-3.993c0,-2.19 1.802,-3.993 3.993,-3.993Z" style="fill:#bbc0d6;fill-rule:nonzero;"/><path id="Shape-1067" d="M73.412,174.714l230.108,0c2.19,0 3.992,1.803 3.992,3.993c0,2.19 -1.802,3.993 -3.992,3.993l-230.108,0c-2.191,0 -3.993,-1.803 -3.993,-3.993c0,-2.19 1.802,-3.993 3.993,-3.993Z" style="fill:#bbc0d6;fill-rule:nonzero;"/><path id="Shape-1068" d="M326.411,174.714l36.708,0c2.19,0 3.992,1.803 3.992,3.993c0,2.19 -1.802,3.993 -3.992,3.993l-36.708,0c-2.191,0 -3.993,-1.803 -3.993,-3.993c0,-2.19 1.802,-3.993 3.993,-3.993Z" style="fill:#bbc0d6;fill-rule:nonzero;"/><path id="Shape-1069" d="M257.533,86.761l123,0c2.19,0 3.992,1.803 3.992,3.993c0,2.19 -1.802,3.992 -3.992,3.992l-123,0c-2.191,0 -3.993,-1.802 -3.993,-3.992c0,-2.19 1.802,-3.993 3.993,-3.993Z" style="fill:#bbc0d6;fill-rule:nonzero;"/><path id="Shape-1070" d="M376.904,98.577l104.97,0c2.19,0 3.992,1.803 3.992,3.993c0,2.19 -1.802,3.992 -3.992,3.992l-104.97,0c-2.19,0 -3.992,-1.802 -3.992,-3.992c0,0 0,0 0,-0.001c0,-2.189 1.802,-3.992 3.992,-3.992Z" style="fill:#bbc0d6;fill-rule:nonzero;"/><path id="Shape-1071" d="M492.279,126.645l182.816,0c2.19,0 3.992,1.803 3.992,3.993c0,2.19 -1.802,3.992 -3.992,3.992l-182.816,0c-2.191,0 -3.993,-1.802 -3.993,-3.992c0,-2.19 1.802,-3.993 3.993,-3.993Z" style="fill:#bbc0d6;fill-rule:nonzero;"/><path id="Shape-1072" d="M403.065,128.667l65.522,0c2.19,0 3.992,1.803 3.992,3.993c0,2.19 -1.802,3.992 -3.992,3.993l-65.522,0c-2.191,0 -3.993,-1.803 -3.993,-3.993c0,-2.19 1.802,-3.993 3.993,-3.993Z" style="fill:#bbc0d6;fill-rule:nonzero;"/><path id="Shape-1073" d="M387.52,178.363l166.676,0c2.19,0 3.992,1.803 3.992,3.993c0,2.19 -1.802,3.993 -3.992,3.993l-166.676,0c-2.191,0 -3.993,-1.803 -3.993,-3.993c0,-2.19 1.802,-3.993 3.993,-3.993Z" style="fill:#bbc0d6;fill-rule:nonzero;"/><path id="Shape-1074" d="M440.568,161.073l187.36,-0.001c2.19,0 3.992,1.803 3.992,3.993c0,2.19 -1.802,3.993 -3.992,3.993l-187.36,0c-2.191,0 -3.993,-1.803 -3.993,-3.993c0,-2.19 1.802,-3.993 3.993,-3.993Z" style="fill:#bbc0d6;fill-rule:nonzero;"/><path id="Shape-1075" d="M139.756,127.508l230.108,0c2.19,0 3.992,1.803 3.992,3.993c0,2.19 -1.802,3.992 -3.992,3.992l-230.108,0c-2.191,0 -3.993,-1.802 -3.993,-3.992c0,-2.19 1.802,-3.993 3.993,-3.993Z" style="fill:#8f97b9;fill-rule:nonzero;"/><path id="Shape-1076" d="M52.208,200.313l65.522,-0.001c2.19,0 3.992,1.803 3.992,3.993c0,2.19 -1.802,3.993 -3.992,3.993l-65.522,0c-2.191,0 -3.993,-1.803 -3.993,-3.993c0,-2.19 1.802,-3.993 3.993,-3.993Z" style="fill:#e5e8f5;fill-rule:nonzero;"/><path id="Shape-1077" d="M66.114,216.836l112.434,0c2.19,0 3.992,1.803 3.992,3.993c0,2.19 -1.802,3.992 -3.992,3.992l-112.434,0c-2.19,0 -3.992,-1.802 -3.992,-3.992c0,0 0,0 0,-0.001c0,-2.189 1.802,-3.992 3.992,-3.992Z" style="fill:#f9b25f;fill-rule:nonzero;"/><path id="Shape-1078" d="M89.711,232.717l187.36,0c2.19,0 3.992,1.803 3.992,3.993c0,2.19 -1.802,3.992 -3.992,3.992l-187.36,0c-2.191,0 -3.993,-1.802 -3.993,-3.992c0,-2.19 1.802,-3.993 3.993,-3.993Z" style="fill:#bbc0d6;fill-rule:nonzero;"/></g><g id="Browser-3"><path id="Shape-684" d="M0.149,44.343l-0.149,-26.976c0,-9.552 8.121,-17.367 18.047,-17.367l672.5,0c9.926,0 18.047,7.815 18.047,17.367l-0.255,26.976l-708.19,0Z" style="fill:#eae9ed;fill-rule:nonzero;"/><circle id="Shape-685" cx="30.787" cy="22.172" r="8.163" style="fill:#fa538d;"/><circle id="Shape-686" cx="62.896" cy="22.172" r="8.163" style="fill:#fab353;"/><circle id="Shape-687" cx="95.004" cy="22.172" r="8.163" style="fill:#9dc925;"/></g><path id="Shape-740" d="M551.905,93.787l340.056,0c7.628,0 13.904,6.277 13.904,13.904l0,141.309l-367.865,0l0,-141.309c0,-7.627 6.277,-13.904 13.905,-13.904Z" style="fill:#22679a;fill-rule:nonzero;"/><g id="Browser-7"><path id="Shape-741" d="M538,120.947l0,-14.194c0.021,-7.288 6.011,-13.278 13.298,-13.3l341.266,0c7.288,0.021 13.279,6.012 13.3,13.3l0,14.194l-367.864,0Z" style="fill:#eae9ed;fill-rule:nonzero;"/><circle id="Shape-742" cx="561.397" cy="108.508" r="4.918" style="fill:#fa538d;"/><circle id="Shape-743" cx="580.74" cy="108.508" r="4.918" style="fill:#fab353;"/><circle id="Shape-744" cx="600.082" cy="108.508" r="4.918" style="fill:#9dc925;"/></g><g id="Code-5"><path id="Shape-1092" d="M596.753,145.785l64.246,0c1.144,0 2.086,0.941 2.086,2.085c0,1.144 -0.942,2.086 -2.086,2.086l-64.246,0c-1.144,0 -2.085,-0.942 -2.085,-2.086c0,-1.144 0.941,-2.085 2.085,-2.085Z" style="fill:#bbc0d6;fill-rule:nonzero;"/><path id="Shape-1093" d="M562.245,145.785c1.075,0 1.96,0.885 1.96,1.96l0,0.251c-0.018,1.063 -0.897,1.927 -1.96,1.927c-1.063,0 -1.942,-0.864 -1.96,-1.927l0,-0.251c0,-1.075 0.885,-1.96 1.96,-1.96Z" style="fill:#e5e8f5;fill-rule:nonzero;"/><path id="Shape-1094" d="M562.245,151.494c1.075,0 1.96,0.885 1.96,1.959l0,0.252c-0.018,1.063 -0.897,1.927 -1.96,1.927c-1.063,0 -1.942,-0.865 -1.96,-1.928l0,-0.251c0,-1.075 0.885,-1.959 1.96,-1.959Z" style="fill:#e5e8f5;fill-rule:nonzero;"/><path id="Shape-1095" d="M562.245,167.532c1.075,0 1.96,0.885 1.96,1.96l0,0.251c-0.018,1.063 -0.897,1.927 -1.96,1.927c-1.063,0 -1.942,-0.864 -1.96,-1.927l0,-0.251c0,-1.075 0.885,-1.96 1.96,-1.96Z" style="fill:#e5e8f5;fill-rule:nonzero;"/><path id="Shape-1096" d="M562.245,176.089c1.075,0 1.96,0.884 1.96,1.959l0,0.252c-0.018,1.063 -0.897,1.927 -1.96,1.927c-1.063,0 -1.942,-0.865 -1.96,-1.928l0,-0.251c0,-1.075 0.885,-1.959 1.96,-1.959Z" style="fill:#e5e8f5;fill-rule:nonzero;"/><path id="Shape-1097" d="M562.245,184.573c1.075,0 1.96,0.885 1.96,1.96l0,0.251c-0.018,1.063 -0.897,1.927 -1.96,1.927c-1.063,0 -1.942,-0.864 -1.96,-1.927l0,-0.251c0,-1.075 0.885,-1.96 1.96,-1.96Z" style="fill:#e5e8f5;fill-rule:nonzero;"/><path id="Shape-1098" d="M562.245,191.099c1.075,0.001 1.96,0.885 1.96,1.96l0,0.252c-0.018,1.062 -0.897,1.927 -1.96,1.927c-1.063,0 -1.942,-0.865 -1.96,-1.928l0,-0.251c0,-1.075 0.885,-1.96 1.96,-1.96Z" style="fill:#e5e8f5;fill-rule:nonzero;"/><path id="Shape-1099" d="M562.245,205.022c1.075,0 1.96,0.885 1.96,1.959l0,0.252c-0.018,1.063 -0.897,1.927 -1.96,1.927c-1.063,0 -1.942,-0.865 -1.96,-1.928l0,-0.251c0,-1.075 0.885,-1.959 1.96,-1.959Z" style="fill:#e5e8f5;fill-rule:nonzero;"/><path id="Shape-1100" d="M562.245,213.433c1.075,0.001 1.96,0.885 1.96,1.96l0,0.252c-0.018,1.062 -0.897,1.927 -1.96,1.927c-1.063,0 -1.942,-0.865 -1.96,-1.928l0,-0.251c0,-1.075 0.885,-1.96 1.96,-1.96Z" style="fill:#e5e8f5;fill-rule:nonzero;"/><path id="Shape-1101" d="M562.245,221.775c1.075,0 1.96,0.885 1.96,1.96l0,0.251c-0.018,1.063 -0.897,1.928 -1.96,1.928c-1.063,0 -1.942,-0.865 -1.96,-1.928l0,-0.251c0,-1.075 0.885,-1.96 1.96,-1.96Z" style="fill:#e5e8f5;fill-rule:nonzero;"/><path id="Shape-1102" d="M562.245,228.242c1.075,0 1.96,0.885 1.96,1.959l0,0.252c-0.018,1.063 -0.897,1.927 -1.96,1.927c-1.063,0 -1.942,-0.865 -1.96,-1.928l0,-0.251c0,-1.075 0.885,-1.959 1.96,-1.959Z" style="fill:#e5e8f5;fill-rule:nonzero;"/><path id="Shape-1103" d="M562.245,242.951c1.075,0.001 1.96,0.885 1.96,1.96l0,0.252c-0.018,1.062 -0.897,1.927 -1.96,1.927c-1.063,0 -1.942,-0.865 -1.96,-1.928l0,-0.251c0,-1.075 0.885,-1.96 1.96,-1.96Z" style="fill:#e5e8f5;fill-rule:nonzero;"/><path id="Shape-1111" d="M573.138,151.957l54.829,0c1.144,0 2.085,0.941 2.085,2.085c0,1.144 -0.941,2.085 -2.085,2.085l-54.829,0c-1.144,0 -2.086,-0.941 -2.086,-2.085c0,-1.144 0.942,-2.085 2.086,-2.085Z" style="fill:#f9b25f;fill-rule:nonzero;"/><path id="Shape-1112" d="M635.4,151.957l95.491,0c1.144,0 2.085,0.941 2.085,2.085c0,1.144 -0.941,2.085 -2.085,2.085l-95.491,0c-1.143,0 -2.085,-0.941 -2.085,-2.085c0,-1.144 0.942,-2.085 2.085,-2.085Z" style="fill:#bbc0d6;fill-rule:nonzero;"/><path id="Shape-1113" d="M572.141,167.674l34.225,0c1.144,0 2.085,0.941 2.085,2.085c0,1.144 -0.941,2.085 -2.085,2.085l-34.225,0c-1.144,0 -2.085,-0.941 -2.085,-2.085c0,-1.144 0.941,-2.085 2.085,-2.085Z" style="fill:#e5e8f5;fill-rule:nonzero;"/><path id="Shape-1114" d="M579.405,176.305l58.727,0c1.144,0 2.085,0.941 2.085,2.085c0,1.144 -0.941,2.086 -2.085,2.086l-58.727,0c-1.144,0 -2.085,-0.942 -2.085,-2.086c0,-1.144 0.941,-2.085 2.085,-2.085Z" style="fill:#f9b25f;fill-rule:nonzero;"/><path id="Shape-1115" d="M591.73,184.6l97.865,0c1.144,0 2.085,0.941 2.085,2.085c0,1.144 -0.941,2.086 -2.085,2.086l-97.865,0c-1.144,0 -2.085,-0.942 -2.085,-2.086c0,-1.144 0.941,-2.085 2.085,-2.085Z" style="fill:#bbc0d6;fill-rule:nonzero;"/><path id="Shape-1116" d="M705.455,184.6l57.838,0c1.144,0 2.086,0.941 2.086,2.085c0,1.144 -0.942,2.086 -2.086,2.086l-57.838,0c-1.144,0 -2.085,-0.942 -2.085,-2.086c0,-1.144 0.941,-2.085 2.085,-2.085Z" style="fill:#bbc0d6;fill-rule:nonzero;"/><path id="Shape-1117" d="M583.217,191.726l120.191,0c1.144,0 2.085,0.941 2.085,2.085c0,1.144 -0.941,2.085 -2.085,2.085l-120.191,0c-1.144,0 -2.086,-0.941 -2.086,-2.085c0,-1.144 0.942,-2.085 2.086,-2.085Z" style="fill:#bbc0d6;fill-rule:nonzero;"/><path id="Shape-1118" d="M715.366,191.726l19.173,0c1.144,0 2.085,0.941 2.085,2.085c0,1.144 -0.941,2.085 -2.085,2.085l-19.173,0c-1.144,0 -2.085,-0.941 -2.085,-2.085c0,-1.144 0.941,-2.085 2.085,-2.085Z" style="fill:#bbc0d6;fill-rule:nonzero;"/><path id="Shape-1119" d="M679.389,145.785l64.246,0c1.144,0 2.085,0.941 2.085,2.085c0,1.144 -0.941,2.086 -2.085,2.086l-64.246,0c-1.144,0 -2.085,-0.942 -2.085,-2.086c0,-1.144 0.941,-2.085 2.085,-2.085Z" style="fill:#bbc0d6;fill-rule:nonzero;"/><path id="Shape-1120" d="M741.741,151.957l54.829,0c1.144,0 2.085,0.941 2.085,2.085c0,1.144 -0.941,2.085 -2.085,2.085l-54.829,0c-1.144,0 -2.086,-0.941 -2.086,-2.085c0,-1.144 0.942,-2.085 2.086,-2.085Z" style="fill:#bbc0d6;fill-rule:nonzero;"/><path id="Shape-1121" d="M801.488,166.618l71.886,0c0.861,0 1.57,0.941 1.57,2.085c0,1.144 -0.709,2.086 -1.57,2.086l-71.886,0c-0.861,0 -1.569,-0.942 -1.569,-2.086c0,-1.144 0.708,-2.085 1.569,-2.085Z" style="fill:#bbc0d6;fill-rule:nonzero;"/><path id="Shape-1122" d="M755.405,167.674l34.224,0c1.144,0 2.086,0.941 2.086,2.085c0,1.144 -0.942,2.085 -2.086,2.085l-34.224,0c-1.144,0 -2.085,-0.941 -2.085,-2.085c0,-1.144 0.941,-2.085 2.085,-2.085Z" style="fill:#bbc0d6;fill-rule:nonzero;"/><path id="Shape-1123" d="M747.286,193.632l87.059,0c1.144,0 2.086,0.941 2.086,2.085c0,1.144 -0.942,2.085 -2.086,2.085l-87.059,0c-1.144,0 -2.086,-0.941 -2.086,-2.085c0,-1.144 0.942,-2.085 2.086,-2.085Z" style="fill:#bbc0d6;fill-rule:nonzero;"/><path id="Shape-1124" d="M774.994,184.6l97.864,0c1.144,0 2.086,0.941 2.086,2.085c0,1.144 -0.942,2.086 -2.086,2.086l-97.864,0c-1.144,0 -2.085,-0.942 -2.085,-2.086c0,-1.144 0.941,-2.085 2.085,-2.085Z" style="fill:#bbc0d6;fill-rule:nonzero;"/><path id="Shape-1125" d="M617.87,167.068l120.192,0c1.144,0 2.085,0.942 2.085,2.086c0,1.144 -0.941,2.085 -2.085,2.085l-120.192,0c-1.144,0 -2.085,-0.941 -2.085,-2.085c0,-1.144 0.941,-2.086 2.085,-2.086Z" style="fill:#bbc0d6;fill-rule:nonzero;"/><path id="Shape-1126" d="M572.141,205.096l34.225,0c1.144,0 2.085,0.942 2.085,2.086c0,1.144 -0.941,2.085 -2.085,2.085l-34.225,0c-1.144,0 -2.085,-0.941 -2.085,-2.085c0,-1.144 0.941,-2.086 2.085,-2.086Z" style="fill:#e5e8f5;fill-rule:nonzero;"/><path id="Shape-1127" d="M579.405,213.727l58.727,0c1.144,0 2.085,0.942 2.085,2.086c0,1.144 -0.941,2.085 -2.085,2.085l-58.727,0c-1.144,0 -2.085,-0.941 -2.085,-2.085c0,-1.144 0.941,-2.086 2.085,-2.086Z" style="fill:#f9b25f;fill-rule:nonzero;"/><path id="Shape-1128" d="M591.73,222.022l97.865,0c1.144,0 2.085,0.942 2.085,2.086c0,1.144 -0.941,2.085 -2.085,2.085l-97.865,0c-1.144,0 -2.085,-0.941 -2.085,-2.085c0,-1.144 0.941,-2.086 2.085,-2.086Z" style="fill:#bbc0d6;fill-rule:nonzero;"/><path id="Shape-1129" d="M583.217,229.148l120.191,0c1.144,0 2.085,0.941 2.085,2.085c0,1.144 -0.941,2.086 -2.085,2.086l-120.191,0c-1.144,0 -2.086,-0.942 -2.086,-2.086c0,-1.144 0.942,-2.085 2.086,-2.085Z" style="fill:#bbc0d6;fill-rule:nonzero;"/><path id="Shape-1130" d="M596.753,243.156l64.246,0c1.144,0 2.086,0.941 2.086,2.085c0,1.144 -0.942,2.086 -2.086,2.086l-64.246,0c-1.144,0 -2.085,-0.942 -2.085,-2.086c0,-1.144 0.941,-2.085 2.085,-2.085Z" style="fill:#bbc0d6;fill-rule:nonzero;"/></g></g></svg>