<?xml version="1.0" encoding="UTF-8" standalone="no"?><!DOCTYPE svg PUBLIC "-//W3C//DTD SVG 1.1//EN" "http://www.w3.org/Graphics/SVG/1.1/DTD/svg11.dtd"><svg width="100%" height="100%" viewBox="0 0 906 249" version="1.1" xmlns="http://www.w3.org/2000/svg" xmlns:xlink="http://www.w3.org/1999/xlink" xml:space="preserve" xmlns:serif="http://www.serif.com/" style="fill-rule:evenodd;clip-rule:evenodd;stroke-linejoin:round;stroke-miterlimit:2;"><g id="Illustraton-13"><path id="Shape-683" d="M18,0l672.6,0c9.874,0 18,8.126 18,18l0,231l-708.6,0l0,-231c0,-9.874 8.124,-17.999 18,-18Z" style="fill:#1b5179;fill-rule:nonzero;"/><g id="Browser-3"><path id="Shape-684" d="M0.149,44.343l-0.149,-26.976c0,-9.552 8.121,-17.367 18.047,-17.367l672.5,0c9.926,0 18.047,7.815 18.047,17.367l-0.255,26.976l-708.19,0Z" style="fill:#eae9ed;fill-rule:nonzero;"/><circle id="Shape-685" cx="30.787" cy="22.172" r="8.163" style="fill:#fa538d;"/><circle id="Shape-686" cx="62.896" cy="22.172" r="8.163" style="fill:#fab353;"/><circle id="Shape-687" cx="95.004" cy="22.172" r="8.163" style="fill:#9dc925;"/><g id="Content-8"><g id="Shape-689"><path id="Path_3380" d="M32.997,91.499l23.385,-12.194l0,5.2c0.002,0.38 -0.102,0.754 -0.3,1.078c-0.242,0.364 -0.58,0.655 -0.975,0.841l-10.718,5.491c-0.461,0.24 -0.94,0.442 -1.432,0.605c-0.503,0.167 -1.039,0.32 -1.609,0.459c0.57,0.137 1.107,0.29 1.609,0.457c0.492,0.163 0.971,0.366 1.432,0.605l10.718,5.521c0.395,0.186 0.732,0.477 0.975,0.841c0.198,0.325 0.302,0.698 0.3,1.078l0,5.2l-23.385,-12.229l0,-2.953Z" style="fill:#f9b25f;fill-rule:nonzero;"/><path id="Path_3381" d="M69.579,112.963c-0.163,0.427 -0.392,0.826 -0.679,1.182c-0.269,0.328 -0.588,0.612 -0.945,0.841c-0.349,0.224 -0.726,0.398 -1.122,0.517c-0.373,0.115 -0.761,0.175 -1.151,0.177l-3.071,0l17.243,-44.111c0.286,-0.761 0.789,-1.422 1.447,-1.9c0.668,-0.455 1.464,-0.688 2.273,-0.665l3.1,0l-17.095,43.959Z" style="fill:#f9b25f;fill-rule:nonzero;"/><path id="Path_3382" d="M92.755,106.678l0,-5.2c-0.004,-0.38 0.098,-0.753 0.295,-1.078c0.242,-0.364 0.579,-0.655 0.975,-0.841l10.718,-5.521c0.969,-0.469 1.989,-0.826 3.041,-1.062c-0.572,-0.137 -1.108,-0.29 -1.61,-0.459c-0.493,-0.163 -0.971,-0.365 -1.431,-0.605l-10.718,-5.491c-0.396,-0.186 -0.734,-0.477 -0.975,-0.841c-0.197,-0.325 -0.3,-0.698 -0.295,-1.078l0,-5.2l23.384,12.194l0,2.952l-23.384,12.23Z" style="fill:#f9b25f;fill-rule:nonzero;"/></g><path id="Shape-690" d="M119.303,128.427l142.814,0c2.517,0.037 4.567,2.118 4.567,4.636c0,2.517 -2.05,4.598 -4.567,4.635l-142.814,0c-2.518,-0.037 -4.568,-2.118 -4.568,-4.635c0,-2.518 2.05,-4.599 4.568,-4.636Z" style="fill:#bbc0d6;fill-rule:nonzero;"/><path id="Shape-691" d="M42.592,128.427c2.389,0 4.356,1.966 4.356,4.356l0,0.559c0,2.39 -1.967,4.356 -4.356,4.356c-2.39,0 -4.356,-1.966 -4.356,-4.356l0,-0.559c0,-2.39 1.966,-4.356 4.356,-4.356Z" style="fill:#e5e8f5;fill-rule:nonzero;"/><path id="Shape-692" d="M42.592,141.117c2.389,0 4.356,1.966 4.356,4.356l0,0.559c0,2.39 -1.967,4.356 -4.356,4.356c-2.39,0 -4.356,-1.966 -4.356,-4.356l0,-0.559c0,-2.39 1.966,-4.356 4.356,-4.356Z" style="fill:#e5e8f5;fill-rule:nonzero;"/><path id="Shape-693" d="M42.592,176.77c2.389,0 4.356,1.966 4.356,4.356l0,0.559c0,2.39 -1.967,4.356 -4.356,4.356c-2.39,0 -4.356,-1.966 -4.356,-4.356l0,-0.559c0,-2.39 1.966,-4.356 4.356,-4.356Z" style="fill:#e5e8f5;fill-rule:nonzero;"/><path id="Shape-694" d="M42.592,195.791c2.389,0 4.356,1.966 4.356,4.356l0,0.559c0,2.39 -1.967,4.356 -4.356,4.356c-2.39,0 -4.356,-1.966 -4.356,-4.356l0,-0.559c0,-2.39 1.966,-4.356 4.356,-4.356Z" style="fill:#e5e8f5;fill-rule:nonzero;"/><path id="Shape-695" d="M42.592,214.651c2.389,0 4.356,1.966 4.356,4.356l0,0.559c0,2.39 -1.967,4.356 -4.356,4.356c-2.39,0 -4.356,-1.966 -4.356,-4.356l0,-0.559c0,-2.39 1.966,-4.356 4.356,-4.356Z" style="fill:#e5e8f5;fill-rule:nonzero;"/><path id="Shape-696" d="M42.592,229.158c2.389,0 4.356,1.966 4.356,4.356l0,0.559c0,2.39 -1.967,4.356 -4.356,4.356c-2.39,0 -4.356,-1.966 -4.356,-4.356l0,-0.559c0,-2.39 1.966,-4.356 4.356,-4.356Z" style="fill:#e5e8f5;fill-rule:nonzero;"/><path id="Shape-703" d="M66.807,142.146l121.882,0c2.517,0.037 4.567,2.118 4.567,4.636c0,2.517 -2.05,4.598 -4.567,4.635l-121.882,0c-2.518,-0.037 -4.568,-2.118 -4.568,-4.635c0,-2.518 2.05,-4.599 4.568,-4.636Z" style="fill:#bbc0d6;fill-rule:nonzero;"/><path id="Shape-704" d="M205.214,142.146l212.27,0c2.517,0.037 4.567,2.118 4.567,4.636c0,2.517 -2.05,4.598 -4.567,4.635l-212.27,0c-2.518,-0.037 -4.568,-2.118 -4.568,-4.635c0,-2.518 2.05,-4.599 4.568,-4.636Z" style="fill:#bbc0d6;fill-rule:nonzero;"/><path id="Shape-705" d="M64.592,177.085l76.078,0c2.517,0.037 4.567,2.118 4.567,4.636c0,2.517 -2.05,4.598 -4.567,4.635l-76.078,0c-2.518,-0.037 -4.568,-2.118 -4.568,-4.635c0,-2.518 2.05,-4.599 4.568,-4.636Z" style="fill:#f9b25f;fill-rule:nonzero;"/><path id="Shape-706" d="M80.738,196.271l130.548,0c2.517,0.037 4.567,2.118 4.567,4.636c0,2.517 -2.05,4.598 -4.567,4.635l-130.548,0c-2.518,-0.037 -4.568,-2.118 -4.568,-4.635c0,-2.518 2.05,-4.599 4.568,-4.636Z" style="fill:#bbc0d6;fill-rule:nonzero;"/><path id="Shape-707" d="M108.137,214.711l217.547,0c2.517,0.037 4.567,2.118 4.567,4.636c0,2.517 -2.05,4.598 -4.567,4.635l-217.547,0c-2.518,-0.037 -4.568,-2.118 -4.568,-4.635c0,-2.518 2.05,-4.599 4.568,-4.636Z" style="fill:#bbc0d6;fill-rule:nonzero;"/><path id="Shape-708" d="M360.941,214.711l128.571,0c2.517,0.037 4.567,2.118 4.567,4.636c0,2.517 -2.05,4.598 -4.567,4.635l-128.571,0c-2.518,-0.037 -4.568,-2.118 -4.568,-4.635c0,-2.518 2.05,-4.599 4.568,-4.636Z" style="fill:#bbc0d6;fill-rule:nonzero;"/><path id="Shape-709" d="M89.212,230.55l267.18,0c2.517,0.037 4.567,2.118 4.567,4.636c0,2.517 -2.05,4.598 -4.567,4.635l-267.181,0c-2.517,-0.037 -4.567,-2.118 -4.567,-4.635c0,-2.518 2.05,-4.599 4.567,-4.636l0.001,0Z" style="fill:#bbc0d6;fill-rule:nonzero;"/><path id="Shape-710" d="M382.974,230.55l42.62,0c2.518,0.037 4.568,2.118 4.568,4.636c0,2.517 -2.05,4.598 -4.567,4.635l-42.621,0c-2.518,-0.037 -4.568,-2.118 -4.568,-4.635c0,-2.518 2.05,-4.599 4.567,-4.636l0.001,0Z" style="fill:#bbc0d6;fill-rule:nonzero;"/><path id="Shape-711" d="M302.997,128.427l142.814,0c2.517,0.037 4.567,2.118 4.567,4.636c0,2.517 -2.05,4.598 -4.567,4.635l-142.815,0c-2.517,-0.037 -4.567,-2.118 -4.567,-4.635c0,-2.518 2.05,-4.599 4.567,-4.636l0.001,0Z" style="fill:#bbc0d6;fill-rule:nonzero;"/><path id="Shape-712" d="M441.602,142.146l121.882,0c2.517,0.037 4.567,2.118 4.567,4.636c0,2.517 -2.05,4.598 -4.567,4.635l-121.882,0c-2.518,-0.037 -4.568,-2.118 -4.568,-4.635c0,-2.518 2.05,-4.599 4.568,-4.636Z" style="fill:#bbc0d6;fill-rule:nonzero;"/><path id="Shape-713" d="M471.978,177.085l76.077,0c2.518,0.037 4.568,2.118 4.568,4.636c0,2.517 -2.05,4.598 -4.567,4.635l-76.079,0c-2.517,-0.037 -4.567,-2.118 -4.567,-4.635c0,-2.518 2.05,-4.599 4.567,-4.636l0.001,0Z" style="fill:#bbc0d6;fill-rule:nonzero;"/><path id="Shape-714" d="M453.928,234.788l193.529,0c2.517,0.037 4.567,2.118 4.567,4.636c0,2.517 -2.05,4.598 -4.567,4.635l-193.529,0c-2.518,-0.037 -4.568,-2.118 -4.568,-4.635c0,-2.518 2.05,-4.599 4.567,-4.636l0.001,0Z" style="fill:#bbc0d6;fill-rule:nonzero;"/><path id="Shape-715" d="M166.245,175.738l267.18,0c2.517,0.037 4.567,2.118 4.567,4.636c0,2.517 -2.05,4.598 -4.567,4.635l-267.18,0c-2.518,-0.037 -4.568,-2.118 -4.568,-4.635c0,-2.518 2.05,-4.599 4.568,-4.636Z" style="fill:#bbc0d6;fill-rule:nonzero;"/></g></g><path id="Shape-740" d="M551.905,93.787l340.056,0c7.628,0 13.904,6.277 13.904,13.904l0,141.309l-367.865,0l0,-141.309c0,-7.627 6.277,-13.904 13.905,-13.904Z" style="fill:#246ca1;fill-rule:nonzero;"/><g id="Browser-7"><path id="Shape-741" d="M538,120.947l0,-14.194c0.021,-7.288 6.011,-13.278 13.298,-13.3l341.266,0c7.288,0.021 13.279,6.012 13.3,13.3l0,14.194l-367.864,0Z" style="fill:#eae9ed;fill-rule:nonzero;"/><circle id="Shape-742" cx="561.397" cy="108.508" r="4.918" style="fill:#fa538d;"/><circle id="Shape-743" cx="580.74" cy="108.508" r="4.918" style="fill:#fab353;"/><circle id="Shape-744" cx="600.082" cy="108.508" r="4.918" style="fill:#9dc925;"/><g id="Group_5020"></g></g><path id="Path_3399" d="M666.711,249c-1.404,-3.134 -2.2,-6.368 -2.2,-9.673l0,-68.32c33.195,8.952 57.417,-7.509 57.417,-7.509c0,0 20.975,16.728 57.415,7.509l0,68.322c0.001,3.304 -0.793,6.537 -2.195,9.671l-110.437,0Z" style="fill:#f9b25f;fill-rule:nonzero;"/></g></svg>