<?xml version="1.0" encoding="UTF-8" standalone="no"?><!DOCTYPE svg PUBLIC "-//W3C//DTD SVG 1.1//EN" "http://www.w3.org/Graphics/SVG/1.1/DTD/svg11.dtd"><svg width="100%" height="100%" viewBox="0 0 20 15" version="1.1" xmlns="http://www.w3.org/2000/svg" xmlns:xlink="http://www.w3.org/1999/xlink" xml:space="preserve" xmlns:serif="http://www.serif.com/" style="fill-rule:evenodd;clip-rule:evenodd;stroke-linejoin:round;stroke-miterlimit:2;"><path id="envelope" d="M16.617,0l-14.133,0c-1.369,0 -2.484,1.127 -2.484,2.513l0,9.618c0,1.386 1.115,2.513 2.484,2.513l14.133,0c1.369,0 2.484,-1.127 2.484,-2.513l0,-9.618c0,-1.386 -1.115,-2.513 -2.484,-2.513Zm-6.999,7.142l-5.83,-5.235l11.66,0l-5.83,5.235Zm6.999,5.595l-14.133,0c-0.33,0 -0.599,-0.272 -0.599,-0.606l0,-9.382l7.04,6.32c0.179,0.161 0.403,0.241 0.625,0.241c0.023,0 0.046,-0.006 0.068,-0.007c0.023,0.001 0.045,0.007 0.068,0.007c0.223,0 0.446,-0.08 0.626,-0.241l6.903,-6.198l0,9.26c0,0.334 -0.268,0.606 -0.598,0.606Z" style="fill:#ec8c38;fill-rule:nonzero;"/></svg>