<?xml version="1.0" encoding="UTF-8" standalone="no"?><!DOCTYPE svg PUBLIC "-//W3C//DTD SVG 1.1//EN" "http://www.w3.org/Graphics/SVG/1.1/DTD/svg11.dtd"><svg width="100%" height="100%" viewBox="0 0 52 51" version="1.1" xmlns="http://www.w3.org/2000/svg" xmlns:xlink="http://www.w3.org/1999/xlink" xml:space="preserve" xmlns:serif="http://www.serif.com/" style="fill-rule:evenodd;clip-rule:evenodd;stroke-linejoin:round;stroke-miterlimit:2;"><g><path d="M9.564,0c-3.516,0 -6.375,2.859 -6.375,6.375c0,3.516 2.859,6.375 6.375,6.375c3.513,0 6.375,-2.859 6.375,-6.375c0,-3.516 -2.862,-6.375 -6.375,-6.375Z" style="fill:#90a4ae;fill-rule:nonzero;"/><path d="M41.439,12.75c3.513,0 6.375,-2.859 6.375,-6.375c0,-3.516 -2.862,-6.375 -6.375,-6.375c-3.516,0 -6.375,2.859 -6.375,6.375c0,3.516 2.859,6.375 6.375,6.375Z" style="fill:#90a4ae;fill-rule:nonzero;"/><path d="M25.501,12.75c3.513,0 6.375,-2.859 6.375,-6.375c0,-3.516 -2.862,-6.375 -6.375,-6.375c-3.515,0 -6.375,2.859 -6.375,6.375c0,3.516 2.86,6.375 6.375,6.375Z" style="fill:#455b65;fill-rule:nonzero;"/><path d="M30.433,15.938l-9.866,-0.001c-1.645,0 -3.009,1.234 -3.171,2.869l-1.451,14.503c-0.044,0.447 0.102,0.893 0.405,1.228c0.303,0.334 0.73,0.526 1.183,0.526l1.743,-0.001l1.307,13.066c0.163,1.635 1.527,2.872 3.172,2.872l3.49,0c1.645,0 3.009,-1.237 3.172,-2.872l1.307,-13.066l1.746,0c0.45,0 0.88,-0.191 1.183,-0.525c0.299,-0.335 0.446,-0.781 0.401,-1.228l-1.45,-14.503c-0.162,-1.635 -1.527,-2.869 -3.171,-2.869Z" style="fill:#455b65;fill-rule:nonzero;"/><path d="M12.774,32.987l1.45,-14.5c0.089,-0.902 0.418,-1.705 0.835,-2.444c-0.188,-0.035 -0.363,-0.106 -0.564,-0.106l-9.865,0c-1.645,0 -3.009,1.234 -3.172,2.869l-1.45,14.503c-0.045,0.447 0.102,0.893 0.405,1.228c0.302,0.334 0.73,0.525 1.182,0.525l1.744,0l1.307,9.879c0.162,1.635 1.526,2.871 3.171,2.871l3.491,0c1.644,0 3.009,-1.236 3.171,-2.871l0.956,-7.223c-0.535,-0.265 -1.039,-0.59 -1.447,-1.039c-0.908,-1.014 -1.348,-2.353 -1.214,-3.692Z" style="fill:#90a4ae;fill-rule:nonzero;"/><path d="M49.542,18.806c-0.163,-1.635 -1.527,-2.869 -3.169,-2.869l-9.868,0c-0.198,0 -0.376,0.071 -0.564,0.106c0.417,0.742 0.742,1.542 0.835,2.448l1.45,14.5c0.137,1.326 -0.3,2.671 -1.202,3.675c-0.414,0.456 -0.921,0.787 -1.46,1.052l0.957,7.223c0.162,1.635 1.526,2.872 3.171,2.872l3.491,0c1.644,0 3.009,-1.237 3.171,-2.872l1.307,-9.878l1.747,0c0.449,0 0.879,-0.192 1.182,-0.526c0.303,-0.335 0.45,-0.781 0.402,-1.228l-1.45,-14.503Z" style="fill:#90a4ae;fill-rule:nonzero;"/></g></svg>