<?xml version="1.0" encoding="UTF-8" standalone="no"?><!DOCTYPE svg PUBLIC "-//W3C//DTD SVG 1.1//EN" "http://www.w3.org/Graphics/SVG/1.1/DTD/svg11.dtd"><svg width="100%" height="100%" viewBox="0 0 570 449" version="1.1" xmlns="http://www.w3.org/2000/svg" xmlns:xlink="http://www.w3.org/1999/xlink" xml:space="preserve" xmlns:serif="http://www.serif.com/" style="fill-rule:evenodd;clip-rule:evenodd;stroke-linejoin:round;stroke-miterlimit:2;"><g id="Illustration-8"><path id="Background-33" d="M570,218.308c0,114.29 -142.5,106.685 -285,206.942c-126.494,88.998 -285,-92.651 -285,-206.942c0,-114.291 127.599,-206.942 285,-206.942c157.401,0 285,92.651 285,206.942Z" style="fill:#f2f5f8;fill-opacity:0.3;fill-rule:nonzero;"/><g id="Board-3"><g id="Shape-3140"><path id="Path_249" d="M254.395,214.642l-56.934,212.478l-18.101,-0.023l58.172,-216.974l16.863,4.519Z" style="fill:#f9b25f;fill-rule:nonzero;"/><path id="Path_250" d="M245.882,214.642l56.933,212.478l18.101,-0.023l-58.174,-216.974l-16.86,4.519Z" style="fill:#f9b25f;fill-rule:nonzero;"/><path id="Rectangle_116" d="M242.776,0l0,228.441l14.724,0l0,-228.441l-14.724,0Z" style="fill:#1b5179;"/></g><rect id="Shape-3141" x="148.036" y="28.957" width="209.93" height="249.895" style="fill:#e5e8f5;fill-rule:nonzero;"/><rect id="Shape-3142" x="145.173" y="25.378" width="209.93" height="249.895" style="fill:#fff;fill-rule:nonzero;"/><rect id="Shape-3143" x="135.918" y="17.385" width="228.441" height="14.724" style="fill:#1b5179;"/><rect id="Shape-3144" x="176.984" y="422.925" width="23.307" height="4.204" style="fill:#d8984d;fill-rule:nonzero;"/><rect id="Shape-3145" x="299.134" y="422.925" width="23.307" height="4.204" style="fill:#d8984d;fill-rule:nonzero;"/></g><g id="Person-27"><ellipse id="Shape-3155" cx="390.262" cy="425.678" rx="47.853" ry="12.907" style="fill:#eaeff4;fill-opacity:0.3;"/><path id="Shape-3156" d="M408.417,160.227c-10.014,-2.541 -21.612,-9.169 -25.322,-21.904c-1.933,-6.634 1.529,-18.406 1.529,-24.698c0,-3.164 -2.211,-8.757 -0.25,-12.088c2.533,-4.308 8.086,-4.432 8.091,-4.443c4.125,-8.103 23.189,-5.115 26.208,6.193c2.141,8.02 16.445,0.855 20.002,13.233c4.601,16.008 18.452,28.957 27.851,14.849c0,0 12.385,10.833 2.988,24.941c-1.922,2.885 -15.682,15.477 -30.839,16.041c-11.317,0.419 -23.907,-10.512 -30.258,-12.124Z" style="fill:#37474f;fill-rule:nonzero;"/><rect id="Shape-3157" x="390.078" y="150.01" width="23.789" height="8.265" style="fill:#1b5179;"/><path id="Shape-3158" d="M411.63,171.134l-25.367,-0.33l13.175,-37.683l11.367,-0.514l0.825,38.527Z" style="fill:#ffdfae;fill-rule:nonzero;"/><path id="Shape-3159" d="M318.6,158.206l-5.266,4.047c0,0 34.57,37.108 36.194,37.089c8.583,-0.102 17.874,-11.376 24.47,-18.62c4.021,-4.416 -7.83,-10.996 -7.83,-10.996l-15.788,12.303l-31.78,-23.823Z" style="fill:#ffdfae;fill-rule:nonzero;"/><path id="Shape-3160" d="M482.073,143.149l-28.18,32.331l-21.778,-11.247l1.51,13.685c0,0 12.499,13.99 24.191,15.842c4.461,0.706 29.137,-45.18 29.137,-45.18l-4.88,-5.431Z" style="fill:#ffdfae;fill-rule:nonzero;"/><path id="Shape-3161" d="M397.596,403.789l-4.189,3.222l-11.723,15.708l-6.957,1.35l13.149,-19.597l-7.407,-51.623l-5.153,-64.41l24.878,-0.382l-4.559,59.891l1.961,55.841Z" style="fill:#ffdfae;fill-rule:nonzero;"/><path id="Shape-3162" d="M482.378,302.207l3.429,2.434l17.615,5.654l3.904,6.56l-21.384,-5.547l-60.485,36.446l-28.362,-57.778l23.7,-6.301l13.097,36.37l48.486,-17.838Z" style="fill:#ffdfae;fill-rule:nonzero;"/><path id="Shape-3163" d="M487.505,300.04c0.173,0.253 12.739,-4.847 12.739,-4.847l0.661,1.511c0,0 -11.313,7.325 -11.16,7.656c2.017,4.406 14.198,-0.025 16.515,5.86c0.05,0.127 2.683,6.719 2.666,6.79c-0.44,1.856 -3.835,-0.402 -3.835,-0.402c0,0 -2.432,-3.683 -4.16,-4.34c-5.662,-2.156 -16.767,-3.848 -18.443,-4.642c-2.321,-1.102 -3.415,-4.304 -3.415,-4.304c0,0 6.845,-5.612 8.432,-3.282Z" style="fill:#37474f;fill-rule:nonzero;"/><path id="Shape-3164" d="M425.178,294.818l-49.326,1.031c0,0 -12.979,-51.172 -3.699,-61.165c11.426,-12.305 46.828,-12.479 56.725,1.377c7.89,11.042 -3.7,58.757 -3.7,58.757Z" style="fill:#1b5179;fill-rule:nonzero;"/><path id="Shape-3165" d="M409.115,135.552c0,0 -11.087,3.069 -12.921,7.77c0,0 4.563,8.028 7.819,7.579c3.51,-0.483 6.958,-7.943 7.297,-12.209c-1.563,-2.381 -2.195,-3.14 -2.195,-3.14Z" style="fill:#f4ca92;fill-rule:nonzero;"/><path id="Shape-3166" d="M427.953,234.722l-58.793,-0.394c0,0 15.785,-49.015 10.523,-56.215c-0.365,-0.5 -19.106,17.774 -19.106,17.774c0,0 -7.999,-12.055 -7.932,-15.652c0.043,-2.181 10.311,-14.326 16.254,-18.182c6.775,-4.394 18.329,-7.815 18.329,-7.815l2.852,-4.227c0,0 3.925,3.385 6.609,4.4c0.338,0.127 0.973,-0.066 1.267,0.224c2.852,2.809 3.781,12.383 3.781,12.383c0,0 3.449,-12.375 5.138,-12.8c2.988,-0.751 6.985,-4.21 6.985,-4.21l2.467,4.87c0,0 12.917,2.928 33.32,16.859l-7.099,15.888l-8.809,-6.198l-5.786,53.295Z" style="fill:#f9b25f;fill-rule:nonzero;"/><path id="Shape-3167" d="M416.466,123.324c1.17,4.779 -1.632,4.416 -2.895,9.473c-1.963,7.865 -4.571,13.843 -10.208,13.77c-7.788,-0.097 -13.638,-9.018 -16.723,-23.457c-1.445,-6.764 -0.655,-12.326 1.785,-16.242c2.544,-4.083 -0.253,7.193 10.019,8.648c5.178,0.735 13.134,-4.886 13.057,0.141c-0.195,12.802 3.955,3.539 4.965,7.667Z" style="fill:#ffdfae;fill-rule:nonzero;"/><path id="Shape-3168" d="M490.485,139.22c-0.525,-2.58 -2.077,-1.267 -3.084,-3.438c-0.738,-1.594 3.873,-6.503 3.003,-7.555c-1.234,-1.492 -5.637,6.297 -6.589,7.234c0,0 -1.867,1.884 -2.018,8.047l5.035,5.171c1.431,-1.641 5.111,-2.302 3.653,-9.459Z" style="fill:#ffdfae;fill-rule:nonzero;"/><path id="Shape-3169" d="M310.903,153.378c0.882,-2.346 1.957,0.555 3.221,-1.311c0.928,-1.37 2.284,-1.707 3.03,-0.633c0,0 2.088,1.708 1.301,7.584l-5.086,3.827c-1.086,-1.831 -4.904,-2.956 -2.466,-9.467Z" style="fill:#ffdfae;fill-rule:nonzero;"/><path id="Shape-3170" d="M318.735,173.41l-3.518,0.954l-21.592,-113.137l3.519,-0.954l21.591,113.137Z" style="fill:#d8984d;fill-rule:nonzero;"/><path id="Shape-3171" d="M314.704,158.073c0.595,2.742 -0.265,4.226 -1.484,4.595c-1.219,0.369 -2.479,-1.425 -3.074,-4.166c-0.595,-2.741 0.595,-4.214 1.814,-4.583c1.219,-0.369 2.149,1.415 2.744,4.154Z" style="fill:#ffdfae;fill-rule:nonzero;"/><path id="Shape-3172" d="M313.963,149.617c1.448,-0.204 3.282,1.372 3.358,2.274c0.075,0.903 -1.638,0.79 -3.085,0.992c-1.447,0.202 -2.682,-0.364 -2.757,-1.267c-0.074,-0.903 1.037,-1.796 2.484,-1.999Z" style="fill:#ffdfae;fill-rule:nonzero;"/><path id="Shape-3173" d="M396.877,410.698c-0.275,0.074 -1.138,14.949 -1.138,14.949l-1.507,0.068c0,0 -1.471,-14.49 -1.808,-14.468c-4.43,0.289 -5.684,14.502 -11.45,14.502c-0.125,0 -6.597,0.039 -6.65,-0.007c-1.348,-1.193 1.873,-3.753 1.873,-3.753c0,0 4.002,-1.002 5.237,-2.502c4.046,-4.913 9.899,-15.568 11.225,-16.96c1.836,-1.927 4.908,-1.758 4.908,-1.758c0,0 1.863,9.243 -0.69,9.929Z" style="fill:#37474f;fill-rule:nonzero;"/><path id="Shape-3174" d="M400.592,160.342c0.781,3.151 1.944,2.741 1.843,4.273c-0.182,0.837 -0.413,1.662 -0.694,2.471c-0.014,0.05 -0.826,-1.171 -2.185,-4.602c-1.401,-3.535 -3.198,-6.973 -2.88,-7.999c0.045,-0.147 0.898,-0.089 1.03,-0.028c0.892,0.41 1.779,1.422 2.886,5.885Z" style="fill:#1b5179;fill-rule:nonzero;"/></g><g id="Content-49"><rect id="Shape-388" x="168.773" y="44.218" width="166.454" height="13.757" style="fill:#f2f5f8;fill-rule:nonzero;"/><circle id="Shape-389" cx="174.188" cy="52.115" r="1.757" style="fill:#fa538d;"/><circle id="Shape-390" cx="181.099" cy="52.115" r="1.757" style="fill:#fab353;"/><circle id="Shape-391" cx="188.01" cy="52.115" r="1.757" style="fill:#9dc925;"/><path id="Shape-397" d="M176.372,90.588l38.344,0c0.753,0.014 1.364,0.637 1.364,1.39c0,0.753 -0.611,1.376 -1.364,1.39l-38.344,0c-0.753,-0.014 -1.364,-0.637 -1.364,-1.39c0,-0.753 0.611,-1.376 1.364,-1.39Z" style="fill:#e5e8f5;fill-rule:nonzero;"/><path id="Shape-398" d="M219.575,90.588l59.091,0c0.008,0 0.017,0 0.026,0c0.762,0 1.39,0.627 1.39,1.39c0,0.763 -0.628,1.39 -1.39,1.39c-0.009,0 -0.018,0 -0.026,0l-59.091,0c-0.752,-0.014 -1.364,-0.637 -1.364,-1.39c0,-0.753 0.612,-1.376 1.364,-1.39Z" style="fill:#e5e8f5;fill-rule:nonzero;"/><path id="Shape-399" d="M179.579,69.051l95.906,0c2.508,0 4.571,1.215 4.571,2.692l0,1.771c0,1.477 -2.063,2.692 -4.571,2.692l-95.906,0c-2.508,0 -4.571,-1.215 -4.571,-2.692l0,-1.771c0,-1.477 2.063,-2.692 4.571,-2.692Z" style="fill:#e5e8f5;fill-rule:nonzero;"/><path id="Shape-400" d="M176.372,97.422l92.044,0c0.009,0 0.018,0 0.026,0c0.763,0 1.391,0.628 1.391,1.39c0,0.763 -0.628,1.391 -1.391,1.391c-0.008,0 -0.017,0 -0.026,0l-92.044,0c-0.753,-0.015 -1.364,-0.638 -1.364,-1.391c0,-0.752 0.611,-1.376 1.364,-1.39Z" style="fill:#e5e8f5;fill-rule:nonzero;"/><path id="Shape-401" d="M176.372,104.257l13.69,0c0.009,0 0.017,0 0.026,0c0.763,0 1.39,0.627 1.39,1.39c0,0.763 -0.627,1.39 -1.39,1.39c-0.009,0 -0.017,0 -0.026,0l-13.69,0c-0.753,-0.014 -1.364,-0.637 -1.364,-1.39c0,-0.753 0.611,-1.376 1.364,-1.39Z" style="fill:#e5e8f5;fill-rule:nonzero;"/><path id="Shape-402" d="M196.387,104.257l27.603,0c0.753,0.014 1.365,0.637 1.365,1.39c0,0.753 -0.612,1.376 -1.365,1.39l-27.603,0c-0.753,-0.014 -1.364,-0.637 -1.364,-1.39c0,-0.753 0.611,-1.376 1.364,-1.39Z" style="fill:#e5e8f5;fill-rule:nonzero;"/><path id="Shape-403" d="M176.372,110.359l27.359,0c0.753,0.014 1.364,0.637 1.364,1.39c0,0.753 -0.611,1.376 -1.364,1.39l-27.359,0c-0.753,-0.014 -1.364,-0.637 -1.364,-1.39c0,-0.753 0.611,-1.376 1.364,-1.39Z" style="fill:#e5e8f5;fill-rule:nonzero;"/><path id="Shape-404" d="M210.3,110.359l27.603,0c0.753,0.014 1.365,0.637 1.365,1.39c0,0.753 -0.612,1.376 -1.365,1.39l-27.603,0c-0.753,-0.014 -1.364,-0.637 -1.364,-1.39c0,-0.753 0.611,-1.376 1.364,-1.39Z" style="fill:#e5e8f5;fill-rule:nonzero;"/><path id="Shape-405" d="M229.583,104.257l43.714,0c0.009,0 0.017,0 0.026,0c0.763,0 1.39,0.627 1.39,1.39c0,0.763 -0.627,1.39 -1.39,1.39c-0.009,0 -0.017,0 -0.026,0l-43.714,0c-0.753,-0.014 -1.364,-0.637 -1.364,-1.39c0,-0.753 0.611,-1.376 1.364,-1.39Z" style="fill:#e5e8f5;fill-rule:nonzero;"/><path id="Shape-406" d="M176.372,179.924l38.344,0c0.753,0.014 1.364,0.638 1.364,1.391c0,0.752 -0.611,1.376 -1.364,1.39l-38.344,0c-0.753,-0.014 -1.364,-0.638 -1.364,-1.39c0,-0.753 0.611,-1.377 1.364,-1.391Z" style="fill:#e5e8f5;fill-rule:nonzero;"/><path id="Shape-407" d="M219.575,179.924l59.091,0c0.008,0 0.017,0 0.026,0c0.762,0 1.39,0.628 1.39,1.391c0,0.762 -0.628,1.39 -1.39,1.39c-0.009,0 -0.018,0 -0.026,0l-59.091,0c-0.752,-0.014 -1.364,-0.638 -1.364,-1.39c0,-0.753 0.612,-1.377 1.364,-1.391Z" style="fill:#e5e8f5;fill-rule:nonzero;"/><path id="Shape-408" d="M176.372,186.759l92.044,0c0.009,0 0.018,-0.001 0.026,-0.001c0.763,0 1.391,0.628 1.391,1.391c0,0.762 -0.628,1.39 -1.391,1.39c-0.008,0 -0.017,0 -0.026,0l-92.044,0c-0.753,-0.014 -1.364,-0.637 -1.364,-1.39c0,-0.753 0.611,-1.376 1.364,-1.39Z" style="fill:#e5e8f5;fill-rule:nonzero;"/><path id="Shape-409" d="M176.372,193.508l13.69,0c0.009,0 0.017,0 0.026,0c0.763,0 1.39,0.627 1.39,1.39c0,0.763 -0.627,1.39 -1.39,1.39c-0.009,0 -0.017,0 -0.026,0l-13.69,0c-0.753,-0.014 -1.364,-0.637 -1.364,-1.39c0,-0.753 0.611,-1.376 1.364,-1.39Z" style="fill:#e5e8f5;fill-rule:nonzero;"/><path id="Shape-410" d="M196.387,193.593l27.603,0c0.753,0.014 1.365,0.637 1.365,1.39c0,0.753 -0.612,1.376 -1.365,1.39l-27.603,0c-0.753,-0.014 -1.364,-0.637 -1.364,-1.39c0,-0.753 0.611,-1.376 1.364,-1.39Z" style="fill:#e5e8f5;fill-rule:nonzero;"/><path id="Shape-411" d="M176.372,199.695l27.359,0c0.753,0.014 1.364,0.637 1.364,1.39c0,0.753 -0.611,1.376 -1.364,1.39l-27.359,0c-0.753,-0.014 -1.364,-0.637 -1.364,-1.39c0,-0.753 0.611,-1.376 1.364,-1.39Z" style="fill:#e5e8f5;fill-rule:nonzero;"/><path id="Shape-412" d="M210.3,199.695l27.603,0c0.753,0.014 1.365,0.637 1.365,1.39c0,0.753 -0.612,1.376 -1.365,1.39l-27.603,0c-0.753,-0.014 -1.364,-0.637 -1.364,-1.39c0,-0.753 0.611,-1.376 1.364,-1.39Z" style="fill:#e5e8f5;fill-rule:nonzero;"/><path id="Shape-413" d="M229.583,193.593l43.714,0c0.009,0 0.017,0 0.026,0c0.763,0 1.39,0.627 1.39,1.39c0,0.763 -0.627,1.39 -1.39,1.39c-0.009,0 -0.017,0 -0.026,0l-43.714,0c-0.753,-0.014 -1.364,-0.637 -1.364,-1.39c0,-0.753 0.611,-1.376 1.364,-1.39Z" style="fill:#e5e8f5;fill-rule:nonzero;"/><path id="Shape-414" d="M176.372,214.097l38.344,0c0.753,0.014 1.364,0.637 1.364,1.39c0,0.753 -0.611,1.376 -1.364,1.39l-38.344,0c-0.753,-0.014 -1.364,-0.637 -1.364,-1.39c0,-0.753 0.611,-1.376 1.364,-1.39Z" style="fill:#e5e8f5;fill-rule:nonzero;"/><path id="Shape-415" d="M219.575,214.097l59.091,0c0.008,-0.001 0.017,-0.001 0.026,-0.001c0.762,0 1.39,0.628 1.39,1.391c0,0.762 -0.628,1.39 -1.39,1.39c-0.009,0 -0.018,0 -0.026,0l-59.091,0c-0.752,-0.014 -1.364,-0.637 -1.364,-1.39c0,-0.753 0.612,-1.376 1.364,-1.39Z" style="fill:#e5e8f5;fill-rule:nonzero;"/><path id="Shape-416" d="M176.372,220.931l92.044,0c0.009,0 0.018,0 0.026,0c0.763,0 1.391,0.627 1.391,1.39c0,0.763 -0.628,1.39 -1.391,1.39c-0.008,0 -0.017,0 -0.026,0l-92.044,0c-0.753,-0.014 -1.364,-0.637 -1.364,-1.39c0,-0.753 0.611,-1.376 1.364,-1.39Z" style="fill:#e5e8f5;fill-rule:nonzero;"/><path id="Shape-417" d="M176.372,227.68l13.69,0c0.009,0 0.017,0 0.026,0c0.763,0 1.39,0.627 1.39,1.39c0,0.763 -0.627,1.391 -1.39,1.391c-0.009,0 -0.017,-0.001 -0.026,-0.001l-13.69,0c-0.753,-0.014 -1.364,-0.637 -1.364,-1.39c0,-0.753 0.611,-1.376 1.364,-1.39Z" style="fill:#e5e8f5;fill-rule:nonzero;"/><path id="Shape-418" d="M196.387,227.766l27.603,0c0.753,0.014 1.365,0.637 1.365,1.39c0,0.753 -0.612,1.376 -1.365,1.39l-27.603,0c-0.753,-0.014 -1.364,-0.637 -1.364,-1.39c0,-0.753 0.611,-1.376 1.364,-1.39Z" style="fill:#e5e8f5;fill-rule:nonzero;"/><path id="Shape-419" d="M176.372,233.868l27.359,0c0.753,0.014 1.364,0.637 1.364,1.39c0,0.753 -0.611,1.376 -1.364,1.39l-27.359,0c-0.753,-0.014 -1.364,-0.637 -1.364,-1.39c0,-0.753 0.611,-1.376 1.364,-1.39Z" style="fill:#e5e8f5;fill-rule:nonzero;"/><path id="Shape-420" d="M210.3,233.868l27.603,0c0.753,0.014 1.365,0.637 1.365,1.39c0,0.753 -0.612,1.376 -1.365,1.39l-27.603,0c-0.753,-0.014 -1.364,-0.637 -1.364,-1.39c0,-0.753 0.611,-1.376 1.364,-1.39Z" style="fill:#e5e8f5;fill-rule:nonzero;"/><path id="Shape-421" d="M229.583,227.766l43.714,0c0.009,-0.001 0.017,-0.001 0.026,-0.001c0.763,0 1.39,0.628 1.39,1.391c0,0.762 -0.627,1.39 -1.39,1.39c-0.009,0 -0.017,0 -0.026,0l-43.714,0c-0.753,-0.014 -1.364,-0.637 -1.364,-1.39c0,-0.753 0.611,-1.376 1.364,-1.39Z" style="fill:#e5e8f5;fill-rule:nonzero;"/><path id="Shape-422" d="M204.442,124.516l64.216,0c0.009,0 0.018,0 0.026,0c0.763,0 1.39,0.628 1.39,1.391c0,0.762 -0.627,1.39 -1.39,1.39c-0.008,0 -0.017,0 -0.026,0l-64.216,0c-0.752,-0.014 -1.364,-0.638 -1.364,-1.39c0,-0.753 0.612,-1.377 1.364,-1.391Z" style="fill:#e5e8f5;fill-rule:nonzero;"/><path id="Shape-423" d="M204.442,133.792l59.579,0c0.008,0 0.017,0 0.026,0c0.762,0 1.39,0.627 1.39,1.39c0,0.763 -0.628,1.39 -1.39,1.39c-0.009,0 -0.018,0 -0.026,0l-59.579,0c-0.752,-0.014 -1.364,-0.637 -1.364,-1.39c0,-0.753 0.612,-1.376 1.364,-1.39Z" style="fill:#e5e8f5;fill-rule:nonzero;"/><path id="Shape-424" d="M204.442,140.626l13.69,0c0.009,0 0.017,0 0.026,0c0.763,0 1.39,0.627 1.39,1.39c0,0.763 -0.627,1.39 -1.39,1.39c-0.009,0 -0.017,0 -0.026,0l-13.69,0c-0.752,-0.014 -1.364,-0.637 -1.364,-1.39c0,-0.753 0.612,-1.376 1.364,-1.39Z" style="fill:#e5e8f5;fill-rule:nonzero;"/><path id="Shape-425" d="M224.457,140.626l34.684,0c0.009,0 0.017,0 0.026,0c0.763,0 1.39,0.627 1.39,1.39c0,0.763 -0.627,1.39 -1.39,1.39c-0.009,0 -0.017,0 -0.026,0l-34.684,0c-0.753,-0.014 -1.364,-0.637 -1.364,-1.39c0,-0.753 0.611,-1.376 1.364,-1.39Z" style="fill:#e5e8f5;fill-rule:nonzero;"/><path id="Shape-426" d="M310.465,68.132l8.476,0c1.476,0 2.692,1.215 2.692,2.692l0,1.281c-0.001,1.476 -1.216,2.691 -2.692,2.691l-8.476,0c-1.476,0 -2.691,-1.215 -2.692,-2.691l0,-1.281c0,-1.477 1.215,-2.692 2.692,-2.692Z" style="fill:#e5e8f5;fill-rule:nonzero;"/><path id="Shape-428" d="M197.276,128.316c0,-2.189 -1.777,-3.966 -3.966,-3.966l-14.873,0c-2.188,0 -3.966,1.777 -3.966,3.966l0,11.752c0,2.189 1.778,3.966 3.966,3.966l14.873,0c2.189,0 3.966,-1.777 3.966,-3.966l0,-11.752Z" style="fill:#e5e8f5;"/><path id="Shape-429" d="M190.825,126.759l-5.84,7.852l-4.83,-3.407l-5.685,8.732l0,2.727c0,0.815 0.321,1.476 0.716,1.476l21.372,0c0.396,0 0.716,-0.661 0.716,-1.476l0,-8.796l-6.449,-7.108Z" style="fill:#bbc0d6;fill-rule:nonzero;"/><path id="Shape-430" d="M204.442,149.901l68.366,0c0.009,0 0.017,0 0.026,0c0.763,0 1.39,0.628 1.39,1.391c0,0.762 -0.627,1.39 -1.39,1.39c-0.009,0 -0.017,0 -0.026,0l-68.366,0c-0.752,-0.014 -1.364,-0.638 -1.364,-1.39c0,-0.753 0.612,-1.377 1.364,-1.391Z" style="fill:#e5e8f5;fill-rule:nonzero;"/><path id="Shape-431" d="M204.442,159.177l59.579,0c0.008,0 0.017,0 0.026,0c0.762,0 1.39,0.627 1.39,1.39c0,0.763 -0.628,1.39 -1.39,1.39c-0.009,0 -0.018,0 -0.026,0l-59.579,0c-0.752,-0.014 -1.364,-0.637 -1.364,-1.39c0,-0.753 0.612,-1.376 1.364,-1.39Z" style="fill:#e5e8f5;fill-rule:nonzero;"/><path id="Shape-432" d="M204.442,166.011l13.69,0c0.009,0 0.017,0 0.026,0c0.763,0 1.39,0.627 1.39,1.39c0,0.763 -0.627,1.39 -1.39,1.39c-0.009,0 -0.017,0 -0.026,0l-13.69,0c-0.752,-0.014 -1.364,-0.637 -1.364,-1.39c0,-0.753 0.612,-1.376 1.364,-1.39Z" style="fill:#e5e8f5;fill-rule:nonzero;"/><path id="Shape-433" d="M224.457,166.011l34.684,0c0.009,0 0.017,0 0.026,0c0.763,0 1.39,0.627 1.39,1.39c0,0.763 -0.627,1.39 -1.39,1.39c-0.009,0 -0.017,0 -0.026,0l-34.684,0c-0.753,-0.014 -1.364,-0.637 -1.364,-1.39c0,-0.753 0.611,-1.376 1.364,-1.39Z" style="fill:#e5e8f5;fill-rule:nonzero;"/><path id="Shape-434" d="M197.276,153.701c0,-2.189 -1.777,-3.966 -3.966,-3.966l-14.873,0c-2.188,0 -3.966,1.777 -3.966,3.966l0,11.752c0,2.189 1.778,3.966 3.966,3.966l14.873,0c2.189,0 3.966,-1.777 3.966,-3.966l0,-11.752Z" style="fill:#e5e8f5;"/><path id="Shape-435" d="M190.825,152.144l-5.84,7.852l-4.83,-3.406l-5.685,8.731l0,2.727c0,0.815 0.321,1.476 0.716,1.476l21.372,0c0.396,0 0.716,-0.661 0.716,-1.476l0,-8.796l-6.449,-7.108Z" style="fill:#bbc0d6;fill-rule:nonzero;"/></g></g></svg>