<?xml version="1.0" encoding="UTF-8" standalone="no"?><!DOCTYPE svg PUBLIC "-//W3C//DTD SVG 1.1//EN" "http://www.w3.org/Graphics/SVG/1.1/DTD/svg11.dtd"><svg width="100%" height="100%" viewBox="0 0 55 51" version="1.1" xmlns="http://www.w3.org/2000/svg" xmlns:xlink="http://www.w3.org/1999/xlink" xml:space="preserve" xmlns:serif="http://www.serif.com/" style="fill-rule:evenodd;clip-rule:evenodd;stroke-linejoin:round;stroke-miterlimit:2;"><g><path d="M42.5,39.1c-0.942,0 -1.7,-0.762 -1.7,-1.7l0,-3.611c0,-6.463 -1.761,-12.811 -5.09,-18.363l-1.707,-2.849c-1.635,-2.724 -4.236,-4.648 -7.323,-5.423c-3.077,-0.769 -6.28,-0.296 -9,1.339c-2.727,1.639 -4.651,4.236 -5.426,7.32c-0.772,3.085 -0.296,6.28 1.339,9.001l1.71,2.855c1.112,1.846 1.697,3.964 1.697,6.12l0,3.608c0,0.938 -0.762,1.7 -1.7,1.7c-0.942,0 -1.7,-0.762 -1.7,-1.7l0,-3.608c0,-1.54 -0.418,-3.05 -1.214,-4.369l-1.71,-2.856c-2.098,-3.499 -2.713,-7.612 -1.72,-11.577c0.989,-3.964 3.468,-7.306 6.973,-9.407c3.495,-2.109 7.609,-2.727 11.58,-1.724c3.961,0.989 7.307,3.468 9.408,6.97l1.71,2.852c3.645,6.076 5.573,13.029 5.573,20.111l0,3.611c0,0.938 -0.762,1.7 -1.7,1.7Z" style="fill:#3898ec;fill-rule:nonzero;"/><path d="M35.7,42.5c-0.942,0 -1.7,-0.762 -1.7,-1.7l0,-7.011c0,-5.233 -1.425,-10.377 -4.117,-14.865l-1.711,-2.849c-0.7,-1.169 -1.815,-1.992 -3.138,-2.322c-1.326,-0.33 -2.689,-0.129 -3.859,0.571c-1.169,0.704 -1.992,1.819 -2.325,3.138c-0.33,1.323 -0.126,2.69 0.574,3.859l1.707,2.849c1.744,2.908 2.669,6.232 2.669,9.619l0,7.011c0,0.938 -0.762,1.7 -1.7,1.7c-0.942,0 -1.7,-0.762 -1.7,-1.7l0,-7.011c0,-2.767 -0.755,-5.491 -2.183,-7.871l-1.707,-2.849c-1.169,-1.945 -1.509,-4.23 -0.958,-6.433c0.55,-2.199 1.924,-4.056 3.872,-5.226c1.945,-1.173 4.23,-1.502 6.433,-0.958c2.203,0.551 4.06,1.928 5.229,3.872l1.71,2.846c3.013,5.022 4.604,10.768 4.604,16.619l0,7.011c0,0.938 -0.762,1.7 -1.7,1.7Z" style="fill:#3898ec;fill-rule:nonzero;"/><path d="M28.9,47.6c-0.942,0 -1.7,-0.762 -1.7,-1.7l0,-12.111c0,-4.005 -1.091,-7.935 -3.148,-11.369l-1.711,-2.846c-0.482,-0.806 -0.224,-1.85 0.582,-2.332c0.809,-0.484 1.853,-0.225 2.332,0.581l1.711,2.849c2.376,3.961 3.634,8.497 3.634,13.117l0,12.111c0,0.938 -0.762,1.7 -1.7,1.7Z" style="fill:#3898ec;fill-rule:nonzero;"/><path d="M1.7,13.6c-0.942,0 -1.7,-0.762 -1.7,-1.7l0,-10.2c0,-0.942 0.758,-1.7 1.7,-1.7l10.193,0c0.942,0 1.7,0.758 1.7,1.7c0,0.938 -0.758,1.7 -1.7,1.7l-8.493,0l0,8.5c0,0.938 -0.762,1.7 -1.7,1.7Z" style="fill:#455b65;fill-rule:nonzero;"/><path d="M52.693,13.6c-0.942,0 -1.7,-0.762 -1.7,-1.7l0,-8.5l-8.493,0c-0.942,0 -1.7,-0.762 -1.7,-1.7c0,-0.942 0.758,-1.7 1.7,-1.7l10.193,0c0.939,0 1.7,0.758 1.7,1.7l0,10.2c0,0.938 -0.761,1.7 -1.7,1.7Z" style="fill:#455b65;fill-rule:nonzero;"/><path d="M11.893,51l-10.193,0c-0.942,0 -1.7,-0.762 -1.7,-1.7l0,-10.2c0,-0.942 0.758,-1.7 1.7,-1.7c0.938,0 1.7,0.758 1.7,1.7l0,8.5l8.493,0c0.942,0 1.7,0.758 1.7,1.7c0,0.938 -0.758,1.7 -1.7,1.7Z" style="fill:#455b65;fill-rule:nonzero;"/><path d="M52.693,51l-10.193,0c-0.942,0 -1.7,-0.762 -1.7,-1.7c0,-0.942 0.758,-1.7 1.7,-1.7l8.493,0l0,-8.5c0,-0.942 0.758,-1.7 1.7,-1.7c0.939,0 1.7,0.758 1.7,1.7l0,10.2c0,0.938 -0.761,1.7 -1.7,1.7Z" style="fill:#455b65;fill-rule:nonzero;"/></g></svg>